<?xml version="1.0" encoding="utf-8"?>
<!-- Generator: Adobe Illustrator 27.0.1, SVG Export Plug-In . SVG Version: 6.00 Build 0)  -->
<svg version="1.1" id="Layer_1" xmlns="http://www.w3.org/2000/svg" xmlns:xlink="http://www.w3.org/1999/xlink" x="0px" y="0px"
	 viewBox="0 0 288 818" style="enable-background:new 0 0 288 818;" xml:space="preserve">
<style type="text/css">
	.st0{fill:#020202;}
	.st1{fill:#030303;}
	.st2{fill:#010101;}
	.st3{fill:#696969;}
	.st4{fill:#717171;}
	.st5{fill:#3C3C3C;}
	.st6{fill:#666666;}
</style>
<path class="st0" d="M142.3,413.7c-2.7-3.8-5.4-7.4-8.1-11.2c-0.2-0.3-0.3-0.8-0.4-1.2c0.4-0.1,0.8-0.3,1.3-0.4
	c0.9-0.2,1.5,0.2,2.1,1c1.7,2.4,3.5,4.8,5.2,7.2c0.2,0.2,0.4,0.5,0.7,0.9c0-0.6,0.1-0.9,0.1-1.2c0-2.2,0-4.5,0-6.7
	c0-1.1,0.1-1.2,1.5-1.2c1.2,0,1.3,0.1,1.3,1.2c0,3.9,0,7.8,0,11.7c0,0.8-0.3,1.1-1.1,1.2C143.7,415.1,142.8,414.8,142.3,413.7z"/>
<path class="st0" d="M180,408.2c-1.4-1.9-2.8-3.8-4.2-5.7c-0.2-0.3-0.4-0.8-0.3-1.2c0-0.2,0.7-0.3,1-0.4c1.1-0.2,1.8,0.3,2.4,1.2
	c1.6,2.4,3.4,4.6,5.1,6.9c0.2,0.3,0.4,0.5,0.8,1c0-0.6,0.1-0.9,0.1-1.2c0-2.2,0-4.5,0-6.7c0-1.1,0.2-1.2,1.5-1.2
	c1.2,0,1.3,0.1,1.3,1.2c0,3.9,0,7.8,0,11.7c0,0.8-0.3,1.1-1.1,1.2c-1.1,0.1-1.8-0.3-2.5-1.2C182.7,411.9,181.4,410.1,180,408.2z"/>
<path class="st0" d="M151.1,412.2c-2.7-4.4-0.7-9.9,4-11.1c1.1-0.3,1.3-0.1,1.3,1c0.1,0.9-0.1,1.5-1.2,1.9c-1.7,0.6-2.6,2.2-2.6,4.2
	c0,1.9,1.1,3.4,2.7,4c0.9,0.4,1.5,1.7,1,2.5c-0.1,0.2-0.7,0.4-1,0.3C153.5,414.7,152.2,413.7,151.1,412.2z"/>
<path class="st0" d="M157.5,413.4c0-0.7,0.3-0.9,0.9-1.1c1.3-0.4,2.2-1.2,2.7-2.7c-1.3,0-2.4,0-3.6,0c-1,0-1.1-0.5-1.1-1.3
	c0-1.2,0.1-1.4,1.1-1.4c1.9,0,3.7,0,5.6,0c0.7,0,1,0.2,1,0.9c0.2,3.1-1.7,6-4.6,7C157.8,415.4,157.5,415.2,157.5,413.4z"/>
<path class="st1" d="M120.1,403.7c-1.5,0-1.2-1-1.2-1.9c0.1-0.7,0.5-0.8,1.1-0.8c2.9,0,5.7,0,8.6,0c1,0,1.1,0.6,1.1,1.3
	c0,1.3-0.1,1.4-1.1,1.4C125.8,403.7,123,403.7,120.1,403.7z"/>
<path class="st1" d="M200.4,400.9c0.5,0,1,0,1.5,0c0.9-0.1,1.3,0.3,1.2,1.2c-0.1,1.5-0.1,1.5-1.6,1.5c-2.6,0-5.3,0-7.9,0
	c-1.2,0-1.3-0.1-1.2-1.4c0-1.2,0.1-1.3,1.2-1.3C195.8,401,198.1,401,200.4,400.9z"/>
<path class="st2" d="M196.2,412.3c2,0,3.9,0,5.8,0c1.1,0,1.1,0.6,1.1,1.4S203,415,202,415c-2.9,0-5.7,0-8.6,0c-1.1,0-1-0.6-1-1.4
	c0-0.7,0-1.4,1-1.4C194.3,412.3,195.2,412.3,196.2,412.3z"/>
<path class="st2" d="M127.1,415c-2.4,0-4.6,0-6.9,0c-1.1,0-1.2-0.1-1.2-1.4c0-1.2,0.1-1.3,1.2-1.4c1.5,0,2.9,0,4.5,0
	c1.5,0,2.9,0,4.5,0.1c0.3,0.2,0.4,0.4,0.5,0.6c0,0.4,0,0.9,0,1.5c-0.3,0.3-0.5,0.5-0.8,0.6C128.3,415,127.7,415,127.1,415z"/>
<path class="st2" d="M211.2,412.2c1.8,0,3.5,0,5.3,0c1.1,0,1.2,0.1,1.2,1.4c0,1.2-0.1,1.3-1.1,1.3c-0.5,0-1,0-1.6,0
	c-2.3,0-4.6,0-6.8,0c-1.1,0-1.2-0.1-1.2-1.3c0-1.3,0.1-1.4,1.2-1.4C209.2,412.3,210.2,412.3,211.2,412.2z"/>
<path class="st0" d="M199.5,409.4c-2.1,0-4,0-6,0c-1.1,0-1.2-0.1-1.2-1.4s0.1-1.4,1.2-1.4c2.5,0,5,0,7.5,0c1.1,0,1.2,0.1,1.2,1.5
	c0,1.2-0.1,1.3-1.3,1.3C200.5,409.4,200.1,409.4,199.5,409.4z"/>
<path class="st1" d="M123.5,409.4c-1.2,0-2.4,0-3.5,0c-1,0-1.1-0.6-1.1-1.3c0-0.8,0-1.5,1.1-1.4c0.3,0,0.7,0,1.1,0
	c2.2,0,4.3,0,6.4,0c1.2,0,1.3,0.1,1.3,1.4c0,1.2-0.1,1.4-1.3,1.4C126.2,409.4,124.9,409.4,123.5,409.4z"/>
<path class="st1" d="M207,408.1c0.1-1.6,0.1-1.6,1.6-1.6c2.3,0,4.7,0,7,0c1.1,0,1.3,0.2,1.3,1.4c0,1.1-0.2,1.4-1.3,1.4
	c-1.9,0-3.7,0-5.7,0c-0.6,0-1.2,0-1.8,0C207.3,409.4,206.9,409.1,207,408.1z"/>
<path class="st1" d="M170.6,409.9c0,1.4,0,2.7,0,4c0,0.7-0.3,1.1-1,1.1c-1.7,0-1.7,0-1.7-1.7c0-1.9,0-3.7,0-5.6
	c0-1.1,0.2-1.1,1.5-1.2c0.8,0,1.3,0.2,1.3,1.1C170.5,408.4,170.6,409.1,170.6,409.9z"/>
<path class="st1" d="M159.7,401.3c1.6,0.7,2.7,1.7,3.5,3.1c0.5,0.9,0.2,1.3-0.8,1.3c-0.9,0.1-1.7-0.1-2.3-0.9
	c-0.4-0.5-1.1-0.8-1.8-1.1c-0.7-0.3-1.2-2.2-0.5-2.6C158.3,401,159,401.3,159.7,401.3z"/>
<path class="st1" d="M135,415c-1.3,0-1.4-0.1-1.4-1.3c0-0.8,0-1.7,0-2.5c0-0.7,0.3-1.1,1-1c0.3,0,0.7-0.1,1,0s0.7,0.5,0.7,0.7
	c0.1,1.1,0,2.2,0,3.2C136.4,415.1,135.7,415,135,415z"/>
<path class="st1" d="M168.4,401c2.2,0,2.2,0,2.2,2c0,0.7,0,1.3,0,2c0,0.6-0.3,0.9-0.9,0.8c-0.3,0-0.7,0.1-1,0s-0.8-0.5-0.8-0.7
	c-0.1-1.1-0.1-2.2,0-3.3C167.9,401.5,168.2,401.2,168.4,401z"/>
<path class="st2" d="M175.4,410.5c0.8-0.2,1.5-0.3,2.2-0.3c0.1,0,0.4,0.4,0.4,0.7c0,1.1,0.1,2.2,0,3.3c0,0.3-0.5,0.6-0.8,0.8
	c-0.3,0.1-0.8,0.1-1.1,0s-0.8-0.5-0.8-0.8C175.3,413,175.4,411.8,175.4,410.5z"/>
<path class="st3" d="M128.9,415.1c0.2-0.2,0.5-0.4,0.8-0.6c0,0.2,0,0.5,0,0.8C129.4,415.3,129.2,415.2,128.9,415.1z"/>
<path class="st3" d="M129.7,412.9c-0.2-0.2-0.3-0.4-0.5-0.6c0.2,0,0.5,0,0.7,0C129.9,412.5,129.8,412.7,129.7,412.9z"/>
<path class="st4" d="M286.5,470.9C286.4,470.9,286.4,470.9,286.5,470.9C286.4,470.9,286.4,470.9,286.5,470.9z"/>
<path class="st4" d="M235.5,436.9L235.5,436.9z"/>
<path class="st0" d="M226.8,403.6c-1.4,0-2.8,0-4.1,0c-0.8,0-1.2-0.2-1.1-1.1c0-0.2,0-0.3,0-0.5c-0.1-0.9,0.3-1.2,1.2-1.2
	c1.9,0.1,3.9,0,5.8,0c2.4,0,4.3,1.6,4.6,3.6c0.4,2.5-0.3,3.8-2.6,5.1c0.8,1.3,1.7,2.5,2.5,3.8c0.2,0.3,0.5,1,0.3,1.1
	c-0.2,0.3-0.8,0.4-1.2,0.5c-1.2,0.3-1.8-0.3-2.3-1.3c-0.2-0.5-0.7-1-0.9-1.5c-0.8-2.3-2.6-2.3-4.6-1.9c0,1.2,0,2.4,0,3.6
	c0,0.8-0.3,1.3-1.2,1.1c-0.5-0.1-1.5,0.4-1.6-0.5c-0.1-2.1-0.1-4.3,0-6.4c0-0.2,0.6-0.6,1-0.6c1.5-0.1,3.1,0,4.6,0
	c0.4,0,0.8,0,1.2,0c1.2-0.1,1.9-0.7,2-1.7c0.2-1.1-0.6-1.8-1.9-2C228,403.6,227.5,403.6,226.8,403.6z"/>
<path class="st2" d="M254.5,409.9c0-2.6,0-5.2,0-7.8c0-1.1,0.1-1.2,1.3-1.2c1.3,0,1.5,0.1,1.5,1.2c0,3.9,0,7.7,0,11.6
	c0,1.1-0.1,1.2-1.3,1.2c-1,0.1-1.7-0.2-2.3-1.1c-2.6-3.8-5.4-7.5-8.1-11.2c-0.2-0.2-0.4-0.5-0.5-0.8c0-0.3,0-0.7,0.2-0.8
	c0.6-0.4,2.4,0,2.9,0.6c2,2.7,4.1,5.5,6.2,8.3C254.4,410,254.4,409.9,254.5,409.9z"/>
<path class="st1" d="M262.1,411.7c-2.2-4.2-0.3-9.1,3.6-10.5c0.1,0,0.1-0.1,0.2-0.1c0.6,0,1.5-0.2,1.6,0c0.3,0.6,0.2,1.3,0.2,2
	c0,0.2-0.4,0.5-0.6,0.6c-2,0.8-3.1,2.2-3,4.3c0,2.1,1,3.5,3,4.2c0.6,0.2,0.6,0.5,0.7,1c0.2,2.3-0.6,2-2.1,1.4
	C264,414.2,262.9,413.2,262.1,411.7z"/>
<path class="st0" d="M270.6,409.6c-0.6,0-1.1,0-1.7,0c-1.1,0-1.2-0.1-1.2-1.4c0-1.2,0.1-1.3,1.2-1.3c1.8,0,3.5,0,5.3,0
	c0.8,0,1.2,0.3,1.2,1.1c-0.1,3.4-2.1,6.3-5.5,7.1c-0.8,0.2-1.2-0.1-1.2-0.9c-0.1-1.4-0.1-1.4,1.3-1.9c1.2-0.5,2.1-1.4,2.3-2.6
	C271.7,409.6,271.2,409.6,270.6,409.6z"/>
<path class="st1" d="M213.2,403.7c-1.8,0-3.6,0-5.3,0c-1,0-1.1-0.5-1-1.3c0-0.7-0.1-1.5,1-1.5c3,0,5.9,0,8.9,0c1.1,0,1,0.8,1,1.5
	c0,0.8-0.1,1.3-1,1.3C215.5,403.7,214.4,403.7,213.2,403.7z"/>
<path class="st2" d="M237.5,409.9c0-0.9,0-1.7,0-2.4c0-0.6,0.2-1,0.9-0.9c0.3,0,0.6,0,0.9,0c0.6,0,0.9,0.3,0.9,0.9
	c0,2.2,0,4.5,0,6.7c0,0.5-0.2,0.8-0.8,0.8c-1.9,0.2-1.9,0.1-1.9-1.8C237.5,412.1,237.5,411.1,237.5,409.9z"/>
<path class="st0" d="M269.9,403.9c-0.9-0.3-1.4-1.9-0.8-2.6c0.1-0.2,0.5-0.3,0.7-0.2c2.1,0.4,3.8,1.6,4.7,3.6
	c0.4,0.8,0.2,1.2-0.8,1.2c-0.9,0.1-1.7,0-2.3-0.9C271.2,404.5,270.5,404.2,269.9,403.9z"/>
<path class="st1" d="M244.8,411.8c0-1.6,1.1-2.3,2.4-1.6c0.2,0.1,0.5,0.5,0.5,0.7c0.1,1.1,0,2.1,0,3.2c0,0.6-0.3,0.9-1,0.9
	c-1.8,0.1-2,0-2-1.9C244.8,412.7,244.8,412.3,244.8,411.8z"/>
<path class="st2" d="M240.1,405.3c-0.7,0.8-1.6,0.4-2.4,0.4c-0.2,0-0.4-0.5-0.4-0.8c-0.1-1,0-2,0-3c0-0.6,0.3-0.9,0.9-0.9
	c0.1,0,0.2,0,0.4,0c1.5,0,1.5,0,1.5,1.5C240.1,403.4,240.1,404.3,240.1,405.3z"/>
<path class="st5" d="M254.4,409.9C254.4,409.9,254.4,410,254.4,409.9C254.3,410,254.4,409.9,254.4,409.9z"/>
<path class="st0" d="M97,402.7c-0.2-0.3-0.4-0.5-0.5-0.7c-0.3-0.6-0.1-1,0.5-1c1.1-0.1,2.1-0.1,2.9,1.1c1.5,2.3,3.3,4.5,4.9,6.8
	c0.2,0.3,0.5,0.6,0.9,0.8c0-0.3,0.1-0.7,0.1-1c0-2.2,0-4.4,0-6.5c0-0.9,0.4-1.2,1.2-1.2c1.4,0,1.5,0.1,1.5,1.1c0,3.9,0,7.8,0,11.8
	c0,0.8-0.4,1.1-1.2,1.2c-1.1,0.1-1.8-0.3-2.4-1.2C102.4,410.1,99.7,406.5,97,402.7z"/>
<path class="st1" d="M85,413.8c0,1.1-0.5,1.4-1.5,1.4c-3-0.1-6,0-9,0c-0.9,0-1.1-0.3-1.1-1.1c0-1.1,0.2-2.1,1.2-2.7
	c0.4-0.2,0.6-0.6,0.8-1c0.7-1.3,1.9-1.3,3.1-1.2c0.6,0.1,0.9,0.5,0.6,1c-0.5,0.7-1,1.3-1.6,2.2c2.3,0,4.6,0,6.9,0
	C84.7,412.9,84.9,413.3,85,413.8z"/>
<path class="st2" d="M80.9,403.7c-2,0-4,0-6,0c-1.1,0-1.2-0.1-1.2-1.4c0-1.1,0.1-1.3,1.2-1.3c1.2,0,2.4,0,3.6,0c1.7,0,3.3,0,4.9,0
	c0.5,0,1.4,0.2,1.4,0.4c0.1,0.8,0.1,1.7-0.2,2.3c-0.7,1.1-1.7,2.1-2.7,3.2c-0.6,0.1-1.1,0.1-1.7,0.1c-0.4,0-1-0.2-1-0.3
	c0-0.5,0.1-1,0.3-1.4c0.3-0.5,0.7-0.8,1.2-1.2C80.9,403.9,80.9,403.8,80.9,403.7z"/>
<path class="st1" d="M88.8,411.6c0-1.4,0-2.7,0-4c0-0.7,0.3-1,1-1c1.7-0.1,1.8,0,1.8,1.7c0,1.9,0,3.7,0,5.6c0,1-0.2,1.1-1.5,1.1
	c-0.9,0-1.3-0.2-1.2-1.2C88.8,413.1,88.8,412.4,88.8,411.6z"/>
<path class="st1" d="M91.6,402.9c0,0.7,0,1.4,0,2s-0.3,0.9-0.9,0.9c-0.4,0-0.8,0.1-1.1,0c-0.3-0.1-0.7-0.4-0.7-0.7
	c-0.1-1.1-0.1-2.3,0-3.4c0-0.3,0.4-0.5,0.7-0.7c0.2-0.1,0.5,0,0.8,0c1.1,0,1.2,0.1,1.2,1.2C91.6,402.4,91.6,402.6,91.6,402.9z"/>
<path class="st1" d="M96.3,413.5c0-0.8,0-1.6,0-2.3c0-0.7,0.3-1,1-1c0.3,0,0.6,0,0.8,0c0.6,0,0.9,0.3,0.9,0.9c0,1,0,2,0,3
	c0,0.7-0.3,0.9-1,1C96.5,415,96.3,414.9,96.3,413.5z"/>
<path class="st2" d="M54.1,415c-0.7,0.1-1.1-0.2-1.5-0.8c-0.7-1.2-1.5-2.4-2.3-3.6c-0.1-0.2-0.4-0.4-0.6-0.5c-1,0-1.9,0-3,0
	c0,1.3,0,2.5,0,3.7c0,0.9-0.4,1.2-1.2,1.2c-1.3,0-1.5-0.1-1.5-1.1c0-1.8,0-3.6,0-5.4c0-0.8,0.3-1.1,1-1c1.8,0,3.6,0.1,5.4,0
	c0.7-0.1,1.7-0.4,2.1-0.9c0.9-1.2-0.1-2.7-1.7-2.8c-1.2-0.1-2.4,0-3.6,0c-0.6,0-1.2,0-1.9,0c-1.3,0-1.4,0-1.4-1.3
	c0-1.2,0.1-1.3,1.3-1.3c0.4,0,0.9,0,1.4,0c1.8,0.1,3.6,0,5.3,0.2c2.2,0.3,3.4,1.6,3.7,3.8c0.2,1.4-0.3,3.6-2.2,4.4
	c-0.1,0-0.2,0.1-0.3,0.3c0.8,1.3,1.7,2.6,2.5,3.9c0.2,0.3,0.2,0.7,0.3,1.1c-0.1,0.2-0.2,0.2-0.3,0.3C55.1,415,54.6,415,54.1,415z"/>
<path class="st1" d="M59.8,401.7c0-0.5,0.3-0.8,0.8-0.8c3,0,6,0,9,0c0.6,0,0.9,0.3,0.9,0.9c0,0.3,0,0.6,0,0.9c0,0.6-0.3,0.9-0.9,0.9
	c-3,0-5.9,0-8.9,0c-0.3,0-0.6-0.3-0.9-0.7C59.8,402.5,59.8,402.1,59.8,401.7z"/>
<path class="st2" d="M59.8,412.9c0.3-0.2,0.7-0.6,1-0.6c2.9,0,5.8,0,8.7,0c1.2,0,0.9,0.9,1,1.6c0.1,0.8-0.2,1.2-1,1.1
	c-2.9,0-5.8,0-8.7,0c-0.3,0-0.6-0.3-0.9-0.6C59.8,413.8,59.8,413.4,59.8,412.9z"/>
<path class="st1" d="M59.8,407.3c0.2-0.2,0.4-0.7,0.7-0.7c3,0,6,0,9,0c0.1,0,0.1,0.1,0.2,0.1c0,0.1,0.1,0.1,0.1,0.2
	c0.1,2.5,0.1,2.5-2.3,2.5c-2.2,0-4.4,0-6.5,0c-0.4,0-0.9,0.1-1-0.7C59.8,408.1,59.8,407.7,59.8,407.3z"/>
<path class="st6" d="M59.8,413c0.1,0.4,0.1,0.9,0.1,1.4C59.2,414,59.2,413.5,59.8,413z"/>
<path class="st6" d="M59.8,407.4c0.1,0.3,0.1,0.7,0.1,1.2C59.3,408.2,59.2,407.8,59.8,407.4z"/>
<path class="st6" d="M59.8,401.7c0.1,0.3,0.1,0.7,0.1,1.2C59.3,402.6,59.2,402.2,59.8,401.7z"/>
<path class="st6" d="M55.6,415c0-0.1,0.1-0.1,0.3-0.2C55.8,414.8,55.7,414.9,55.6,415z"/>
<path class="st6" d="M71.6,445.3L71.6,445.3z"/>
<path class="st6" d="M83.6,463.2L83.6,463.2z"/>
<path class="st5" d="M80.9,403.8c0,0,0,0.1,0,0.2C80.8,403.9,80.8,403.9,80.9,403.8z"/>
<path class="st0" d="M21.6,415c-2.3,0-4.5,0-6.7,0c-1.1,0-1.2-0.2-1.2-1.3c0-1.2,0.1-1.4,1.2-1.4c1.7,0,3.5,0,5.2,0
	c0.5,0,0.9,0,1.4-0.1c0.6-0.1,1.1-0.5,1.1-1.2c0.1-0.7-0.3-1.2-0.9-1.5c-0.5-0.2-1-0.2-1.6-0.2c-1.8,0-3.5,0-5.3,0
	c-1,0-1.1-0.2-1.1-1.4c0-0.8,0.2-1.3,1.1-1.3c1.8,0,3.6,0.1,5.3,0c0.6,0,1.3-0.3,1.6-0.7c0.7-0.9,0-2.1-1.3-2.2
	c-1.8-0.1-3.5,0-5.3,0c-1.3,0-2-1.1-1.3-2.2c0.2-0.3,0.8-0.3,1.3-0.5c1.8,0,3.4,0,5.1,0c1.2,0,2.3,0.3,3.3,1.1
	c1.6,1.3,1.5,3.9,0.7,5.1c-0.1,0.2-0.2,0.4-0.4,0.6c1.2,1.1,1.9,2.3,1.6,3.9C25,413.7,23.4,414.5,21.6,415z"/>
<path class="st1" d="M36.5,401c1,0,1.8,0,2.7,0c0.6,0,0.9,0.3,0.8,0.8c0,0.3,0,0.6,0,0.9c0,0.7-0.3,1-0.9,1c-3,0-6,0-9,0
	c-0.5,0-0.7-0.2-0.7-0.7c-0.2-2-0.1-2,1.9-2C32.9,401,34.7,401,36.5,401z"/>
<path class="st2" d="M31.8,415c-0.4,0-0.7,0-1,0c-1.4,0-1.4,0-1.4-1.4c0-1.2,0.1-1.3,1.3-1.3c2.7,0,5.5,0,8.2,0
	c1.1,0,1.1,0.1,1.1,1.5c0,0.9-0.2,1.2-1.2,1.2C36.6,415,34.2,415,31.8,415z"/>
<path class="st1" d="M38.1,409.4c-2.6,0-5.1,0-7.6,0c-0.9,0-1.3-0.3-1.2-1.2c0-0.3-0.1-0.7,0-0.9c0.1-0.3,0.4-0.6,0.7-0.7
	c2.8,0,5.5,0,8.3,0c0.9,0,0.8,0.7,0.9,1.3C39.3,408.7,39.2,409.4,38.1,409.4z"/>
</svg>
