%TF.GenerationSoftware,KiCad,Pcbnew,(6.0.10-0)*%
%TF.CreationDate,2023-01-04T14:52:54-08:00*%
%TF.ProjectId,rgbcct_module,72676263-6374-45f6-9d6f-64756c652e6b,1.0*%
%TF.SameCoordinates,Original*%
%TF.FileFunction,Soldermask,Bot*%
%TF.FilePolarity,Negative*%
%FSLAX46Y46*%
G04 Gerber Fmt 4.6, Leading zero omitted, Abs format (unit mm)*
G04 Created by KiCad (PCBNEW (6.0.10-0)) date 2023-01-04 14:52:54*
%MOMM*%
%LPD*%
G01*
G04 APERTURE LIST*
%ADD10C,2.100000*%
%ADD11C,2.400000*%
%ADD12C,4.500000*%
%ADD13C,1.500000*%
%ADD14C,3.200000*%
%ADD15C,1.800000*%
%ADD16R,1.800000X1.800000*%
G04 APERTURE END LIST*
D10*
%TO.C,J11*%
X141752390Y-131131816D03*
X136752390Y-131131816D03*
X131752390Y-131131816D03*
%TD*%
D11*
%TO.C,J10*%
X103927390Y-128576816D03*
X88177390Y-128576816D03*
D12*
X90337390Y-125526816D03*
X101767390Y-125526816D03*
D13*
X100497390Y-116636816D03*
X99227390Y-119176816D03*
X97957390Y-116636816D03*
X96687390Y-119176816D03*
X95417390Y-116636816D03*
X94147390Y-119176816D03*
X92877390Y-116636816D03*
X91607390Y-119176816D03*
%TD*%
D14*
%TO.C,H3*%
X224752390Y-50931816D03*
%TD*%
D15*
%TO.C,J1*%
X95252390Y-76791816D03*
X92152390Y-76791816D03*
X95252390Y-74291816D03*
X92152390Y-74291816D03*
X95252390Y-71791816D03*
X92152390Y-71791816D03*
X95252390Y-69291816D03*
X92152390Y-69291816D03*
X95252390Y-66791816D03*
X92152390Y-66791816D03*
X95252390Y-64291816D03*
D16*
X92152390Y-64291816D03*
%TD*%
D15*
%TO.C,J4*%
X137252390Y-76766816D03*
X134152390Y-76766816D03*
X137252390Y-74266816D03*
X134152390Y-74266816D03*
X137252390Y-71766816D03*
X134152390Y-71766816D03*
X137252390Y-69266816D03*
X134152390Y-69266816D03*
X137252390Y-66766816D03*
X134152390Y-66766816D03*
X137252390Y-64266816D03*
D16*
X134152390Y-64266816D03*
%TD*%
D14*
%TO.C,H1*%
X74752390Y-130931816D03*
%TD*%
D15*
%TO.C,J6*%
X165252390Y-76766816D03*
X162152390Y-76766816D03*
X165252390Y-74266816D03*
X162152390Y-74266816D03*
X165252390Y-71766816D03*
X162152390Y-71766816D03*
X165252390Y-69266816D03*
X162152390Y-69266816D03*
X165252390Y-66766816D03*
X162152390Y-66766816D03*
X165252390Y-64266816D03*
D16*
X162152390Y-64266816D03*
%TD*%
D14*
%TO.C,H4*%
X224752390Y-130931816D03*
%TD*%
D15*
%TO.C,J9*%
X207252390Y-76791816D03*
X204152390Y-76791816D03*
X207252390Y-74291816D03*
X204152390Y-74291816D03*
X207252390Y-71791816D03*
X204152390Y-71791816D03*
X207252390Y-69291816D03*
X204152390Y-69291816D03*
X207252390Y-66791816D03*
X204152390Y-66791816D03*
X207252390Y-64291816D03*
D16*
X204152390Y-64291816D03*
%TD*%
D10*
%TO.C,J12*%
X167752390Y-131131816D03*
X162752390Y-131131816D03*
X157752390Y-131131816D03*
%TD*%
D15*
%TO.C,J2*%
X109252390Y-76791816D03*
X106152390Y-76791816D03*
X109252390Y-74291816D03*
X106152390Y-74291816D03*
X109252390Y-71791816D03*
X106152390Y-71791816D03*
X109252390Y-69291816D03*
X106152390Y-69291816D03*
X109252390Y-66791816D03*
X106152390Y-66791816D03*
X109252390Y-64291816D03*
D16*
X106152390Y-64291816D03*
%TD*%
D15*
%TO.C,J3*%
X123252390Y-76791816D03*
X120152390Y-76791816D03*
X123252390Y-74291816D03*
X120152390Y-74291816D03*
X123252390Y-71791816D03*
X120152390Y-71791816D03*
X123252390Y-69291816D03*
X120152390Y-69291816D03*
X123252390Y-66791816D03*
X120152390Y-66791816D03*
X123252390Y-64291816D03*
D16*
X120152390Y-64291816D03*
%TD*%
D15*
%TO.C,J7*%
X179252390Y-76766816D03*
X176152390Y-76766816D03*
X179252390Y-74266816D03*
X176152390Y-74266816D03*
X179252390Y-71766816D03*
X176152390Y-71766816D03*
X179252390Y-69266816D03*
X176152390Y-69266816D03*
X179252390Y-66766816D03*
X176152390Y-66766816D03*
X179252390Y-64266816D03*
D16*
X176152390Y-64266816D03*
%TD*%
D15*
%TO.C,J8*%
X193252390Y-76791816D03*
X190152390Y-76791816D03*
X193252390Y-74291816D03*
X190152390Y-74291816D03*
X193252390Y-71791816D03*
X190152390Y-71791816D03*
X193252390Y-69291816D03*
X190152390Y-69291816D03*
X193252390Y-66791816D03*
X190152390Y-66791816D03*
X193252390Y-64291816D03*
D16*
X190152390Y-64291816D03*
%TD*%
D15*
%TO.C,J5*%
X151252390Y-76791816D03*
X148152390Y-76791816D03*
X151252390Y-74291816D03*
X148152390Y-74291816D03*
X151252390Y-71791816D03*
X148152390Y-71791816D03*
X151252390Y-69291816D03*
X148152390Y-69291816D03*
X151252390Y-66791816D03*
X148152390Y-66791816D03*
X151252390Y-64291816D03*
D16*
X148152390Y-64291816D03*
%TD*%
D14*
%TO.C,H2*%
X74752390Y-50931816D03*
%TD*%
M02*
