%TF.GenerationSoftware,KiCad,Pcbnew,(6.0.10-0)*%
%TF.CreationDate,2023-01-04T14:52:54-08:00*%
%TF.ProjectId,rgbcct_module,72676263-6374-45f6-9d6f-64756c652e6b,1.0*%
%TF.SameCoordinates,Original*%
%TF.FileFunction,Legend,Top*%
%TF.FilePolarity,Positive*%
%FSLAX46Y46*%
G04 Gerber Fmt 4.6, Leading zero omitted, Abs format (unit mm)*
G04 Created by KiCad (PCBNEW (6.0.10-0)) date 2023-01-04 14:52:54*
%MOMM*%
%LPD*%
G01*
G04 APERTURE LIST*
%ADD10C,0.250000*%
%ADD11C,0.562500*%
%ADD12C,0.000000*%
%ADD13C,0.500000*%
%ADD14C,0.254000*%
%ADD15C,0.200000*%
%ADD16C,0.100000*%
G04 APERTURE END LIST*
D10*
X216712509Y-66521101D02*
X217664890Y-66521101D01*
X219867270Y-65806816D02*
X219748223Y-65747292D01*
X219569651Y-65747292D01*
X219391080Y-65806816D01*
X219272032Y-65925863D01*
X219212509Y-66044911D01*
X219152985Y-66283006D01*
X219152985Y-66461577D01*
X219212509Y-66699673D01*
X219272032Y-66818720D01*
X219391080Y-66937768D01*
X219569651Y-66997292D01*
X219688699Y-66997292D01*
X219867270Y-66937768D01*
X219926794Y-66878244D01*
X219926794Y-66461577D01*
X219688699Y-66461577D01*
X221176794Y-66997292D02*
X220760128Y-66402054D01*
X220462509Y-66997292D02*
X220462509Y-65747292D01*
X220938699Y-65747292D01*
X221057747Y-65806816D01*
X221117270Y-65866339D01*
X221176794Y-65985387D01*
X221176794Y-66163958D01*
X221117270Y-66283006D01*
X221057747Y-66342530D01*
X220938699Y-66402054D01*
X220462509Y-66402054D01*
X221712509Y-66342530D02*
X222129175Y-66342530D01*
X222307747Y-66997292D02*
X221712509Y-66997292D01*
X221712509Y-65747292D01*
X222307747Y-65747292D01*
X222843461Y-66342530D02*
X223260128Y-66342530D01*
X223438699Y-66997292D02*
X222843461Y-66997292D01*
X222843461Y-65747292D01*
X223438699Y-65747292D01*
X223974413Y-66997292D02*
X223974413Y-65747292D01*
X224688699Y-66997292D01*
X224688699Y-65747292D01*
X216712509Y-64021101D02*
X217664890Y-64021101D01*
X219926794Y-64497292D02*
X219510128Y-63902054D01*
X219212509Y-64497292D02*
X219212509Y-63247292D01*
X219688699Y-63247292D01*
X219807747Y-63306816D01*
X219867270Y-63366339D01*
X219926794Y-63485387D01*
X219926794Y-63663958D01*
X219867270Y-63783006D01*
X219807747Y-63842530D01*
X219688699Y-63902054D01*
X219212509Y-63902054D01*
X220462509Y-63842530D02*
X220879175Y-63842530D01*
X221057747Y-64497292D02*
X220462509Y-64497292D01*
X220462509Y-63247292D01*
X221057747Y-63247292D01*
X221593461Y-64497292D02*
X221593461Y-63247292D01*
X221891080Y-63247292D01*
X222069651Y-63306816D01*
X222188699Y-63425863D01*
X222248223Y-63544911D01*
X222307747Y-63783006D01*
X222307747Y-63961577D01*
X222248223Y-64199673D01*
X222188699Y-64318720D01*
X222069651Y-64437768D01*
X221891080Y-64497292D01*
X221593461Y-64497292D01*
X216712509Y-69021101D02*
X217664890Y-69021101D01*
X219629175Y-68842530D02*
X219807747Y-68902054D01*
X219867270Y-68961577D01*
X219926794Y-69080625D01*
X219926794Y-69259196D01*
X219867270Y-69378244D01*
X219807747Y-69437768D01*
X219688699Y-69497292D01*
X219212509Y-69497292D01*
X219212509Y-68247292D01*
X219629175Y-68247292D01*
X219748223Y-68306816D01*
X219807747Y-68366339D01*
X219867270Y-68485387D01*
X219867270Y-68604435D01*
X219807747Y-68723482D01*
X219748223Y-68783006D01*
X219629175Y-68842530D01*
X219212509Y-68842530D01*
X221057747Y-69497292D02*
X220462509Y-69497292D01*
X220462509Y-68247292D01*
X221474413Y-68247292D02*
X221474413Y-69259196D01*
X221533937Y-69378244D01*
X221593461Y-69437768D01*
X221712509Y-69497292D01*
X221950604Y-69497292D01*
X222069651Y-69437768D01*
X222129175Y-69378244D01*
X222188699Y-69259196D01*
X222188699Y-68247292D01*
X222783937Y-68842530D02*
X223200604Y-68842530D01*
X223379175Y-69497292D02*
X222783937Y-69497292D01*
X222783937Y-68247292D01*
X223379175Y-68247292D01*
X216712509Y-71521101D02*
X217664890Y-71521101D01*
X219093461Y-70747292D02*
X219391080Y-71997292D01*
X219629175Y-71104435D01*
X219867270Y-71997292D01*
X220164890Y-70747292D01*
X220641080Y-71997292D02*
X220641080Y-70747292D01*
X220641080Y-71342530D02*
X221355366Y-71342530D01*
X221355366Y-71997292D02*
X221355366Y-70747292D01*
X221950604Y-71997292D02*
X221950604Y-70747292D01*
X222367270Y-70747292D02*
X223081556Y-70747292D01*
X222724413Y-71997292D02*
X222724413Y-70747292D01*
X223498223Y-71342530D02*
X223914890Y-71342530D01*
X224093461Y-71997292D02*
X223498223Y-71997292D01*
X223498223Y-70747292D01*
X224093461Y-70747292D01*
X216712509Y-76521101D02*
X217664890Y-76521101D01*
X217188699Y-76997292D02*
X217188699Y-76044911D01*
X219867270Y-76997292D02*
X219152985Y-76997292D01*
X219510128Y-76997292D02*
X219510128Y-75747292D01*
X219391080Y-75925863D01*
X219272032Y-76044911D01*
X219152985Y-76104435D01*
X220402985Y-76878244D02*
X220462509Y-76937768D01*
X220402985Y-76997292D01*
X220343461Y-76937768D01*
X220402985Y-76878244D01*
X220402985Y-76997292D01*
X221652985Y-76997292D02*
X220938699Y-76997292D01*
X221295842Y-76997292D02*
X221295842Y-75747292D01*
X221176794Y-75925863D01*
X221057747Y-76044911D01*
X220938699Y-76104435D01*
X222426794Y-75747292D02*
X222545842Y-75747292D01*
X222664890Y-75806816D01*
X222724413Y-75866339D01*
X222783937Y-75985387D01*
X222843461Y-76223482D01*
X222843461Y-76521101D01*
X222783937Y-76759196D01*
X222724413Y-76878244D01*
X222664890Y-76937768D01*
X222545842Y-76997292D01*
X222426794Y-76997292D01*
X222307747Y-76937768D01*
X222248223Y-76878244D01*
X222188699Y-76759196D01*
X222129175Y-76521101D01*
X222129175Y-76223482D01*
X222188699Y-75985387D01*
X222248223Y-75866339D01*
X222307747Y-75806816D01*
X222426794Y-75747292D01*
X223319651Y-76640149D02*
X223914890Y-76640149D01*
X223200604Y-76997292D02*
X223617270Y-75747292D01*
X224033937Y-76997292D01*
X216712509Y-74021101D02*
X217664890Y-74021101D01*
X219093461Y-73247292D02*
X219391080Y-74497292D01*
X219629175Y-73604435D01*
X219867270Y-74497292D01*
X220164890Y-73247292D01*
X220522032Y-73247292D02*
X220819651Y-74497292D01*
X221057747Y-73604435D01*
X221295842Y-74497292D01*
X221593461Y-73247292D01*
X222069651Y-74497292D02*
X222069651Y-73247292D01*
X222069651Y-73842530D02*
X222783937Y-73842530D01*
X222783937Y-74497292D02*
X222783937Y-73247292D01*
X223379175Y-74497292D02*
X223379175Y-73247292D01*
X223795842Y-73247292D02*
X224510128Y-73247292D01*
X224152985Y-74497292D02*
X224152985Y-73247292D01*
X224926794Y-73842530D02*
X225343461Y-73842530D01*
X225522032Y-74497292D02*
X224926794Y-74497292D01*
X224926794Y-73247292D01*
X225522032Y-73247292D01*
D11*
X134073818Y-121913958D02*
X134180961Y-121806816D01*
X134395247Y-121699673D01*
X134930961Y-121699673D01*
X135145247Y-121806816D01*
X135252390Y-121913958D01*
X135359532Y-122128244D01*
X135359532Y-122342530D01*
X135252390Y-122663958D01*
X133966675Y-123949673D01*
X135359532Y-123949673D01*
X137288104Y-122449673D02*
X137288104Y-123949673D01*
X136752390Y-121592530D02*
X136216675Y-123199673D01*
X137609532Y-123199673D01*
X138145247Y-121699673D02*
X138895247Y-123949673D01*
X139645247Y-121699673D01*
X161038104Y-121806816D02*
X160823818Y-121699673D01*
X160502390Y-121699673D01*
X160180961Y-121806816D01*
X159966675Y-122021101D01*
X159859532Y-122235387D01*
X159752390Y-122663958D01*
X159752390Y-122985387D01*
X159859532Y-123413958D01*
X159966675Y-123628244D01*
X160180961Y-123842530D01*
X160502390Y-123949673D01*
X160716675Y-123949673D01*
X161038104Y-123842530D01*
X161145247Y-123735387D01*
X161145247Y-122985387D01*
X160716675Y-122985387D01*
X162109532Y-123949673D02*
X162109532Y-121699673D01*
X163395247Y-123949673D01*
X163395247Y-121699673D01*
X164466675Y-123949673D02*
X164466675Y-121699673D01*
X165002390Y-121699673D01*
X165323818Y-121806816D01*
X165538104Y-122021101D01*
X165645247Y-122235387D01*
X165752390Y-122663958D01*
X165752390Y-122985387D01*
X165645247Y-123413958D01*
X165538104Y-123628244D01*
X165323818Y-123842530D01*
X165002390Y-123949673D01*
X164466675Y-123949673D01*
D10*
X76304175Y-76997292D02*
X75589890Y-76997292D01*
X75947032Y-76997292D02*
X75947032Y-75747292D01*
X75827985Y-75925863D01*
X75708937Y-76044911D01*
X75589890Y-76104435D01*
X76839890Y-76878244D02*
X76899413Y-76937768D01*
X76839890Y-76997292D01*
X76780366Y-76937768D01*
X76839890Y-76878244D01*
X76839890Y-76997292D01*
X78089890Y-76997292D02*
X77375604Y-76997292D01*
X77732747Y-76997292D02*
X77732747Y-75747292D01*
X77613699Y-75925863D01*
X77494651Y-76044911D01*
X77375604Y-76104435D01*
X78863699Y-75747292D02*
X78982747Y-75747292D01*
X79101794Y-75806816D01*
X79161318Y-75866339D01*
X79220842Y-75985387D01*
X79280366Y-76223482D01*
X79280366Y-76521101D01*
X79220842Y-76759196D01*
X79161318Y-76878244D01*
X79101794Y-76937768D01*
X78982747Y-76997292D01*
X78863699Y-76997292D01*
X78744651Y-76937768D01*
X78685128Y-76878244D01*
X78625604Y-76759196D01*
X78566080Y-76521101D01*
X78566080Y-76223482D01*
X78625604Y-75985387D01*
X78685128Y-75866339D01*
X78744651Y-75806816D01*
X78863699Y-75747292D01*
X79756556Y-76640149D02*
X80351794Y-76640149D01*
X79637509Y-76997292D02*
X80054175Y-75747292D01*
X80470842Y-76997292D01*
X81839890Y-76521101D02*
X82792270Y-76521101D01*
X82316080Y-76997292D02*
X82316080Y-76044911D01*
X73923223Y-73247292D02*
X74220842Y-74497292D01*
X74458937Y-73604435D01*
X74697032Y-74497292D01*
X74994651Y-73247292D01*
X75351794Y-73247292D02*
X75649413Y-74497292D01*
X75887509Y-73604435D01*
X76125604Y-74497292D01*
X76423223Y-73247292D01*
X76899413Y-74497292D02*
X76899413Y-73247292D01*
X76899413Y-73842530D02*
X77613699Y-73842530D01*
X77613699Y-74497292D02*
X77613699Y-73247292D01*
X78208937Y-74497292D02*
X78208937Y-73247292D01*
X78625604Y-73247292D02*
X79339890Y-73247292D01*
X78982747Y-74497292D02*
X78982747Y-73247292D01*
X79756556Y-73842530D02*
X80173223Y-73842530D01*
X80351794Y-74497292D02*
X79756556Y-74497292D01*
X79756556Y-73247292D01*
X80351794Y-73247292D01*
X81839890Y-74021101D02*
X82792270Y-74021101D01*
X75351794Y-70747292D02*
X75649413Y-71997292D01*
X75887509Y-71104435D01*
X76125604Y-71997292D01*
X76423223Y-70747292D01*
X76899413Y-71997292D02*
X76899413Y-70747292D01*
X76899413Y-71342530D02*
X77613699Y-71342530D01*
X77613699Y-71997292D02*
X77613699Y-70747292D01*
X78208937Y-71997292D02*
X78208937Y-70747292D01*
X78625604Y-70747292D02*
X79339890Y-70747292D01*
X78982747Y-71997292D02*
X78982747Y-70747292D01*
X79756556Y-71342530D02*
X80173223Y-71342530D01*
X80351794Y-71997292D02*
X79756556Y-71997292D01*
X79756556Y-70747292D01*
X80351794Y-70747292D01*
X81839890Y-71521101D02*
X82792270Y-71521101D01*
X76601794Y-68842530D02*
X76780366Y-68902054D01*
X76839890Y-68961577D01*
X76899413Y-69080625D01*
X76899413Y-69259196D01*
X76839890Y-69378244D01*
X76780366Y-69437768D01*
X76661318Y-69497292D01*
X76185128Y-69497292D01*
X76185128Y-68247292D01*
X76601794Y-68247292D01*
X76720842Y-68306816D01*
X76780366Y-68366339D01*
X76839890Y-68485387D01*
X76839890Y-68604435D01*
X76780366Y-68723482D01*
X76720842Y-68783006D01*
X76601794Y-68842530D01*
X76185128Y-68842530D01*
X78030366Y-69497292D02*
X77435128Y-69497292D01*
X77435128Y-68247292D01*
X78447032Y-68247292D02*
X78447032Y-69259196D01*
X78506556Y-69378244D01*
X78566080Y-69437768D01*
X78685128Y-69497292D01*
X78923223Y-69497292D01*
X79042270Y-69437768D01*
X79101794Y-69378244D01*
X79161318Y-69259196D01*
X79161318Y-68247292D01*
X79756556Y-68842530D02*
X80173223Y-68842530D01*
X80351794Y-69497292D02*
X79756556Y-69497292D01*
X79756556Y-68247292D01*
X80351794Y-68247292D01*
X81839890Y-69021101D02*
X82792270Y-69021101D01*
X75470842Y-65806816D02*
X75351794Y-65747292D01*
X75173223Y-65747292D01*
X74994651Y-65806816D01*
X74875604Y-65925863D01*
X74816080Y-66044911D01*
X74756556Y-66283006D01*
X74756556Y-66461577D01*
X74816080Y-66699673D01*
X74875604Y-66818720D01*
X74994651Y-66937768D01*
X75173223Y-66997292D01*
X75292270Y-66997292D01*
X75470842Y-66937768D01*
X75530366Y-66878244D01*
X75530366Y-66461577D01*
X75292270Y-66461577D01*
X76780366Y-66997292D02*
X76363699Y-66402054D01*
X76066080Y-66997292D02*
X76066080Y-65747292D01*
X76542270Y-65747292D01*
X76661318Y-65806816D01*
X76720842Y-65866339D01*
X76780366Y-65985387D01*
X76780366Y-66163958D01*
X76720842Y-66283006D01*
X76661318Y-66342530D01*
X76542270Y-66402054D01*
X76066080Y-66402054D01*
X77316080Y-66342530D02*
X77732747Y-66342530D01*
X77911318Y-66997292D02*
X77316080Y-66997292D01*
X77316080Y-65747292D01*
X77911318Y-65747292D01*
X78447032Y-66342530D02*
X78863699Y-66342530D01*
X79042270Y-66997292D02*
X78447032Y-66997292D01*
X78447032Y-65747292D01*
X79042270Y-65747292D01*
X79577985Y-66997292D02*
X79577985Y-65747292D01*
X80292270Y-66997292D01*
X80292270Y-65747292D01*
X81839890Y-66521101D02*
X82792270Y-66521101D01*
X77970842Y-64497292D02*
X77554175Y-63902054D01*
X77256556Y-64497292D02*
X77256556Y-63247292D01*
X77732747Y-63247292D01*
X77851794Y-63306816D01*
X77911318Y-63366339D01*
X77970842Y-63485387D01*
X77970842Y-63663958D01*
X77911318Y-63783006D01*
X77851794Y-63842530D01*
X77732747Y-63902054D01*
X77256556Y-63902054D01*
X78506556Y-63842530D02*
X78923223Y-63842530D01*
X79101794Y-64497292D02*
X78506556Y-64497292D01*
X78506556Y-63247292D01*
X79101794Y-63247292D01*
X79637509Y-64497292D02*
X79637509Y-63247292D01*
X79935128Y-63247292D01*
X80113699Y-63306816D01*
X80232747Y-63425863D01*
X80292270Y-63544911D01*
X80351794Y-63783006D01*
X80351794Y-63961577D01*
X80292270Y-64199673D01*
X80232747Y-64318720D01*
X80113699Y-64437768D01*
X79935128Y-64497292D01*
X79637509Y-64497292D01*
X81839890Y-64021101D02*
X82792270Y-64021101D01*
D12*
G36*
X127347923Y-101059750D02*
G01*
X127348220Y-101128285D01*
X127349202Y-101174638D01*
X127351114Y-101221301D01*
X127354266Y-101269204D01*
X127358968Y-101319278D01*
X127365531Y-101372453D01*
X127374264Y-101429660D01*
X127357443Y-101419661D01*
X127341702Y-101409512D01*
X127327036Y-101399218D01*
X127313441Y-101388783D01*
X127300912Y-101378213D01*
X127289444Y-101367512D01*
X127279032Y-101356685D01*
X127269672Y-101345737D01*
X127261358Y-101334673D01*
X127254085Y-101323497D01*
X127247849Y-101312215D01*
X127242645Y-101300831D01*
X127238468Y-101289350D01*
X127235314Y-101277777D01*
X127233176Y-101266117D01*
X127232052Y-101254374D01*
X127231934Y-101242554D01*
X127232820Y-101230662D01*
X127234704Y-101218701D01*
X127237581Y-101206678D01*
X127241446Y-101194596D01*
X127246295Y-101182461D01*
X127252122Y-101170278D01*
X127258923Y-101158051D01*
X127266693Y-101145785D01*
X127275427Y-101133485D01*
X127285121Y-101121156D01*
X127295768Y-101108803D01*
X127307366Y-101096431D01*
X127319908Y-101084044D01*
X127333390Y-101071647D01*
X127347807Y-101059245D01*
X127347923Y-101059750D01*
G37*
G36*
X156273685Y-97885276D02*
G01*
X156351420Y-97887730D01*
X156418070Y-97892510D01*
X156447504Y-97896015D01*
X156474488Y-97900391D01*
X156499126Y-97905736D01*
X156521526Y-97912147D01*
X156541795Y-97919721D01*
X156560038Y-97928555D01*
X156576363Y-97938745D01*
X156590876Y-97950388D01*
X156603684Y-97963582D01*
X156614893Y-97978422D01*
X156624610Y-97995007D01*
X156632941Y-98013433D01*
X156639993Y-98033797D01*
X156645873Y-98056195D01*
X156650687Y-98080726D01*
X156654542Y-98107484D01*
X156659800Y-98168075D01*
X156662500Y-98238743D01*
X156663637Y-98413409D01*
X156663637Y-98942576D01*
X156663404Y-98957226D01*
X156662707Y-98971406D01*
X156661544Y-98985111D01*
X156659916Y-98998336D01*
X156657823Y-99011077D01*
X156655265Y-99023328D01*
X156652242Y-99035086D01*
X156648754Y-99046344D01*
X156644800Y-99057099D01*
X156640382Y-99067344D01*
X156635499Y-99077077D01*
X156630150Y-99086290D01*
X156624336Y-99094981D01*
X156618058Y-99103143D01*
X156611314Y-99110773D01*
X156604105Y-99117865D01*
X156596431Y-99124414D01*
X156588292Y-99130415D01*
X156579688Y-99135865D01*
X156570619Y-99140757D01*
X156561084Y-99145087D01*
X156551085Y-99148850D01*
X156540621Y-99152042D01*
X156529691Y-99154657D01*
X156518296Y-99156690D01*
X156506437Y-99158137D01*
X156494112Y-99158994D01*
X156481322Y-99159254D01*
X156468067Y-99158913D01*
X156454347Y-99157967D01*
X156440162Y-99156411D01*
X156425512Y-99154239D01*
X156410332Y-99154529D01*
X156394609Y-99155324D01*
X156361846Y-99157961D01*
X156293220Y-99164164D01*
X156275870Y-99165230D01*
X156258597Y-99165869D01*
X156241479Y-99165966D01*
X156224594Y-99165404D01*
X156208019Y-99164067D01*
X156191831Y-99161837D01*
X156176108Y-99158600D01*
X156160928Y-99154239D01*
X156145470Y-99148380D01*
X156129044Y-99140855D01*
X156111919Y-99131857D01*
X156094369Y-99121580D01*
X156076663Y-99110218D01*
X156059074Y-99097964D01*
X156041872Y-99085013D01*
X156025329Y-99071558D01*
X156009717Y-99057793D01*
X155995305Y-99043911D01*
X155982367Y-99030107D01*
X155971173Y-99016574D01*
X155961994Y-99003506D01*
X155958245Y-98997206D01*
X155955102Y-98991096D01*
X155952598Y-98985199D01*
X155950767Y-98979539D01*
X155949644Y-98974140D01*
X155949262Y-98969027D01*
X155940580Y-98859888D01*
X155934379Y-98750748D01*
X155930658Y-98641607D01*
X155929418Y-98532467D01*
X155930658Y-98423327D01*
X155934379Y-98314188D01*
X155940580Y-98205049D01*
X155949262Y-98095912D01*
X155949492Y-98088471D01*
X155950167Y-98081035D01*
X155951268Y-98073609D01*
X155952776Y-98066198D01*
X155954672Y-98058806D01*
X155956936Y-98051438D01*
X155959549Y-98044099D01*
X155962492Y-98036794D01*
X155969287Y-98022306D01*
X155977168Y-98008011D01*
X155985979Y-97993949D01*
X155995565Y-97980158D01*
X156005771Y-97966677D01*
X156016442Y-97953545D01*
X156027423Y-97940800D01*
X156038559Y-97928481D01*
X156060676Y-97905277D01*
X156081552Y-97884242D01*
X156273685Y-97885276D01*
G37*
G36*
X162785486Y-100856314D02*
G01*
X162875145Y-100862875D01*
X162965424Y-100867576D01*
X163056633Y-100870727D01*
X163149082Y-100872639D01*
X163243081Y-100873621D01*
X163436971Y-100874034D01*
X164971555Y-100874034D01*
X164997997Y-100874496D01*
X165022786Y-100875868D01*
X165045977Y-100878133D01*
X165067622Y-100881269D01*
X165087775Y-100885258D01*
X165106489Y-100890080D01*
X165123818Y-100895716D01*
X165139814Y-100902146D01*
X165154531Y-100909352D01*
X165168023Y-100917313D01*
X165180342Y-100926011D01*
X165191542Y-100935426D01*
X165201677Y-100945539D01*
X165210798Y-100956329D01*
X165218961Y-100967779D01*
X165226217Y-100979868D01*
X165232621Y-100992577D01*
X165238226Y-101005887D01*
X165243084Y-101019778D01*
X165247250Y-101034231D01*
X165250776Y-101049227D01*
X165253716Y-101064746D01*
X165258050Y-101097276D01*
X165260679Y-101131667D01*
X165262029Y-101167762D01*
X165262598Y-101244449D01*
X165262236Y-101283192D01*
X165260944Y-101319999D01*
X165258412Y-101354790D01*
X165254329Y-101387488D01*
X165248386Y-101418016D01*
X165244621Y-101432442D01*
X165240273Y-101446297D01*
X165235306Y-101459570D01*
X165229680Y-101472252D01*
X165223356Y-101484333D01*
X165216295Y-101495804D01*
X165208460Y-101506655D01*
X165199811Y-101516876D01*
X165190308Y-101526457D01*
X165179915Y-101535389D01*
X165168591Y-101543663D01*
X165156299Y-101551268D01*
X165142999Y-101558194D01*
X165128652Y-101564433D01*
X165113220Y-101569974D01*
X165096664Y-101574808D01*
X165078946Y-101578924D01*
X165060025Y-101582314D01*
X165039865Y-101584967D01*
X165018426Y-101586875D01*
X164995669Y-101588026D01*
X164971555Y-101588412D01*
X162696138Y-101588412D01*
X162669772Y-101587950D01*
X162645204Y-101586578D01*
X162622370Y-101584314D01*
X162601207Y-101581177D01*
X162581653Y-101577189D01*
X162563644Y-101572367D01*
X162547118Y-101566730D01*
X162532012Y-101560300D01*
X162518262Y-101553094D01*
X162505805Y-101545133D01*
X162494579Y-101536435D01*
X162484521Y-101527020D01*
X162475567Y-101516908D01*
X162467655Y-101506117D01*
X162460722Y-101494667D01*
X162454704Y-101482578D01*
X162449539Y-101469869D01*
X162445163Y-101456559D01*
X162441515Y-101442668D01*
X162438530Y-101428215D01*
X162436145Y-101413219D01*
X162434299Y-101397700D01*
X162431967Y-101365170D01*
X162431031Y-101330780D01*
X162430986Y-101294684D01*
X162431554Y-101217998D01*
X162432071Y-101148905D01*
X162433299Y-101115038D01*
X162435688Y-101081984D01*
X162439629Y-101050016D01*
X162445507Y-101019404D01*
X162453711Y-100990421D01*
X162458806Y-100976624D01*
X162464627Y-100963336D01*
X162471224Y-100950591D01*
X162478645Y-100938422D01*
X162486937Y-100926863D01*
X162496150Y-100915949D01*
X162506332Y-100905714D01*
X162517531Y-100896190D01*
X162529796Y-100887412D01*
X162543176Y-100879415D01*
X162557718Y-100872231D01*
X162573471Y-100865895D01*
X162590484Y-100860441D01*
X162608805Y-100855903D01*
X162628482Y-100852314D01*
X162649565Y-100849708D01*
X162672100Y-100848120D01*
X162696138Y-100847583D01*
X162785486Y-100856314D01*
G37*
G36*
X176649666Y-97842201D02*
G01*
X176705664Y-97846115D01*
X176763289Y-97853595D01*
X176821573Y-97864408D01*
X176879547Y-97878322D01*
X176936242Y-97895104D01*
X176990689Y-97914521D01*
X177041919Y-97936341D01*
X177088964Y-97960332D01*
X177130854Y-97986261D01*
X177149563Y-97999879D01*
X177166621Y-98013895D01*
X177181905Y-98028279D01*
X177195295Y-98043002D01*
X178005582Y-99131102D01*
X178835714Y-100239039D01*
X178835768Y-100246636D01*
X178835892Y-100248864D01*
X178835995Y-100249636D01*
X178836132Y-100250200D01*
X178836307Y-100250571D01*
X178836527Y-100250762D01*
X178836794Y-100250788D01*
X178837115Y-100250664D01*
X178837494Y-100250405D01*
X178837936Y-100250024D01*
X178839028Y-100248958D01*
X178840430Y-100247581D01*
X178842181Y-100246011D01*
X178843199Y-100245189D01*
X178844319Y-100244363D01*
X178845546Y-100243546D01*
X178846884Y-100242754D01*
X178848338Y-100242000D01*
X178849913Y-100241300D01*
X178851615Y-100240667D01*
X178853447Y-100240117D01*
X178855415Y-100239664D01*
X178857523Y-100239323D01*
X178859777Y-100239107D01*
X178862180Y-100239032D01*
X178862180Y-98175288D01*
X178862555Y-98123760D01*
X178863937Y-98078083D01*
X178866715Y-98037911D01*
X178868748Y-98019779D01*
X178871275Y-98002893D01*
X178874345Y-97987208D01*
X178878006Y-97972681D01*
X178882307Y-97959268D01*
X178887295Y-97946926D01*
X178893020Y-97935612D01*
X178899529Y-97925280D01*
X178906872Y-97915889D01*
X178915097Y-97907393D01*
X178924252Y-97899751D01*
X178934385Y-97892917D01*
X178945545Y-97886849D01*
X178957781Y-97881503D01*
X178971141Y-97876835D01*
X178985673Y-97872802D01*
X179001427Y-97869360D01*
X179018449Y-97866465D01*
X179056495Y-97862144D01*
X179100201Y-97859489D01*
X179149952Y-97858151D01*
X179206136Y-97857783D01*
X179267277Y-97858151D01*
X179321945Y-97859489D01*
X179370489Y-97862144D01*
X179413257Y-97866465D01*
X179450600Y-97872802D01*
X179467346Y-97876835D01*
X179482865Y-97881503D01*
X179497203Y-97886849D01*
X179510402Y-97892917D01*
X179522506Y-97899751D01*
X179533559Y-97907393D01*
X179543605Y-97915889D01*
X179552686Y-97925280D01*
X179560846Y-97935612D01*
X179568130Y-97946926D01*
X179574581Y-97959268D01*
X179580241Y-97972681D01*
X179585156Y-97987208D01*
X179589368Y-98002893D01*
X179592922Y-98019779D01*
X179595860Y-98037911D01*
X179600065Y-98078083D01*
X179602332Y-98123760D01*
X179603010Y-98175288D01*
X179603010Y-101244456D01*
X179602635Y-101295985D01*
X179601253Y-101341661D01*
X179598475Y-101381834D01*
X179596442Y-101399965D01*
X179593915Y-101416851D01*
X179590845Y-101432536D01*
X179587184Y-101447063D01*
X179582883Y-101460476D01*
X179577895Y-101472818D01*
X179572170Y-101484133D01*
X179565660Y-101494464D01*
X179558317Y-101503856D01*
X179550092Y-101512351D01*
X179540937Y-101519994D01*
X179530804Y-101526827D01*
X179519643Y-101532895D01*
X179507407Y-101538241D01*
X179494047Y-101542909D01*
X179479514Y-101546942D01*
X179463761Y-101550385D01*
X179446738Y-101553279D01*
X179408690Y-101557601D01*
X179364984Y-101560256D01*
X179315232Y-101561593D01*
X179259046Y-101561961D01*
X179210355Y-101565669D01*
X179163446Y-101566818D01*
X179118242Y-101565332D01*
X179074666Y-101561133D01*
X179032641Y-101554143D01*
X178992088Y-101544286D01*
X178952930Y-101531482D01*
X178915090Y-101515655D01*
X178878490Y-101496728D01*
X178843054Y-101474623D01*
X178808702Y-101449263D01*
X178775358Y-101420569D01*
X178742944Y-101388465D01*
X178711384Y-101352873D01*
X178680598Y-101313715D01*
X178650510Y-101270915D01*
X178390215Y-100895074D01*
X178125890Y-100521403D01*
X177588869Y-99779329D01*
X176507383Y-98307582D01*
X176497467Y-98297355D01*
X176487591Y-98286547D01*
X176477791Y-98275197D01*
X176468108Y-98263343D01*
X176458580Y-98251024D01*
X176449246Y-98238280D01*
X176440144Y-98225148D01*
X176431314Y-98211667D01*
X176422794Y-98197876D01*
X176414622Y-98183815D01*
X176406838Y-98169521D01*
X176399481Y-98155033D01*
X176392588Y-98140390D01*
X176386200Y-98125631D01*
X176380354Y-98110795D01*
X176375089Y-98095920D01*
X176375193Y-98065120D01*
X176375916Y-98033080D01*
X176376704Y-98016983D01*
X176377880Y-98001040D01*
X176379521Y-97985408D01*
X176381704Y-97970241D01*
X176384507Y-97955693D01*
X176388009Y-97941921D01*
X176392285Y-97929080D01*
X176397414Y-97917323D01*
X176400322Y-97911900D01*
X176403473Y-97906807D01*
X176406876Y-97902062D01*
X176410540Y-97897686D01*
X176414475Y-97893697D01*
X176418692Y-97890115D01*
X176423199Y-97886959D01*
X176428007Y-97884250D01*
X176443800Y-97874944D01*
X176461332Y-97866849D01*
X176480482Y-97859936D01*
X176501129Y-97854176D01*
X176523152Y-97849540D01*
X176546430Y-97845998D01*
X176596265Y-97842084D01*
X176649666Y-97842201D01*
G37*
G36*
X121183015Y-97884242D02*
G01*
X121897390Y-97884242D01*
X121926219Y-97885166D01*
X121939924Y-97886313D01*
X121953149Y-97887911D01*
X121965889Y-97889955D01*
X121978141Y-97892439D01*
X121989898Y-97895360D01*
X122001156Y-97898712D01*
X122011911Y-97902490D01*
X122022156Y-97906689D01*
X122031888Y-97911306D01*
X122041102Y-97916334D01*
X122049793Y-97921769D01*
X122057955Y-97927606D01*
X122065585Y-97933840D01*
X122072677Y-97940467D01*
X122079226Y-97947481D01*
X122085228Y-97954878D01*
X122090677Y-97962653D01*
X122095569Y-97970801D01*
X122099900Y-97979318D01*
X122103663Y-97988197D01*
X122106855Y-97997435D01*
X122109471Y-98007027D01*
X122111504Y-98016968D01*
X122112952Y-98027252D01*
X122113809Y-98037876D01*
X122114070Y-98048834D01*
X122113730Y-98060121D01*
X122112784Y-98071733D01*
X122111228Y-98083665D01*
X122109057Y-98095912D01*
X122109057Y-98334033D01*
X122108127Y-98367526D01*
X122105336Y-98398577D01*
X122103243Y-98413200D01*
X122100685Y-98427226D01*
X122097662Y-98440661D01*
X122094174Y-98453510D01*
X122090221Y-98465777D01*
X122085803Y-98477468D01*
X122080919Y-98488587D01*
X122075571Y-98499139D01*
X122069757Y-98509130D01*
X122063478Y-98518563D01*
X122056734Y-98527444D01*
X122049526Y-98535777D01*
X122041852Y-98543568D01*
X122033713Y-98550821D01*
X122025108Y-98557541D01*
X122016039Y-98563733D01*
X122006505Y-98569402D01*
X121996505Y-98574552D01*
X121986041Y-98579189D01*
X121975111Y-98583318D01*
X121963717Y-98586942D01*
X121951857Y-98590067D01*
X121939532Y-98592699D01*
X121926742Y-98594841D01*
X121899767Y-98597676D01*
X121870931Y-98598613D01*
X119489681Y-98598613D01*
X119465800Y-98597986D01*
X119443741Y-98596081D01*
X119433382Y-98594636D01*
X119423465Y-98592857D01*
X119413983Y-98590739D01*
X119404932Y-98588277D01*
X119396308Y-98585467D01*
X119388105Y-98582302D01*
X119380319Y-98578779D01*
X119372944Y-98574893D01*
X119365977Y-98570638D01*
X119359412Y-98566011D01*
X119353244Y-98561005D01*
X119347468Y-98555617D01*
X119342080Y-98549842D01*
X119337074Y-98543673D01*
X119332447Y-98537108D01*
X119328193Y-98530140D01*
X119324306Y-98522766D01*
X119320783Y-98514980D01*
X119317619Y-98506777D01*
X119314808Y-98498152D01*
X119312346Y-98489101D01*
X119310228Y-98479619D01*
X119308450Y-98469701D01*
X119307005Y-98459343D01*
X119305100Y-98437283D01*
X119304473Y-98413402D01*
X119295585Y-98320255D01*
X119289177Y-98238735D01*
X119285869Y-98168067D01*
X119286283Y-98107477D01*
X119288079Y-98080718D01*
X119291037Y-98056188D01*
X119295236Y-98033789D01*
X119300752Y-98013426D01*
X119307664Y-97995000D01*
X119316048Y-97978415D01*
X119325983Y-97963574D01*
X119337546Y-97950380D01*
X119350814Y-97938737D01*
X119365864Y-97928547D01*
X119382776Y-97919714D01*
X119401625Y-97912140D01*
X119422489Y-97905729D01*
X119445446Y-97900383D01*
X119470574Y-97896007D01*
X119497949Y-97892503D01*
X119559754Y-97887723D01*
X119631481Y-97885268D01*
X119807181Y-97884234D01*
X121183015Y-97884242D01*
G37*
G36*
X135549476Y-99361779D02*
G01*
X135573189Y-99364387D01*
X135595075Y-99367915D01*
X135615207Y-99372432D01*
X135633658Y-99378005D01*
X135650500Y-99384702D01*
X135665807Y-99392591D01*
X135679651Y-99401739D01*
X135692104Y-99412215D01*
X135703239Y-99424086D01*
X135713130Y-99437421D01*
X135721848Y-99452286D01*
X135729466Y-99468750D01*
X135736058Y-99486881D01*
X135741694Y-99506746D01*
X135746450Y-99528413D01*
X135750396Y-99551950D01*
X135756151Y-99604906D01*
X135759543Y-99666155D01*
X135761151Y-99736242D01*
X135761558Y-99815707D01*
X135761558Y-101297374D01*
X135760880Y-101344245D01*
X135758613Y-101385845D01*
X135756774Y-101404765D01*
X135754407Y-101422484D01*
X135751469Y-101439040D01*
X135747916Y-101454472D01*
X135743703Y-101468819D01*
X135738788Y-101482120D01*
X135733127Y-101494413D01*
X135726677Y-101505736D01*
X135719393Y-101516130D01*
X135711232Y-101525632D01*
X135702151Y-101534281D01*
X135692105Y-101542117D01*
X135681052Y-101549177D01*
X135668948Y-101555501D01*
X135655749Y-101561128D01*
X135641411Y-101566095D01*
X135625891Y-101570443D01*
X135609145Y-101574209D01*
X135591130Y-101577432D01*
X135571803Y-101580152D01*
X135529034Y-101584234D01*
X135480490Y-101586766D01*
X135425823Y-101588058D01*
X135364683Y-101588420D01*
X135321585Y-101587761D01*
X135281587Y-101585629D01*
X135244690Y-101581792D01*
X135210894Y-101576017D01*
X135195158Y-101572330D01*
X135180198Y-101568072D01*
X135166012Y-101563213D01*
X135152602Y-101557724D01*
X135139967Y-101551576D01*
X135128108Y-101544740D01*
X135117023Y-101537187D01*
X135106714Y-101528888D01*
X135097179Y-101519814D01*
X135088420Y-101509935D01*
X135080436Y-101499223D01*
X135073227Y-101487649D01*
X135066794Y-101475184D01*
X135061135Y-101461798D01*
X135056252Y-101447462D01*
X135052143Y-101432148D01*
X135048810Y-101415826D01*
X135046253Y-101398467D01*
X135044470Y-101380043D01*
X135043462Y-101360523D01*
X135043230Y-101339880D01*
X135043773Y-101318083D01*
X135047184Y-101270915D01*
X135038449Y-101201409D01*
X135031886Y-101131593D01*
X135027183Y-101061158D01*
X135024030Y-100989792D01*
X135022118Y-100917186D01*
X135021136Y-100843031D01*
X135020723Y-100688830D01*
X135020723Y-99630496D01*
X135021660Y-99597003D01*
X135022838Y-99581174D01*
X135024495Y-99565951D01*
X135026638Y-99551329D01*
X135029269Y-99537303D01*
X135032395Y-99523868D01*
X135036019Y-99511019D01*
X135040148Y-99498752D01*
X135044785Y-99487061D01*
X135049936Y-99475942D01*
X135055605Y-99465390D01*
X135061797Y-99455399D01*
X135068518Y-99445966D01*
X135075771Y-99437085D01*
X135083562Y-99428752D01*
X135091896Y-99420961D01*
X135100777Y-99413708D01*
X135110210Y-99406988D01*
X135120201Y-99400796D01*
X135130753Y-99395127D01*
X135141872Y-99389977D01*
X135153563Y-99385340D01*
X135165831Y-99381211D01*
X135178680Y-99377587D01*
X135192115Y-99374462D01*
X135206141Y-99371830D01*
X135220763Y-99369688D01*
X135235986Y-99368031D01*
X135251814Y-99366853D01*
X135285307Y-99365916D01*
X135364778Y-99361664D01*
X135434910Y-99359196D01*
X135496282Y-99359053D01*
X135549476Y-99361779D01*
G37*
G36*
X145575255Y-97884711D02*
G01*
X145598012Y-97886078D01*
X145619451Y-97888326D01*
X145639611Y-97891433D01*
X145658532Y-97895372D01*
X145676250Y-97900121D01*
X145692806Y-97905654D01*
X145708238Y-97911949D01*
X145722585Y-97918979D01*
X145735885Y-97926722D01*
X145748177Y-97935152D01*
X145759501Y-97944247D01*
X145769894Y-97953980D01*
X145779397Y-97964329D01*
X145788046Y-97975269D01*
X145795881Y-97986776D01*
X145802942Y-97998826D01*
X145809266Y-98011394D01*
X145814892Y-98024456D01*
X145819859Y-98037988D01*
X145824207Y-98051965D01*
X145827973Y-98066364D01*
X145833915Y-98096330D01*
X145837998Y-98127691D01*
X145840530Y-98160253D01*
X145841822Y-98193822D01*
X145842184Y-98228206D01*
X145841822Y-98289048D01*
X145840530Y-98342875D01*
X145837998Y-98390113D01*
X145833915Y-98431189D01*
X145827973Y-98466529D01*
X145824207Y-98482182D01*
X145819859Y-98496560D01*
X145814892Y-98509717D01*
X145809266Y-98521707D01*
X145802942Y-98532582D01*
X145795881Y-98542397D01*
X145788046Y-98551203D01*
X145779397Y-98559056D01*
X145769894Y-98566007D01*
X145759501Y-98572110D01*
X145748177Y-98577419D01*
X145735885Y-98581987D01*
X145722585Y-98585867D01*
X145708238Y-98589112D01*
X145676250Y-98593911D01*
X145639611Y-98596812D01*
X145598012Y-98598239D01*
X145551141Y-98598620D01*
X143302181Y-98598620D01*
X143266352Y-98597854D01*
X143233212Y-98595591D01*
X143202659Y-98591884D01*
X143174592Y-98586787D01*
X143148908Y-98580352D01*
X143125506Y-98572634D01*
X143104283Y-98563685D01*
X143085140Y-98553559D01*
X143067973Y-98542309D01*
X143052681Y-98529989D01*
X143039162Y-98516651D01*
X143027314Y-98502348D01*
X143017036Y-98487136D01*
X143008226Y-98471065D01*
X143000782Y-98454191D01*
X142994603Y-98436565D01*
X142989586Y-98418242D01*
X142985631Y-98399275D01*
X142982634Y-98379716D01*
X142980496Y-98359620D01*
X142978383Y-98318028D01*
X142978480Y-98274924D01*
X142982046Y-98185887D01*
X142983887Y-98140806D01*
X142984682Y-98095920D01*
X142987394Y-98079017D01*
X142990566Y-98063021D01*
X142994194Y-98047906D01*
X142998272Y-98033649D01*
X143002796Y-98020225D01*
X143007761Y-98007610D01*
X143013162Y-97995780D01*
X143018994Y-97984710D01*
X143025253Y-97974377D01*
X143031933Y-97964756D01*
X143039029Y-97955823D01*
X143046538Y-97947554D01*
X143054453Y-97939925D01*
X143062771Y-97932910D01*
X143071485Y-97926487D01*
X143080592Y-97920630D01*
X143090087Y-97915317D01*
X143099965Y-97910521D01*
X143110220Y-97906220D01*
X143120848Y-97902388D01*
X143131845Y-97899003D01*
X143143205Y-97896039D01*
X143154923Y-97893472D01*
X143166995Y-97891278D01*
X143192181Y-97887912D01*
X143218723Y-97885748D01*
X143246583Y-97884592D01*
X143275722Y-97884250D01*
X145551141Y-97884250D01*
X145575255Y-97884711D01*
G37*
G36*
X184112915Y-99446236D02*
G01*
X184148881Y-99449117D01*
X184182367Y-99454013D01*
X184198180Y-99457241D01*
X184213372Y-99461002D01*
X184227945Y-99465306D01*
X184241897Y-99470162D01*
X184255230Y-99475580D01*
X184267942Y-99481570D01*
X184280034Y-99488141D01*
X184291506Y-99495303D01*
X184302358Y-99503066D01*
X184312590Y-99511439D01*
X184322202Y-99520433D01*
X184331194Y-99530056D01*
X184339565Y-99540319D01*
X184347317Y-99551231D01*
X184354448Y-99562802D01*
X184360959Y-99575041D01*
X184366850Y-99587959D01*
X184372122Y-99601564D01*
X184376772Y-99615868D01*
X184380803Y-99630878D01*
X184384214Y-99646606D01*
X184387004Y-99663060D01*
X184389175Y-99680251D01*
X184390725Y-99698188D01*
X184391655Y-99716881D01*
X184391965Y-99736339D01*
X184381146Y-99903357D01*
X184358737Y-100066654D01*
X184324934Y-100225610D01*
X184279931Y-100379605D01*
X184223920Y-100528020D01*
X184157096Y-100670233D01*
X184079652Y-100805625D01*
X183991783Y-100933576D01*
X183893681Y-101053465D01*
X183840854Y-101110192D01*
X183785542Y-101164672D01*
X183727769Y-101216827D01*
X183667558Y-101266578D01*
X183604936Y-101313849D01*
X183539924Y-101358562D01*
X183472549Y-101400640D01*
X183402833Y-101440004D01*
X183330802Y-101476579D01*
X183256479Y-101510285D01*
X183179889Y-101541045D01*
X183101056Y-101568783D01*
X183020004Y-101593420D01*
X182936758Y-101614879D01*
X182898311Y-101623250D01*
X182880018Y-101626273D01*
X182862345Y-101628521D01*
X182845292Y-101629994D01*
X182828859Y-101630692D01*
X182813046Y-101630614D01*
X182797854Y-101629762D01*
X182783281Y-101628134D01*
X182769329Y-101625731D01*
X182755996Y-101622553D01*
X182743284Y-101618600D01*
X182731192Y-101613871D01*
X182719720Y-101608368D01*
X182708868Y-101602089D01*
X182698636Y-101595036D01*
X182689024Y-101587207D01*
X182680032Y-101578603D01*
X182671661Y-101569223D01*
X182663909Y-101559069D01*
X182656778Y-101548140D01*
X182650267Y-101536435D01*
X182644375Y-101523955D01*
X182639104Y-101510701D01*
X182634453Y-101496671D01*
X182630423Y-101481866D01*
X182627012Y-101466285D01*
X182624221Y-101449930D01*
X182622051Y-101432800D01*
X182620501Y-101414894D01*
X182619570Y-101396213D01*
X182619260Y-101376758D01*
X182611248Y-101254233D01*
X182609432Y-101204153D01*
X182609747Y-101160544D01*
X182610862Y-101140937D01*
X182612698Y-101122672D01*
X182615320Y-101105657D01*
X182618789Y-101089800D01*
X182623169Y-101075008D01*
X182628523Y-101061190D01*
X182634914Y-101048254D01*
X182642404Y-101036108D01*
X182651057Y-101024659D01*
X182660936Y-101013816D01*
X182672104Y-101003486D01*
X182684623Y-100993578D01*
X182698557Y-100983999D01*
X182713968Y-100974658D01*
X182730921Y-100965462D01*
X182749476Y-100956319D01*
X182791650Y-100937825D01*
X182840995Y-100918440D01*
X182963209Y-100874049D01*
X183021785Y-100848010D01*
X183078346Y-100819530D01*
X183132736Y-100788647D01*
X183184801Y-100755399D01*
X183234385Y-100719827D01*
X183281333Y-100681967D01*
X183325491Y-100641860D01*
X183366704Y-100599544D01*
X183404815Y-100555057D01*
X183439671Y-100508438D01*
X183471116Y-100459726D01*
X183498995Y-100408961D01*
X183523153Y-100356179D01*
X183543436Y-100301421D01*
X183552075Y-100273313D01*
X183559687Y-100244725D01*
X183566252Y-100215662D01*
X183571752Y-100186130D01*
X183513362Y-100177394D01*
X183456831Y-100170829D01*
X183401539Y-100166125D01*
X183346866Y-100162971D01*
X183292193Y-100161059D01*
X183236899Y-100160077D01*
X183121969Y-100159663D01*
X182672178Y-100159663D01*
X182620649Y-100159282D01*
X182574973Y-100157854D01*
X182534800Y-100154954D01*
X182516669Y-100152818D01*
X182499783Y-100150155D01*
X182484098Y-100146910D01*
X182469571Y-100143030D01*
X182456158Y-100138462D01*
X182443816Y-100133153D01*
X182432501Y-100127050D01*
X182422170Y-100120098D01*
X182412778Y-100112246D01*
X182404283Y-100103439D01*
X182396641Y-100093625D01*
X182389807Y-100082749D01*
X182383739Y-100070760D01*
X182378393Y-100057603D01*
X182373725Y-100043224D01*
X182369692Y-100027572D01*
X182366249Y-100010593D01*
X182363355Y-99992232D01*
X182359033Y-99951156D01*
X182356378Y-99903918D01*
X182355041Y-99850091D01*
X182354673Y-99789248D01*
X182355041Y-99733062D01*
X182356378Y-99683310D01*
X182359033Y-99639605D01*
X182363355Y-99601558D01*
X182366249Y-99584535D01*
X182369692Y-99568782D01*
X182373725Y-99554250D01*
X182378393Y-99540890D01*
X182383739Y-99528654D01*
X182389807Y-99517494D01*
X182396641Y-99507361D01*
X182404283Y-99498206D01*
X182412778Y-99489982D01*
X182422170Y-99482639D01*
X182432501Y-99476130D01*
X182443816Y-99470405D01*
X182456158Y-99465417D01*
X182469571Y-99461117D01*
X182484098Y-99457456D01*
X182499783Y-99454386D01*
X182534800Y-99449826D01*
X182574973Y-99447049D01*
X182620649Y-99445667D01*
X182672178Y-99445292D01*
X184074468Y-99445292D01*
X184112915Y-99446236D01*
G37*
G36*
X158377752Y-97847028D02*
G01*
X158401314Y-97848813D01*
X158424358Y-97851582D01*
X158446897Y-97855320D01*
X158468948Y-97860012D01*
X158490523Y-97865644D01*
X158511639Y-97872201D01*
X158532309Y-97879669D01*
X158552547Y-97888034D01*
X158572369Y-97897280D01*
X158591789Y-97907393D01*
X158629480Y-97930164D01*
X158665737Y-97956228D01*
X158700677Y-97985471D01*
X158734415Y-98017776D01*
X158767068Y-98053026D01*
X158798752Y-98091106D01*
X158829583Y-98131899D01*
X158859678Y-98175288D01*
X159020754Y-98411088D01*
X159185860Y-98642858D01*
X159354067Y-98871526D01*
X159524444Y-99098024D01*
X159867989Y-99548228D01*
X160209055Y-100000911D01*
X160218989Y-100015510D01*
X160229002Y-100029643D01*
X160239169Y-100043467D01*
X160249569Y-100057136D01*
X160271376Y-100084628D01*
X160295044Y-100113360D01*
X160350440Y-100179507D01*
X160383410Y-100219402D01*
X160420721Y-100265498D01*
X160421018Y-100236643D01*
X160421858Y-100209532D01*
X160423163Y-100184048D01*
X160424855Y-100160077D01*
X160429094Y-100116203D01*
X160433952Y-100076980D01*
X160443048Y-100008766D01*
X160446046Y-99977914D01*
X160446886Y-99962896D01*
X160447183Y-99947993D01*
X160447183Y-98175281D01*
X160447861Y-98123752D01*
X160450129Y-98078076D01*
X160451967Y-98057323D01*
X160454334Y-98037903D01*
X160457272Y-98019772D01*
X160460825Y-98002885D01*
X160465038Y-97987200D01*
X160469952Y-97972674D01*
X160475613Y-97959261D01*
X160482064Y-97946919D01*
X160489348Y-97935604D01*
X160497508Y-97925273D01*
X160506590Y-97915881D01*
X160516635Y-97907386D01*
X160527688Y-97899743D01*
X160539792Y-97892910D01*
X160552991Y-97886842D01*
X160567329Y-97881496D01*
X160582849Y-97876828D01*
X160599595Y-97872794D01*
X160617609Y-97869352D01*
X160636937Y-97866457D01*
X160679706Y-97862136D01*
X160728249Y-97859481D01*
X160782917Y-97858144D01*
X160844057Y-97857776D01*
X160900242Y-97858144D01*
X160949994Y-97859481D01*
X160993699Y-97862136D01*
X161031746Y-97866457D01*
X161048769Y-97869352D01*
X161064522Y-97872794D01*
X161079055Y-97876828D01*
X161092415Y-97881496D01*
X161104651Y-97886842D01*
X161115811Y-97892910D01*
X161125945Y-97899743D01*
X161135100Y-97907386D01*
X161143324Y-97915881D01*
X161150667Y-97925273D01*
X161157177Y-97935604D01*
X161162902Y-97946919D01*
X161167890Y-97959261D01*
X161172190Y-97972674D01*
X161175851Y-97987200D01*
X161178921Y-98002885D01*
X161183482Y-98037903D01*
X161186259Y-98078076D01*
X161187642Y-98123752D01*
X161188016Y-98175281D01*
X161188016Y-101270907D01*
X161187073Y-101309063D01*
X161184192Y-101344235D01*
X161182001Y-101360738D01*
X161179296Y-101376539D01*
X161176068Y-101391652D01*
X161172307Y-101406092D01*
X161168003Y-101419873D01*
X161163147Y-101433009D01*
X161157729Y-101445516D01*
X161151739Y-101457407D01*
X161145168Y-101468698D01*
X161138006Y-101479402D01*
X161130243Y-101489535D01*
X161121870Y-101499111D01*
X161112877Y-101508144D01*
X161103254Y-101516650D01*
X161092991Y-101524641D01*
X161082079Y-101532134D01*
X161070508Y-101539142D01*
X161058269Y-101545680D01*
X161045352Y-101551763D01*
X161031746Y-101557405D01*
X161017443Y-101562620D01*
X161002433Y-101567424D01*
X160970251Y-101575854D01*
X160935124Y-101582812D01*
X160896974Y-101588412D01*
X160843617Y-101591823D01*
X160792586Y-101592133D01*
X160743726Y-101589342D01*
X160696881Y-101583451D01*
X160651896Y-101574459D01*
X160608617Y-101562367D01*
X160566888Y-101547174D01*
X160526554Y-101528880D01*
X160487461Y-101507486D01*
X160449453Y-101482991D01*
X160412375Y-101455395D01*
X160376073Y-101424699D01*
X160340390Y-101390902D01*
X160305173Y-101354004D01*
X160270266Y-101314006D01*
X160235513Y-101270907D01*
X159150720Y-99789248D01*
X158039472Y-98281123D01*
X158029570Y-98265639D01*
X158019783Y-98249032D01*
X158010230Y-98231416D01*
X158001025Y-98212909D01*
X157992285Y-98193627D01*
X157984127Y-98173686D01*
X157976666Y-98153203D01*
X157970019Y-98132293D01*
X157964303Y-98111073D01*
X157959633Y-98089659D01*
X157956125Y-98068168D01*
X157953896Y-98046715D01*
X157953063Y-98025418D01*
X157953741Y-98004392D01*
X157954683Y-97994017D01*
X157956046Y-97983753D01*
X157957846Y-97973615D01*
X157960096Y-97963618D01*
X157960630Y-97958734D01*
X157962195Y-97954000D01*
X157964740Y-97949411D01*
X157968209Y-97944963D01*
X157972551Y-97940650D01*
X157977711Y-97936468D01*
X157983637Y-97932412D01*
X157990275Y-97928478D01*
X158005474Y-97920952D01*
X158022883Y-97913853D01*
X158042074Y-97907142D01*
X158062622Y-97900779D01*
X158084100Y-97894726D01*
X158106082Y-97888945D01*
X158149851Y-97878041D01*
X158190521Y-97867757D01*
X158208627Y-97862751D01*
X158224680Y-97857783D01*
X158251657Y-97853362D01*
X158278029Y-97850012D01*
X158303810Y-97847718D01*
X158329014Y-97846466D01*
X158353657Y-97846241D01*
X158377752Y-97847028D01*
G37*
G36*
X121680824Y-99366445D02*
G01*
X121700890Y-99368027D01*
X121719523Y-99370618D01*
X121736780Y-99374177D01*
X121752719Y-99378666D01*
X121767398Y-99384047D01*
X121780876Y-99390281D01*
X121793210Y-99397328D01*
X121804460Y-99405151D01*
X121814682Y-99413710D01*
X121823935Y-99422966D01*
X121832278Y-99432881D01*
X121839767Y-99443417D01*
X121846463Y-99454534D01*
X121852422Y-99466193D01*
X121857702Y-99478356D01*
X121862363Y-99490985D01*
X121866461Y-99504039D01*
X121870056Y-99517481D01*
X121873205Y-99531272D01*
X121878399Y-99559745D01*
X121882507Y-99589148D01*
X121889328Y-99649503D01*
X121892972Y-99679835D01*
X121897390Y-99709857D01*
X121901679Y-99749199D01*
X121904418Y-99787688D01*
X121905297Y-99825091D01*
X121904005Y-99861175D01*
X121900232Y-99895710D01*
X121897319Y-99912323D01*
X121893669Y-99928461D01*
X121889245Y-99944095D01*
X121884006Y-99959196D01*
X121877915Y-99973735D01*
X121870932Y-99987683D01*
X121863019Y-100001011D01*
X121854137Y-100013690D01*
X121844247Y-100025690D01*
X121833311Y-100036983D01*
X121821290Y-100047540D01*
X121808145Y-100057331D01*
X121793837Y-100066327D01*
X121778327Y-100074500D01*
X121761578Y-100081820D01*
X121743549Y-100088259D01*
X121724202Y-100093786D01*
X121703500Y-100098374D01*
X121681401Y-100101993D01*
X121657869Y-100104614D01*
X121632864Y-100106208D01*
X121606348Y-100106746D01*
X119595515Y-100106746D01*
X119552417Y-100105796D01*
X119512419Y-100102870D01*
X119475522Y-100097851D01*
X119458236Y-100094520D01*
X119441726Y-100090622D01*
X119425990Y-100086143D01*
X119411030Y-100081069D01*
X119396845Y-100075383D01*
X119383435Y-100069073D01*
X119370800Y-100062123D01*
X119358940Y-100054519D01*
X119347856Y-100046247D01*
X119337546Y-100037291D01*
X119328012Y-100027638D01*
X119319253Y-100017273D01*
X119311269Y-100006181D01*
X119304060Y-99994348D01*
X119297626Y-99981759D01*
X119291967Y-99968399D01*
X119287084Y-99954255D01*
X119282976Y-99939311D01*
X119279643Y-99923554D01*
X119277085Y-99906968D01*
X119275302Y-99889539D01*
X119274294Y-99871253D01*
X119274062Y-99852094D01*
X119274604Y-99832049D01*
X119275922Y-99811103D01*
X119278015Y-99789241D01*
X119277724Y-99774067D01*
X119276930Y-99758389D01*
X119274294Y-99725988D01*
X119268093Y-99660255D01*
X119267027Y-99644307D01*
X119266387Y-99628785D01*
X119266290Y-99613806D01*
X119266852Y-99599485D01*
X119268190Y-99585940D01*
X119270418Y-99573287D01*
X119273654Y-99561641D01*
X119275687Y-99556233D01*
X119278015Y-99551120D01*
X119283583Y-99536250D01*
X119290314Y-99521457D01*
X119298130Y-99506819D01*
X119306953Y-99492414D01*
X119316707Y-99478319D01*
X119327314Y-99464612D01*
X119338696Y-99451370D01*
X119350775Y-99438670D01*
X119363475Y-99426591D01*
X119376717Y-99415209D01*
X119390424Y-99404602D01*
X119404518Y-99394848D01*
X119418923Y-99386024D01*
X119433561Y-99378208D01*
X119448353Y-99371477D01*
X119463223Y-99365909D01*
X121659265Y-99365909D01*
X121680824Y-99366445D01*
G37*
G36*
X176715090Y-100248657D02*
G01*
X176744398Y-100252425D01*
X176774277Y-100258219D01*
X176804685Y-100266061D01*
X176835576Y-100275977D01*
X176866909Y-100287991D01*
X176898639Y-100302126D01*
X176930723Y-100318408D01*
X176935757Y-100321117D01*
X176940928Y-100324267D01*
X176946214Y-100327833D01*
X176951598Y-100331792D01*
X176962578Y-100340791D01*
X176973714Y-100351068D01*
X176984850Y-100362431D01*
X176995830Y-100374684D01*
X177006501Y-100387636D01*
X177016707Y-100401092D01*
X177026293Y-100414857D01*
X177035104Y-100428739D01*
X177042984Y-100442543D01*
X177049780Y-100456076D01*
X177055335Y-100469144D01*
X177057599Y-100475443D01*
X177059495Y-100481553D01*
X177061003Y-100487450D01*
X177062105Y-100493109D01*
X177062780Y-100498507D01*
X177063009Y-100503619D01*
X177070605Y-100611624D01*
X177074171Y-100717768D01*
X177074636Y-100822672D01*
X177072931Y-100926955D01*
X177066730Y-101136142D01*
X177064094Y-101242286D01*
X177063009Y-101350291D01*
X177062775Y-101364941D01*
X177062072Y-101379126D01*
X177060894Y-101392845D01*
X177059236Y-101406100D01*
X177057094Y-101418890D01*
X177054463Y-101431214D01*
X177051337Y-101443074D01*
X177047713Y-101454468D01*
X177043584Y-101465397D01*
X177038947Y-101475862D01*
X177033796Y-101485861D01*
X177028127Y-101495395D01*
X177021935Y-101504464D01*
X177015214Y-101513068D01*
X177007961Y-101521207D01*
X177000170Y-101528881D01*
X176991837Y-101536090D01*
X176982956Y-101542834D01*
X176973522Y-101549112D01*
X176963532Y-101554926D01*
X176952980Y-101560274D01*
X176941861Y-101565158D01*
X176930170Y-101569576D01*
X176917902Y-101573529D01*
X176905054Y-101577017D01*
X176891619Y-101580041D01*
X176877593Y-101582599D01*
X176862971Y-101584691D01*
X176847749Y-101586319D01*
X176831921Y-101587482D01*
X176815483Y-101588180D01*
X176798429Y-101588412D01*
X176714003Y-101592650D01*
X176638956Y-101595027D01*
X176572745Y-101594924D01*
X176514829Y-101591720D01*
X176488811Y-101588761D01*
X176464664Y-101584795D01*
X176442319Y-101579744D01*
X176421708Y-101573530D01*
X176402764Y-101566075D01*
X176385418Y-101557303D01*
X176369603Y-101547136D01*
X176355252Y-101535496D01*
X176342296Y-101522305D01*
X176330667Y-101507487D01*
X176320298Y-101490963D01*
X176311120Y-101472657D01*
X176303067Y-101452490D01*
X176296069Y-101430386D01*
X176290060Y-101406266D01*
X176284972Y-101380053D01*
X176280736Y-101351670D01*
X176277285Y-101321038D01*
X176272466Y-101252722D01*
X176269972Y-101174484D01*
X176269262Y-101085704D01*
X176273919Y-101065855D01*
X176277995Y-101045966D01*
X176281529Y-101026000D01*
X176284558Y-101005917D01*
X176287123Y-100985679D01*
X176289261Y-100965248D01*
X176292413Y-100923647D01*
X176294325Y-100880806D01*
X176295307Y-100836414D01*
X176295721Y-100741740D01*
X176296566Y-100702754D01*
X176299073Y-100665188D01*
X176303198Y-100629066D01*
X176308898Y-100594411D01*
X176316129Y-100561249D01*
X176324847Y-100529603D01*
X176335009Y-100499498D01*
X176346571Y-100470957D01*
X176359489Y-100444005D01*
X176373721Y-100418667D01*
X176389221Y-100394967D01*
X176405948Y-100372928D01*
X176423856Y-100352575D01*
X176442903Y-100333932D01*
X176463045Y-100317023D01*
X176484238Y-100301873D01*
X176506439Y-100288506D01*
X176529604Y-100276946D01*
X176553689Y-100267217D01*
X176578652Y-100259344D01*
X176604447Y-100253350D01*
X176631032Y-100249261D01*
X176658364Y-100247099D01*
X176686397Y-100246890D01*
X176715090Y-100248657D01*
G37*
G36*
X182862764Y-97900365D02*
G01*
X182869368Y-97900657D01*
X182875831Y-97901224D01*
X182882130Y-97902073D01*
X182888240Y-97903208D01*
X182894137Y-97904633D01*
X182899797Y-97906353D01*
X182905195Y-97908374D01*
X182910307Y-97910701D01*
X183013220Y-97933024D01*
X183113499Y-97960308D01*
X183210986Y-97992554D01*
X183305528Y-98029761D01*
X183396970Y-98071928D01*
X183485156Y-98119057D01*
X183569931Y-98171147D01*
X183651141Y-98228198D01*
X183728630Y-98290210D01*
X183802243Y-98357183D01*
X183871826Y-98429117D01*
X183937222Y-98506012D01*
X183998279Y-98587867D01*
X184054839Y-98674684D01*
X184106748Y-98766462D01*
X184153852Y-98863200D01*
X184171823Y-98901647D01*
X184179389Y-98919940D01*
X184185995Y-98937613D01*
X184191633Y-98954666D01*
X184196292Y-98971099D01*
X184199963Y-98986912D01*
X184202635Y-99002105D01*
X184204300Y-99016678D01*
X184204948Y-99030631D01*
X184204569Y-99043964D01*
X184203153Y-99056676D01*
X184200690Y-99068769D01*
X184197171Y-99080241D01*
X184192587Y-99091094D01*
X184186926Y-99101326D01*
X184180181Y-99110938D01*
X184172341Y-99119930D01*
X184163396Y-99128302D01*
X184153337Y-99136054D01*
X184142154Y-99143186D01*
X184129838Y-99149697D01*
X184116378Y-99155589D01*
X184101765Y-99160860D01*
X184085989Y-99165511D01*
X184069041Y-99169542D01*
X184050911Y-99172953D01*
X184031589Y-99175744D01*
X184011065Y-99177914D01*
X183989331Y-99179465D01*
X183966376Y-99180395D01*
X183942190Y-99180705D01*
X183897858Y-99185007D01*
X183854186Y-99187837D01*
X183811210Y-99188960D01*
X183768971Y-99188147D01*
X183727507Y-99185162D01*
X183686857Y-99179775D01*
X183647059Y-99171752D01*
X183608153Y-99160861D01*
X183570177Y-99146869D01*
X183533170Y-99129545D01*
X183515042Y-99119560D01*
X183497171Y-99108654D01*
X183479562Y-99096799D01*
X183462219Y-99083965D01*
X183445148Y-99070124D01*
X183428353Y-99055246D01*
X183411838Y-99039302D01*
X183395610Y-99022263D01*
X183379673Y-99004100D01*
X183364031Y-98984784D01*
X183348690Y-98964286D01*
X183333654Y-98942576D01*
X183328309Y-98930328D01*
X183322218Y-98918380D01*
X183315410Y-98906722D01*
X183307914Y-98895346D01*
X183299759Y-98884241D01*
X183290974Y-98873397D01*
X183281589Y-98862805D01*
X183271632Y-98852456D01*
X183261133Y-98842339D01*
X183250120Y-98832444D01*
X183226671Y-98813286D01*
X183201516Y-98794902D01*
X183174888Y-98777216D01*
X183147021Y-98760150D01*
X183118146Y-98743626D01*
X183088495Y-98727568D01*
X183058303Y-98711897D01*
X182936758Y-98651538D01*
X182914750Y-98643106D01*
X182893395Y-98632766D01*
X182872729Y-98620624D01*
X182852785Y-98606786D01*
X182833596Y-98591359D01*
X182815197Y-98574449D01*
X182797622Y-98556164D01*
X182780904Y-98536609D01*
X182765077Y-98515891D01*
X182750176Y-98494118D01*
X182736234Y-98471395D01*
X182723285Y-98447829D01*
X182711363Y-98423526D01*
X182700502Y-98398594D01*
X182690736Y-98373138D01*
X182682099Y-98347266D01*
X182674624Y-98321084D01*
X182668347Y-98294698D01*
X182663299Y-98268216D01*
X182659517Y-98241743D01*
X182657032Y-98215386D01*
X182655880Y-98189252D01*
X182656094Y-98163448D01*
X182657708Y-98138079D01*
X182660756Y-98113254D01*
X182665272Y-98089077D01*
X182671290Y-98065656D01*
X182678844Y-98043097D01*
X182687968Y-98021508D01*
X182698695Y-98000994D01*
X182711059Y-97981662D01*
X182725095Y-97963618D01*
X182727804Y-97958736D01*
X182730954Y-97954013D01*
X182734521Y-97949455D01*
X182738480Y-97945066D01*
X182742807Y-97940852D01*
X182747478Y-97936817D01*
X182752469Y-97932966D01*
X182757755Y-97929305D01*
X182763313Y-97925837D01*
X182769118Y-97922567D01*
X182775146Y-97919501D01*
X182781372Y-97916644D01*
X182794323Y-97911573D01*
X182807779Y-97907393D01*
X182821544Y-97904144D01*
X182835426Y-97901864D01*
X182849230Y-97900591D01*
X182856043Y-97900345D01*
X182862764Y-97900365D01*
G37*
G36*
X137454598Y-97876071D02*
G01*
X137505170Y-97880986D01*
X137554890Y-97889080D01*
X137603717Y-97900779D01*
X137651615Y-97916508D01*
X137675203Y-97926017D01*
X137698544Y-97936694D01*
X137721633Y-97948592D01*
X137744465Y-97961764D01*
X137767035Y-97976264D01*
X137789339Y-97992144D01*
X137811372Y-98009458D01*
X137833128Y-98028260D01*
X137854604Y-98048602D01*
X137875794Y-98070538D01*
X137896693Y-98094122D01*
X137917296Y-98119406D01*
X137937599Y-98146443D01*
X137957597Y-98175288D01*
X138109888Y-98402353D01*
X138268070Y-98627558D01*
X138430592Y-98851524D01*
X138595906Y-99074870D01*
X138928702Y-99522182D01*
X139093085Y-99747387D01*
X139254057Y-99974452D01*
X139264288Y-99989327D01*
X139275140Y-100004164D01*
X139286612Y-100018924D01*
X139298705Y-100033567D01*
X139311417Y-100048056D01*
X139324749Y-100062351D01*
X139338702Y-100076414D01*
X139353275Y-100090205D01*
X139368468Y-100103686D01*
X139384281Y-100116819D01*
X139400714Y-100129564D01*
X139417767Y-100141882D01*
X139435441Y-100153735D01*
X139453734Y-100165084D01*
X139472648Y-100175890D01*
X139492181Y-100186114D01*
X139518640Y-99921535D01*
X139518640Y-98201739D01*
X139518950Y-98179878D01*
X139519880Y-98158932D01*
X139521431Y-98138888D01*
X139523601Y-98119730D01*
X139526392Y-98101444D01*
X139529802Y-98084015D01*
X139533833Y-98067429D01*
X139538484Y-98051672D01*
X139543755Y-98036728D01*
X139549646Y-98022584D01*
X139556157Y-98009225D01*
X139563288Y-97996636D01*
X139571040Y-97984802D01*
X139579411Y-97973710D01*
X139588403Y-97963345D01*
X139598015Y-97953691D01*
X139608247Y-97944736D01*
X139619099Y-97936463D01*
X139630571Y-97928859D01*
X139642663Y-97921909D01*
X139655376Y-97915599D01*
X139668708Y-97909913D01*
X139682661Y-97904838D01*
X139697233Y-97900359D01*
X139712426Y-97896461D01*
X139728239Y-97893130D01*
X139761725Y-97888110D01*
X139797692Y-97885184D01*
X139836139Y-97884234D01*
X139901639Y-97884596D01*
X139959543Y-97885888D01*
X140010315Y-97888421D01*
X140054421Y-97892504D01*
X140092325Y-97898447D01*
X140109098Y-97902213D01*
X140124494Y-97906561D01*
X140138573Y-97911529D01*
X140151392Y-97917155D01*
X140163009Y-97923479D01*
X140173483Y-97930540D01*
X140182872Y-97938376D01*
X140191234Y-97947025D01*
X140198627Y-97956528D01*
X140205109Y-97966921D01*
X140210739Y-97978245D01*
X140215574Y-97990538D01*
X140219672Y-98003838D01*
X140223093Y-98018185D01*
X140228131Y-98050173D01*
X140231154Y-98086811D01*
X140232627Y-98128411D01*
X140233015Y-98175281D01*
X140233015Y-101297358D01*
X140232705Y-101316817D01*
X140231774Y-101335514D01*
X140230224Y-101353466D01*
X140228054Y-101370686D01*
X140225263Y-101387190D01*
X140221852Y-101402990D01*
X140217822Y-101418103D01*
X140213171Y-101432543D01*
X140207900Y-101446324D01*
X140202008Y-101459460D01*
X140195497Y-101471967D01*
X140188366Y-101483858D01*
X140180614Y-101495149D01*
X140172243Y-101505854D01*
X140163251Y-101515986D01*
X140153639Y-101525562D01*
X140143407Y-101534595D01*
X140132555Y-101543101D01*
X140121083Y-101551092D01*
X140108991Y-101558585D01*
X140096278Y-101565593D01*
X140082946Y-101572131D01*
X140068993Y-101578214D01*
X140054421Y-101583856D01*
X140039228Y-101589072D01*
X140023415Y-101593875D01*
X139989929Y-101602305D01*
X139953962Y-101609263D01*
X139915516Y-101614863D01*
X139862166Y-101618274D01*
X139811180Y-101618584D01*
X139762443Y-101615794D01*
X139715837Y-101609903D01*
X139671247Y-101600912D01*
X139628556Y-101588820D01*
X139587647Y-101573627D01*
X139548405Y-101555334D01*
X139510714Y-101533940D01*
X139474456Y-101509445D01*
X139439516Y-101481850D01*
X139405778Y-101451153D01*
X139373125Y-101417356D01*
X139341441Y-101380458D01*
X139310610Y-101340459D01*
X139280515Y-101297358D01*
X139030091Y-100922606D01*
X138775326Y-100551572D01*
X138255254Y-99815702D01*
X137190305Y-98334041D01*
X137180390Y-98319461D01*
X137170514Y-98305463D01*
X137151032Y-98279056D01*
X137114238Y-98231513D01*
X137097546Y-98209757D01*
X137082405Y-98188931D01*
X137075513Y-98178770D01*
X137069124Y-98168725D01*
X137063278Y-98158758D01*
X137058013Y-98148829D01*
X137050959Y-98134103D01*
X137044675Y-98119696D01*
X137039156Y-98105619D01*
X137034398Y-98091881D01*
X137030395Y-98078492D01*
X137027144Y-98065461D01*
X137024638Y-98052799D01*
X137022874Y-98040514D01*
X137021846Y-98028617D01*
X137021550Y-98017117D01*
X137021980Y-98006024D01*
X137023133Y-97995348D01*
X137025002Y-97985098D01*
X137027583Y-97975284D01*
X137030872Y-97965916D01*
X137034863Y-97957004D01*
X137039552Y-97948556D01*
X137044934Y-97940583D01*
X137051003Y-97933095D01*
X137057756Y-97926101D01*
X137065187Y-97919610D01*
X137073291Y-97913633D01*
X137082064Y-97908180D01*
X137091501Y-97903259D01*
X137101596Y-97898881D01*
X137112346Y-97895055D01*
X137123744Y-97891792D01*
X137135787Y-97889100D01*
X137148470Y-97886989D01*
X137161787Y-97885469D01*
X137175733Y-97884550D01*
X137190305Y-97884242D01*
X137298154Y-97876129D01*
X137351052Y-97874068D01*
X137403213Y-97873907D01*
X137454598Y-97876071D01*
G37*
G36*
X144813199Y-100847996D02*
G01*
X145104654Y-100850890D01*
X145401070Y-100858745D01*
X145553465Y-100865308D01*
X145709890Y-100874042D01*
X145709905Y-100874052D01*
X145842170Y-101032775D01*
X145842180Y-101032794D01*
X145842180Y-101429667D01*
X145813551Y-101458191D01*
X145786782Y-101484235D01*
X145773902Y-101496328D01*
X145761254Y-101507800D01*
X145748762Y-101518652D01*
X145740462Y-101525493D01*
X145726423Y-101535495D01*
X145701619Y-101553990D01*
X145698791Y-101555862D01*
X145685911Y-101563614D01*
X145672721Y-101570746D01*
X145659143Y-101577257D01*
X145645100Y-101583149D01*
X145630514Y-101588420D01*
X145154264Y-101588412D01*
X143328638Y-101588412D01*
X143277110Y-101588031D01*
X143231435Y-101586604D01*
X143191263Y-101583703D01*
X143173132Y-101581568D01*
X143156246Y-101578904D01*
X143140561Y-101575659D01*
X143126035Y-101571779D01*
X143112622Y-101567211D01*
X143100280Y-101561902D01*
X143088966Y-101555799D01*
X143078634Y-101548848D01*
X143069243Y-101540995D01*
X143060748Y-101532188D01*
X143053106Y-101522374D01*
X143046272Y-101511498D01*
X143040204Y-101499509D01*
X143034858Y-101486352D01*
X143030190Y-101471974D01*
X143026157Y-101456321D01*
X143022715Y-101439342D01*
X143019820Y-101420981D01*
X143015499Y-101379905D01*
X143012844Y-101332667D01*
X143011507Y-101278840D01*
X143011138Y-101217998D01*
X143011507Y-101161805D01*
X143012844Y-101112008D01*
X143015499Y-101068180D01*
X143019820Y-101029894D01*
X143022715Y-101012696D01*
X143026157Y-100996724D01*
X143030190Y-100981924D01*
X143034858Y-100968244D01*
X143040204Y-100955629D01*
X143046272Y-100944027D01*
X143053106Y-100933385D01*
X143060748Y-100923648D01*
X143069243Y-100914764D01*
X143078634Y-100906679D01*
X143088966Y-100899340D01*
X143100280Y-100892695D01*
X143112622Y-100886688D01*
X143126035Y-100881268D01*
X143140561Y-100876381D01*
X143156246Y-100871973D01*
X143191263Y-100864384D01*
X143231435Y-100858073D01*
X143277110Y-100852615D01*
X143328638Y-100847583D01*
X144519262Y-100847583D01*
X144813199Y-100847996D01*
G37*
G36*
X121869245Y-100874429D02*
G01*
X121914081Y-100875902D01*
X121952948Y-100878925D01*
X121970277Y-100881163D01*
X121986273Y-100883963D01*
X122000990Y-100887384D01*
X122014482Y-100891482D01*
X122026801Y-100896317D01*
X122038001Y-100901947D01*
X122048135Y-100908429D01*
X122057257Y-100915822D01*
X122065419Y-100924184D01*
X122072676Y-100933573D01*
X122079080Y-100944047D01*
X122084684Y-100955664D01*
X122089543Y-100968483D01*
X122093708Y-100982562D01*
X122097234Y-100997958D01*
X122100174Y-101014730D01*
X122102581Y-101032936D01*
X122104509Y-101052635D01*
X122107138Y-101096740D01*
X122108488Y-101147512D01*
X122109056Y-101270915D01*
X122108397Y-101313722D01*
X122106266Y-101352925D01*
X122102429Y-101388639D01*
X122099798Y-101405225D01*
X122096654Y-101420982D01*
X122092967Y-101435926D01*
X122088708Y-101450070D01*
X122083849Y-101463429D01*
X122078360Y-101476019D01*
X122072212Y-101487852D01*
X122065376Y-101498944D01*
X122057823Y-101509309D01*
X122049525Y-101518963D01*
X122040450Y-101527919D01*
X122030572Y-101536191D01*
X122019861Y-101543795D01*
X122008287Y-101550745D01*
X121995821Y-101557056D01*
X121982435Y-101562741D01*
X121968100Y-101567816D01*
X121952786Y-101572296D01*
X121936464Y-101576193D01*
X121919106Y-101579524D01*
X121900682Y-101582303D01*
X121881163Y-101584544D01*
X121838724Y-101587470D01*
X121791556Y-101588420D01*
X119939474Y-101588412D01*
X119674890Y-101588412D01*
X119552624Y-101587689D01*
X119503156Y-101585971D01*
X119460743Y-101582625D01*
X119442012Y-101580171D01*
X119424841Y-101577108D01*
X119409162Y-101573366D01*
X119394907Y-101568879D01*
X119382009Y-101563577D01*
X119370400Y-101557394D01*
X119360011Y-101550261D01*
X119350776Y-101542110D01*
X119342625Y-101532875D01*
X119335492Y-101522486D01*
X119329309Y-101510877D01*
X119324007Y-101497979D01*
X119319519Y-101483724D01*
X119315778Y-101468046D01*
X119312714Y-101450875D01*
X119310261Y-101432144D01*
X119306915Y-101389730D01*
X119305197Y-101340263D01*
X119304473Y-101217998D01*
X119304848Y-101161811D01*
X119306230Y-101112060D01*
X119309008Y-101068354D01*
X119313569Y-101030307D01*
X119316638Y-101013284D01*
X119320299Y-100997531D01*
X119324600Y-100982999D01*
X119329588Y-100969639D01*
X119335313Y-100957403D01*
X119341823Y-100946243D01*
X119349165Y-100936110D01*
X119357390Y-100926955D01*
X119366545Y-100918731D01*
X119376678Y-100911388D01*
X119387839Y-100904879D01*
X119400075Y-100899154D01*
X119413435Y-100894166D01*
X119427967Y-100889866D01*
X119443720Y-100886205D01*
X119460743Y-100883136D01*
X119498790Y-100878576D01*
X119542495Y-100875798D01*
X119592246Y-100874416D01*
X119648431Y-100874042D01*
X121818015Y-100874042D01*
X121869245Y-100874429D01*
G37*
G36*
X168859540Y-100847964D02*
G01*
X168905216Y-100849391D01*
X168945389Y-100852292D01*
X168963520Y-100854428D01*
X168980406Y-100857091D01*
X168996091Y-100860336D01*
X169010618Y-100864216D01*
X169024030Y-100868784D01*
X169036372Y-100874093D01*
X169047687Y-100880196D01*
X169058018Y-100887148D01*
X169067409Y-100895000D01*
X169075904Y-100903807D01*
X169083547Y-100913621D01*
X169090380Y-100924496D01*
X169096448Y-100936486D01*
X169101794Y-100949643D01*
X169106462Y-100964022D01*
X169110495Y-100979674D01*
X169113937Y-100996653D01*
X169116832Y-101015014D01*
X169121153Y-101056090D01*
X169123808Y-101103328D01*
X169125145Y-101157155D01*
X169125513Y-101217998D01*
X169125151Y-101274183D01*
X169123859Y-101323935D01*
X169121327Y-101367641D01*
X169117244Y-101405688D01*
X169114524Y-101422711D01*
X169111301Y-101438464D01*
X169107535Y-101452996D01*
X169103187Y-101466356D01*
X169098220Y-101478592D01*
X169092593Y-101489752D01*
X169086269Y-101499885D01*
X169079209Y-101509040D01*
X169071373Y-101517264D01*
X169062724Y-101524607D01*
X169053222Y-101531116D01*
X169042828Y-101536841D01*
X169031505Y-101541829D01*
X169019212Y-101546129D01*
X169005912Y-101549790D01*
X168991565Y-101552859D01*
X168959578Y-101557420D01*
X168922939Y-101560197D01*
X168881340Y-101561579D01*
X168834470Y-101561954D01*
X166611967Y-101561954D01*
X166560439Y-101561579D01*
X166514763Y-101560197D01*
X166474591Y-101557419D01*
X166456460Y-101555386D01*
X166439574Y-101552858D01*
X166423889Y-101549789D01*
X166409362Y-101546128D01*
X166395950Y-101541827D01*
X166383608Y-101536839D01*
X166372293Y-101531114D01*
X166361962Y-101524604D01*
X166352570Y-101517262D01*
X166344075Y-101509037D01*
X166336433Y-101499882D01*
X166329599Y-101489749D01*
X166323531Y-101478588D01*
X166318185Y-101466352D01*
X166313517Y-101452993D01*
X166309484Y-101438460D01*
X166306042Y-101422707D01*
X166303147Y-101405685D01*
X166298826Y-101367638D01*
X166296171Y-101323933D01*
X166294834Y-101274182D01*
X166294466Y-101217998D01*
X166294834Y-101157155D01*
X166296171Y-101103328D01*
X166298826Y-101056090D01*
X166303148Y-101015014D01*
X166306043Y-100996653D01*
X166309485Y-100979674D01*
X166313518Y-100964022D01*
X166318186Y-100949643D01*
X166323533Y-100936486D01*
X166329601Y-100924496D01*
X166336434Y-100913621D01*
X166344077Y-100903807D01*
X166352572Y-100895000D01*
X166361963Y-100887148D01*
X166372295Y-100880196D01*
X166383610Y-100874093D01*
X166395951Y-100868784D01*
X166409364Y-100864216D01*
X166423891Y-100860336D01*
X166439575Y-100857091D01*
X166474592Y-100852292D01*
X166514764Y-100849391D01*
X166560439Y-100847964D01*
X166611967Y-100847583D01*
X166711187Y-100856262D01*
X166810407Y-100862462D01*
X166909626Y-100866181D01*
X167008845Y-100867421D01*
X167108065Y-100866181D01*
X167207283Y-100862462D01*
X167306502Y-100856262D01*
X167405721Y-100847583D01*
X168808012Y-100847583D01*
X168859540Y-100847964D01*
G37*
G36*
X168913750Y-97858404D02*
G01*
X168938318Y-97860213D01*
X168961151Y-97863176D01*
X168982314Y-97867247D01*
X169001868Y-97872385D01*
X169019876Y-97878545D01*
X169036402Y-97885684D01*
X169051509Y-97893757D01*
X169065259Y-97902722D01*
X169077715Y-97912535D01*
X169088941Y-97923152D01*
X169098999Y-97934529D01*
X169107953Y-97946624D01*
X169115865Y-97959392D01*
X169122799Y-97972789D01*
X169128817Y-97986773D01*
X169133982Y-98001300D01*
X169138357Y-98016326D01*
X169142006Y-98031807D01*
X169144991Y-98047700D01*
X169149222Y-98080546D01*
X169151554Y-98114517D01*
X169152491Y-98149263D01*
X169152536Y-98184435D01*
X169151968Y-98254664D01*
X169151612Y-98293409D01*
X169150366Y-98330216D01*
X169147956Y-98365007D01*
X169144113Y-98397706D01*
X169138564Y-98428233D01*
X169131039Y-98456513D01*
X169126450Y-98469786D01*
X169121265Y-98482467D01*
X169115451Y-98494548D01*
X169108973Y-98506019D01*
X169101797Y-98516869D01*
X169093890Y-98527089D01*
X169085217Y-98536670D01*
X169075745Y-98545602D01*
X169065439Y-98553875D01*
X169054267Y-98561479D01*
X169042193Y-98568405D01*
X169029184Y-98574643D01*
X169015206Y-98580184D01*
X169000226Y-98585017D01*
X168984209Y-98589133D01*
X168967121Y-98592523D01*
X168948928Y-98595176D01*
X168929597Y-98597083D01*
X168909094Y-98598234D01*
X168887384Y-98598620D01*
X166532594Y-98598620D01*
X166508482Y-98598234D01*
X166485730Y-98597083D01*
X166464306Y-98595176D01*
X166444176Y-98592523D01*
X166425305Y-98589133D01*
X166407660Y-98585017D01*
X166391207Y-98580184D01*
X166375911Y-98574643D01*
X166361740Y-98568405D01*
X166348658Y-98561479D01*
X166336633Y-98553875D01*
X166325630Y-98545602D01*
X166315615Y-98536670D01*
X166306555Y-98527089D01*
X166298415Y-98516869D01*
X166291162Y-98506019D01*
X166284761Y-98494548D01*
X166279179Y-98482467D01*
X166274382Y-98469786D01*
X166270336Y-98456513D01*
X166267007Y-98442659D01*
X166264361Y-98428233D01*
X166262364Y-98413246D01*
X166260983Y-98397706D01*
X166259930Y-98365007D01*
X166260931Y-98330216D01*
X166263715Y-98293409D01*
X166268011Y-98254664D01*
X166267442Y-98184435D01*
X166267487Y-98149263D01*
X166268424Y-98114517D01*
X166270756Y-98080546D01*
X166274987Y-98047700D01*
X166281621Y-98016326D01*
X166285996Y-98001300D01*
X166291162Y-97986773D01*
X166297180Y-97972789D01*
X166304113Y-97959392D01*
X166312025Y-97946624D01*
X166320979Y-97934529D01*
X166331037Y-97923152D01*
X166342263Y-97912535D01*
X166354720Y-97902722D01*
X166368470Y-97893757D01*
X166383576Y-97885684D01*
X166400102Y-97878545D01*
X166418111Y-97872385D01*
X166437664Y-97867247D01*
X166458827Y-97863176D01*
X166481661Y-97860213D01*
X166506229Y-97858404D01*
X166532594Y-97857791D01*
X168887384Y-97857791D01*
X168913750Y-97858404D01*
G37*
G36*
X145894794Y-100883956D02*
G01*
X145893909Y-100893878D01*
X145892481Y-100903801D01*
X145890550Y-100913723D01*
X145888153Y-100923646D01*
X145885330Y-100933568D01*
X145882120Y-100943491D01*
X145878561Y-100953413D01*
X145874691Y-100963335D01*
X145870551Y-100973258D01*
X145861610Y-100993101D01*
X145852050Y-101012944D01*
X145842180Y-101032786D01*
X145842170Y-101032775D01*
X145832154Y-101012950D01*
X145821509Y-100993106D01*
X145815760Y-100983184D01*
X145809623Y-100973262D01*
X145803022Y-100963340D01*
X145795878Y-100953418D01*
X145788113Y-100943496D01*
X145779651Y-100933574D01*
X145770414Y-100923652D01*
X145760325Y-100913730D01*
X145749305Y-100903808D01*
X145737278Y-100893886D01*
X145724165Y-100883964D01*
X145709905Y-100874052D01*
X145709890Y-100874034D01*
X145895097Y-100874034D01*
X145894794Y-100883956D01*
G37*
G36*
X165028188Y-97854063D02*
G01*
X165047025Y-97855070D01*
X165065085Y-97856853D01*
X165082371Y-97859411D01*
X165098882Y-97862744D01*
X165114617Y-97866853D01*
X165129578Y-97871736D01*
X165143763Y-97877395D01*
X165157173Y-97883829D01*
X165169808Y-97891038D01*
X165181668Y-97899022D01*
X165192753Y-97907781D01*
X165203062Y-97917315D01*
X165212596Y-97927625D01*
X165221356Y-97938710D01*
X165229340Y-97950570D01*
X165236549Y-97963205D01*
X165242982Y-97976615D01*
X165248641Y-97990800D01*
X165253525Y-98005761D01*
X165257633Y-98021497D01*
X165260966Y-98038008D01*
X165263524Y-98055294D01*
X165265307Y-98073355D01*
X165266315Y-98092191D01*
X165266547Y-98111803D01*
X165266005Y-98132189D01*
X165264687Y-98153351D01*
X165262594Y-98175288D01*
X165253085Y-98306287D01*
X165247711Y-98359288D01*
X165241096Y-98404731D01*
X165237130Y-98424800D01*
X165232621Y-98443197D01*
X165227492Y-98459996D01*
X165221666Y-98475269D01*
X165215064Y-98489088D01*
X165207610Y-98501527D01*
X165199225Y-98512657D01*
X165189833Y-98522552D01*
X165179355Y-98531285D01*
X165167715Y-98538927D01*
X165154835Y-98545552D01*
X165140636Y-98551233D01*
X165125043Y-98556041D01*
X165107977Y-98560050D01*
X165089360Y-98563332D01*
X165069116Y-98565960D01*
X165023434Y-98569546D01*
X164970310Y-98571387D01*
X164839258Y-98572162D01*
X162749052Y-98572162D01*
X162692873Y-98571781D01*
X162643167Y-98570353D01*
X162599585Y-98567453D01*
X162579981Y-98565317D01*
X162561777Y-98562653D01*
X162544930Y-98559408D01*
X162529396Y-98555528D01*
X162515130Y-98550961D01*
X162502091Y-98545652D01*
X162490234Y-98539548D01*
X162479515Y-98532597D01*
X162469891Y-98524745D01*
X162461318Y-98515938D01*
X162453753Y-98506123D01*
X162447152Y-98495248D01*
X162441472Y-98483258D01*
X162436668Y-98470101D01*
X162432698Y-98455723D01*
X162429518Y-98440071D01*
X162427083Y-98423091D01*
X162425351Y-98404731D01*
X162423821Y-98363655D01*
X162424577Y-98316416D01*
X162427271Y-98262589D01*
X162431554Y-98201747D01*
X162431923Y-98145561D01*
X162433260Y-98095809D01*
X162435915Y-98052103D01*
X162440236Y-98014056D01*
X162443131Y-97997034D01*
X162446573Y-97981281D01*
X162450606Y-97966748D01*
X162455274Y-97953389D01*
X162460620Y-97941153D01*
X162466688Y-97929992D01*
X162473521Y-97919859D01*
X162481164Y-97910705D01*
X162489659Y-97902480D01*
X162499050Y-97895138D01*
X162509381Y-97888628D01*
X162520696Y-97882904D01*
X162533037Y-97877915D01*
X162546450Y-97873615D01*
X162560976Y-97869955D01*
X162576661Y-97866885D01*
X162611678Y-97862325D01*
X162651849Y-97859548D01*
X162697524Y-97858165D01*
X162749052Y-97857791D01*
X162968523Y-97866470D01*
X163190164Y-97872670D01*
X163413665Y-97876389D01*
X163638716Y-97877628D01*
X163865007Y-97876387D01*
X164092228Y-97872666D01*
X164320069Y-97866465D01*
X164548219Y-97857783D01*
X164945093Y-97857783D01*
X164967029Y-97855690D01*
X164988191Y-97854373D01*
X165008577Y-97853830D01*
X165028188Y-97854063D01*
G37*
G36*
X129967180Y-99392367D02*
G01*
X129993639Y-99445285D01*
X130001132Y-99663619D01*
X130001720Y-99751953D01*
X129999013Y-99827692D01*
X129996146Y-99861140D01*
X129992121Y-99891803D01*
X129986826Y-99919801D01*
X129980151Y-99945256D01*
X129971984Y-99968289D01*
X129962213Y-99989020D01*
X129950727Y-100007571D01*
X129937415Y-100024063D01*
X129922165Y-100038617D01*
X129904865Y-100051355D01*
X129885405Y-100062397D01*
X129863672Y-100071864D01*
X129839556Y-100079878D01*
X129812945Y-100086560D01*
X129783728Y-100092030D01*
X129751792Y-100096410D01*
X129679322Y-100102385D01*
X129594644Y-100105454D01*
X129385095Y-100106746D01*
X127665304Y-100106746D01*
X127624635Y-100107469D01*
X127603854Y-100107792D01*
X127583035Y-100107573D01*
X127562371Y-100106423D01*
X127542056Y-100103955D01*
X127532089Y-100102106D01*
X127522283Y-100099782D01*
X127512661Y-100096935D01*
X127503247Y-100093516D01*
X127494065Y-100089477D01*
X127485141Y-100084770D01*
X127476497Y-100079345D01*
X127468159Y-100073156D01*
X127460149Y-100066152D01*
X127452494Y-100058285D01*
X127445217Y-100049508D01*
X127438341Y-100039772D01*
X127431892Y-100029028D01*
X127425894Y-100017228D01*
X127420370Y-100004323D01*
X127415345Y-99990265D01*
X127410844Y-99975006D01*
X127406890Y-99958497D01*
X127403508Y-99940689D01*
X127400721Y-99921535D01*
X127391407Y-99892377D01*
X127383255Y-99864382D01*
X127376189Y-99837472D01*
X127373970Y-99827987D01*
X127373851Y-99800823D01*
X127372869Y-99757413D01*
X127370957Y-99716484D01*
X127369555Y-99696950D01*
X127367805Y-99678036D01*
X127365667Y-99659742D01*
X127363102Y-99642068D01*
X127360073Y-99625015D01*
X127356540Y-99608583D01*
X127352464Y-99592770D01*
X127347876Y-99577805D01*
X127347807Y-99551120D01*
X127357735Y-99540318D01*
X127367702Y-99527966D01*
X127377746Y-99514374D01*
X127387907Y-99499853D01*
X127408733Y-99469260D01*
X127419475Y-99453808D01*
X127430489Y-99438667D01*
X127441812Y-99424146D01*
X127453484Y-99410556D01*
X127465544Y-99398205D01*
X127471732Y-99392592D01*
X127478031Y-99387405D01*
X127484446Y-99382683D01*
X127490982Y-99378466D01*
X127497644Y-99374790D01*
X127504437Y-99371696D01*
X127511366Y-99369222D01*
X127518435Y-99367407D01*
X127525649Y-99366290D01*
X127533014Y-99365909D01*
X129914264Y-99365909D01*
X129967180Y-99392367D01*
G37*
G36*
X133617935Y-97884857D02*
G01*
X133645872Y-97886627D01*
X133675283Y-97889483D01*
X133705662Y-97893346D01*
X133736506Y-97898139D01*
X133767312Y-97903786D01*
X133797575Y-97910207D01*
X133826792Y-97917326D01*
X133854458Y-97925065D01*
X133880070Y-97933346D01*
X133903124Y-97942093D01*
X133923116Y-97951227D01*
X133939543Y-97960670D01*
X133951900Y-97970346D01*
X133956395Y-97975247D01*
X133959684Y-97980177D01*
X133961703Y-97985126D01*
X133962391Y-97990085D01*
X133970968Y-98070492D01*
X133976446Y-98152141D01*
X133977828Y-98193043D01*
X133978203Y-98233790D01*
X133977492Y-98274227D01*
X133975619Y-98314199D01*
X133972505Y-98353551D01*
X133968074Y-98392128D01*
X133962248Y-98429774D01*
X133954949Y-98466334D01*
X133946099Y-98501654D01*
X133935622Y-98535579D01*
X133923440Y-98567953D01*
X133909475Y-98598620D01*
X133873838Y-98652894D01*
X133836456Y-98706625D01*
X133797447Y-98759891D01*
X133756927Y-98812770D01*
X133715011Y-98865338D01*
X133671816Y-98917673D01*
X133582054Y-99021956D01*
X133488571Y-99126240D01*
X133392298Y-99231143D01*
X133195100Y-99445292D01*
X133136706Y-99454026D01*
X133080172Y-99460589D01*
X133024878Y-99465292D01*
X132970205Y-99468444D01*
X132915531Y-99470356D01*
X132860238Y-99471338D01*
X132745309Y-99471751D01*
X132724897Y-99471150D01*
X132703555Y-99469426D01*
X132681592Y-99466693D01*
X132659320Y-99463070D01*
X132637047Y-99458671D01*
X132615085Y-99453613D01*
X132593742Y-99448013D01*
X132573330Y-99441986D01*
X132554158Y-99435650D01*
X132536537Y-99429119D01*
X132520775Y-99422512D01*
X132507184Y-99415943D01*
X132496074Y-99409529D01*
X132487754Y-99403387D01*
X132482535Y-99397633D01*
X132481184Y-99394938D01*
X132480726Y-99392383D01*
X132481036Y-99367584D01*
X132481966Y-99342824D01*
X132483516Y-99318142D01*
X132485687Y-99293576D01*
X132488477Y-99269165D01*
X132491888Y-99244948D01*
X132495919Y-99220963D01*
X132500570Y-99197250D01*
X132505841Y-99173847D01*
X132511732Y-99150793D01*
X132518243Y-99128127D01*
X132525375Y-99105887D01*
X132533127Y-99084113D01*
X132541498Y-99062842D01*
X132550490Y-99042114D01*
X132560102Y-99021968D01*
X132575295Y-98997764D01*
X132591108Y-98974683D01*
X132607541Y-98952611D01*
X132624595Y-98931430D01*
X132642268Y-98911025D01*
X132660561Y-98891278D01*
X132679475Y-98872074D01*
X132699008Y-98853296D01*
X132719162Y-98834828D01*
X132739936Y-98816554D01*
X132783344Y-98780122D01*
X132877601Y-98704463D01*
X132886915Y-98694843D01*
X132895067Y-98685805D01*
X132902133Y-98677309D01*
X132908192Y-98669317D01*
X132913321Y-98661790D01*
X132914181Y-98660361D01*
X132914469Y-98660773D01*
X132915632Y-98662287D01*
X132916950Y-98663877D01*
X132918422Y-98665555D01*
X132921833Y-98669211D01*
X132925864Y-98673333D01*
X132930515Y-98677997D01*
X132930515Y-98625071D01*
X132928238Y-98627355D01*
X132927724Y-98629779D01*
X132926084Y-98635561D01*
X132923901Y-98641614D01*
X132921097Y-98647977D01*
X132917597Y-98654690D01*
X132914181Y-98660361D01*
X132913461Y-98659328D01*
X132912609Y-98657941D01*
X132911911Y-98656602D01*
X132911368Y-98655302D01*
X132910981Y-98654031D01*
X132910748Y-98652779D01*
X132910671Y-98651537D01*
X132910748Y-98650295D01*
X132910981Y-98649043D01*
X132911368Y-98647772D01*
X132911911Y-98646472D01*
X132912609Y-98645133D01*
X132913461Y-98643745D01*
X132914469Y-98642299D01*
X132915632Y-98640786D01*
X132916950Y-98639195D01*
X132918422Y-98637516D01*
X132921833Y-98633859D01*
X132925864Y-98629737D01*
X132928238Y-98627355D01*
X132928900Y-98624230D01*
X132929688Y-98618875D01*
X132930166Y-98613675D01*
X132930412Y-98608592D01*
X132930515Y-98598620D01*
X131343015Y-98598620D01*
X131291487Y-98598239D01*
X131245812Y-98596812D01*
X131205640Y-98593911D01*
X131187509Y-98591776D01*
X131170623Y-98589112D01*
X131154938Y-98585867D01*
X131140411Y-98581987D01*
X131126999Y-98577419D01*
X131114657Y-98572110D01*
X131103342Y-98566007D01*
X131093011Y-98559056D01*
X131083620Y-98551203D01*
X131075125Y-98542397D01*
X131067482Y-98532582D01*
X131060649Y-98521707D01*
X131054581Y-98509717D01*
X131049235Y-98496560D01*
X131044567Y-98482182D01*
X131040534Y-98466529D01*
X131037092Y-98449550D01*
X131034198Y-98431189D01*
X131029876Y-98390113D01*
X131027221Y-98342875D01*
X131025884Y-98289048D01*
X131025516Y-98228206D01*
X131025884Y-98176381D01*
X131027221Y-98129866D01*
X131029876Y-98088390D01*
X131034198Y-98051681D01*
X131037092Y-98035029D01*
X131040534Y-98019467D01*
X131044567Y-98004961D01*
X131049235Y-97991478D01*
X131054581Y-97978983D01*
X131060649Y-97967442D01*
X131067482Y-97956822D01*
X131075125Y-97947088D01*
X131083620Y-97938207D01*
X131093011Y-97930145D01*
X131103342Y-97922867D01*
X131114657Y-97916341D01*
X131126999Y-97910531D01*
X131140411Y-97905405D01*
X131154938Y-97900928D01*
X131170623Y-97897065D01*
X131187509Y-97893785D01*
X131205640Y-97891052D01*
X131245812Y-97887092D01*
X131291487Y-97884915D01*
X131343015Y-97884250D01*
X133591974Y-97884250D01*
X133617935Y-97884857D01*
G37*
G36*
X182246786Y-97888381D02*
G01*
X182266482Y-97891055D01*
X182282495Y-97895513D01*
X182288988Y-97898483D01*
X182294400Y-97901987D01*
X182298679Y-97906052D01*
X182301771Y-97910708D01*
X182315445Y-97940777D01*
X182326832Y-97971426D01*
X182336127Y-98002619D01*
X182343523Y-98034315D01*
X182349214Y-98066476D01*
X182353393Y-98099064D01*
X182356255Y-98132039D01*
X182357993Y-98165363D01*
X182358801Y-98198998D01*
X182358872Y-98232903D01*
X182357581Y-98301374D01*
X182355670Y-98370466D01*
X182354688Y-98439868D01*
X182354383Y-98444905D01*
X182353487Y-98450082D01*
X182352029Y-98455385D01*
X182350038Y-98460799D01*
X182347543Y-98466311D01*
X182344573Y-98471904D01*
X182341158Y-98477566D01*
X182337326Y-98483280D01*
X182333106Y-98489033D01*
X182328528Y-98494811D01*
X182318413Y-98506380D01*
X182307212Y-98517871D01*
X182295159Y-98529169D01*
X182282485Y-98540157D01*
X182269424Y-98550718D01*
X182256208Y-98560736D01*
X182243069Y-98570096D01*
X182230239Y-98578680D01*
X182217953Y-98586373D01*
X182206440Y-98593059D01*
X182195936Y-98598620D01*
X182099527Y-98640175D01*
X182008815Y-98685490D01*
X181923918Y-98734602D01*
X181844950Y-98787552D01*
X181807726Y-98815478D01*
X181772028Y-98844377D01*
X181737871Y-98874256D01*
X181705269Y-98905117D01*
X181674236Y-98936967D01*
X181644788Y-98969810D01*
X181616939Y-99003651D01*
X181590703Y-99038495D01*
X181566094Y-99074347D01*
X181543128Y-99111211D01*
X181521819Y-99149092D01*
X181502181Y-99187995D01*
X181484230Y-99227926D01*
X181467978Y-99268888D01*
X181453442Y-99310888D01*
X181440635Y-99353928D01*
X181429573Y-99398015D01*
X181420269Y-99443154D01*
X181412738Y-99489348D01*
X181406995Y-99536604D01*
X181403053Y-99584925D01*
X181400929Y-99634316D01*
X181400636Y-99684783D01*
X181402189Y-99736331D01*
X181405289Y-99838340D01*
X181414591Y-99936009D01*
X181430094Y-100029337D01*
X181451798Y-100118323D01*
X181479703Y-100202969D01*
X181513809Y-100283275D01*
X181533187Y-100321799D01*
X181554116Y-100359239D01*
X181576595Y-100395593D01*
X181600625Y-100430862D01*
X181626204Y-100465046D01*
X181653334Y-100498145D01*
X181682015Y-100530159D01*
X181712245Y-100561087D01*
X181777357Y-100619688D01*
X181848670Y-100673949D01*
X181926185Y-100723868D01*
X182009901Y-100769447D01*
X182099818Y-100810685D01*
X182195936Y-100847583D01*
X182210359Y-100852622D01*
X182223887Y-100857821D01*
X182236552Y-100863185D01*
X182248388Y-100868719D01*
X182259430Y-100874427D01*
X182269712Y-100880314D01*
X182279266Y-100886385D01*
X182288128Y-100892645D01*
X182296331Y-100899099D01*
X182303909Y-100905752D01*
X182310896Y-100912608D01*
X182317326Y-100919672D01*
X182323232Y-100926950D01*
X182328649Y-100934445D01*
X182333611Y-100942163D01*
X182338152Y-100950109D01*
X182342304Y-100958288D01*
X182346103Y-100966704D01*
X182349583Y-100975362D01*
X182352776Y-100984267D01*
X182358441Y-101002838D01*
X182363370Y-101022455D01*
X182367834Y-101043158D01*
X182372103Y-101064984D01*
X182381147Y-101112163D01*
X182385336Y-101167217D01*
X182387989Y-101218351D01*
X182389121Y-101265678D01*
X182388746Y-101309309D01*
X182386878Y-101349354D01*
X182383533Y-101385926D01*
X182378725Y-101419135D01*
X182372469Y-101449094D01*
X182364778Y-101475913D01*
X182355667Y-101499704D01*
X182345152Y-101520579D01*
X182333246Y-101538649D01*
X182319964Y-101554025D01*
X182305321Y-101566819D01*
X182289331Y-101577142D01*
X182272008Y-101585106D01*
X182253368Y-101590822D01*
X182233425Y-101594401D01*
X182212193Y-101595955D01*
X182189687Y-101595596D01*
X182165921Y-101593434D01*
X182140910Y-101589582D01*
X182087211Y-101577250D01*
X182028707Y-101559492D01*
X181965512Y-101537200D01*
X181825521Y-101482577D01*
X181743025Y-101460881D01*
X181664133Y-101435502D01*
X181588730Y-101406480D01*
X181516698Y-101373853D01*
X181447922Y-101337660D01*
X181382286Y-101297941D01*
X181319673Y-101254733D01*
X181259966Y-101208075D01*
X181203051Y-101158007D01*
X181148810Y-101104567D01*
X181097127Y-101047794D01*
X181047885Y-100987727D01*
X181000970Y-100924404D01*
X180956264Y-100857864D01*
X180913650Y-100788146D01*
X180873014Y-100715289D01*
X180821605Y-100610601D01*
X180776450Y-100505030D01*
X180737448Y-100398782D01*
X180704497Y-100292059D01*
X180677495Y-100185064D01*
X180656341Y-100078002D01*
X180640933Y-99971075D01*
X180631169Y-99864488D01*
X180626947Y-99758443D01*
X180628165Y-99653144D01*
X180634723Y-99548795D01*
X180646517Y-99445599D01*
X180663447Y-99343759D01*
X180685411Y-99243480D01*
X180712306Y-99144963D01*
X180744032Y-99048414D01*
X180780485Y-98954035D01*
X180821566Y-98862031D01*
X180867171Y-98772603D01*
X180917200Y-98685956D01*
X180971550Y-98602294D01*
X181030119Y-98521819D01*
X181092807Y-98444736D01*
X181159510Y-98371248D01*
X181230129Y-98301557D01*
X181304559Y-98235869D01*
X181382701Y-98174385D01*
X181464452Y-98117310D01*
X181549711Y-98064848D01*
X181638375Y-98017201D01*
X181730343Y-97974573D01*
X181825513Y-97937167D01*
X181878439Y-97910708D01*
X181909062Y-97910127D01*
X181941120Y-97908538D01*
X182007834Y-97903266D01*
X182139712Y-97890861D01*
X182198055Y-97887450D01*
X182223835Y-97887256D01*
X182246786Y-97888381D01*
G37*
G36*
X152771340Y-97878279D02*
G01*
X152785845Y-97880046D01*
X152799329Y-97882800D01*
X152811824Y-97886563D01*
X152823365Y-97891352D01*
X152833985Y-97897188D01*
X152843719Y-97904090D01*
X152852600Y-97912077D01*
X152860662Y-97921168D01*
X152867940Y-97931384D01*
X152874466Y-97942743D01*
X152880276Y-97955265D01*
X152885402Y-97968969D01*
X152889879Y-97983874D01*
X152893741Y-98000000D01*
X152897022Y-98017367D01*
X152899755Y-98035993D01*
X152903715Y-98077102D01*
X152905891Y-98123482D01*
X152906557Y-98175288D01*
X152910549Y-98219012D01*
X152912449Y-98260915D01*
X152912023Y-98301035D01*
X152909039Y-98339411D01*
X152903264Y-98376081D01*
X152899258Y-98393789D01*
X152894466Y-98411086D01*
X152888861Y-98427975D01*
X152882413Y-98444462D01*
X152875092Y-98460552D01*
X152866871Y-98476250D01*
X152857719Y-98491560D01*
X152847608Y-98506487D01*
X152836509Y-98521036D01*
X152824393Y-98535213D01*
X152811230Y-98549021D01*
X152796991Y-98562466D01*
X152781648Y-98575552D01*
X152765172Y-98588285D01*
X152747532Y-98600669D01*
X152728701Y-98612709D01*
X152708649Y-98624410D01*
X152687347Y-98635776D01*
X152664766Y-98646813D01*
X152640877Y-98657526D01*
X152615652Y-98667919D01*
X152589059Y-98677997D01*
X152547512Y-98693650D01*
X152507211Y-98710824D01*
X152468158Y-98729491D01*
X152430361Y-98749621D01*
X152393823Y-98771185D01*
X152358550Y-98794153D01*
X152324546Y-98818498D01*
X152291816Y-98844189D01*
X152260366Y-98871198D01*
X152230199Y-98899496D01*
X152201320Y-98929054D01*
X152173735Y-98959841D01*
X152147449Y-98991831D01*
X152122466Y-99024993D01*
X152098790Y-99059298D01*
X152076428Y-99094717D01*
X152055383Y-99131222D01*
X152035661Y-99168782D01*
X152017267Y-99207370D01*
X152000205Y-99246956D01*
X151984480Y-99287510D01*
X151970096Y-99329005D01*
X151957060Y-99371410D01*
X151945375Y-99414697D01*
X151935047Y-99458837D01*
X151926080Y-99503801D01*
X151918480Y-99549558D01*
X151912250Y-99596082D01*
X151907397Y-99643342D01*
X151903924Y-99691309D01*
X151901837Y-99739954D01*
X151901140Y-99789248D01*
X151904512Y-99882234D01*
X151914472Y-99972545D01*
X151930789Y-100059988D01*
X151953230Y-100144369D01*
X151981561Y-100225494D01*
X152015552Y-100303170D01*
X152054968Y-100377203D01*
X152099578Y-100447399D01*
X152149148Y-100513564D01*
X152203447Y-100575505D01*
X152262242Y-100633027D01*
X152325300Y-100685938D01*
X152392389Y-100734042D01*
X152463276Y-100777147D01*
X152537729Y-100815059D01*
X152615514Y-100847583D01*
X152637600Y-100858190D01*
X152659181Y-100870126D01*
X152680220Y-100883320D01*
X152700677Y-100897707D01*
X152720514Y-100913218D01*
X152739693Y-100929785D01*
X152758173Y-100947340D01*
X152775918Y-100965816D01*
X152792887Y-100985144D01*
X152809042Y-101005258D01*
X152824345Y-101026088D01*
X152838756Y-101047567D01*
X152852237Y-101069628D01*
X152864749Y-101092203D01*
X152876254Y-101115223D01*
X152886712Y-101138621D01*
X152896084Y-101162329D01*
X152904333Y-101186280D01*
X152911419Y-101210405D01*
X152917304Y-101234636D01*
X152921949Y-101258906D01*
X152925314Y-101283147D01*
X152927362Y-101307291D01*
X152928053Y-101331271D01*
X152927349Y-101355018D01*
X152925211Y-101378464D01*
X152921600Y-101401542D01*
X152916478Y-101424185D01*
X152909805Y-101446323D01*
X152901543Y-101467889D01*
X152891654Y-101488816D01*
X152880098Y-101509036D01*
X152877236Y-101513995D01*
X152873638Y-101518940D01*
X152869343Y-101523855D01*
X152864388Y-101528727D01*
X152858814Y-101533541D01*
X152852658Y-101538282D01*
X152838757Y-101547487D01*
X152822995Y-101556227D01*
X152805684Y-101564386D01*
X152787132Y-101571846D01*
X152767650Y-101578493D01*
X152747548Y-101584209D01*
X152727136Y-101588879D01*
X152706724Y-101592386D01*
X152686622Y-101594615D01*
X152667140Y-101595447D01*
X152657728Y-101595304D01*
X152648588Y-101594769D01*
X152639757Y-101593826D01*
X152631276Y-101592463D01*
X152623182Y-101590663D01*
X152615514Y-101588412D01*
X152527748Y-101571372D01*
X152442967Y-101550068D01*
X152361053Y-101524579D01*
X152281891Y-101494981D01*
X152205365Y-101461353D01*
X152131358Y-101423771D01*
X152059754Y-101382314D01*
X151990436Y-101337059D01*
X151923289Y-101288083D01*
X151858196Y-101235464D01*
X151795041Y-101179279D01*
X151733708Y-101119606D01*
X151674080Y-101056522D01*
X151616041Y-100990106D01*
X151559476Y-100920433D01*
X151504266Y-100847583D01*
X151440921Y-100737633D01*
X151384765Y-100626239D01*
X151335701Y-100513664D01*
X151293633Y-100400167D01*
X151258464Y-100286012D01*
X151230097Y-100171460D01*
X151208435Y-100056772D01*
X151193381Y-99942210D01*
X151184838Y-99828036D01*
X151182710Y-99714511D01*
X151186899Y-99601897D01*
X151197309Y-99490455D01*
X151213842Y-99380447D01*
X151236402Y-99272135D01*
X151264892Y-99165780D01*
X151299214Y-99061644D01*
X151339273Y-98959988D01*
X151384971Y-98861075D01*
X151436212Y-98765165D01*
X151492897Y-98672520D01*
X151554932Y-98583403D01*
X151622217Y-98498074D01*
X151694658Y-98416795D01*
X151772156Y-98339828D01*
X151854615Y-98267434D01*
X151941939Y-98199875D01*
X152034029Y-98137413D01*
X152130790Y-98080310D01*
X152232124Y-98028825D01*
X152337934Y-97983223D01*
X152448124Y-97943763D01*
X152562597Y-97910708D01*
X152614423Y-97897401D01*
X152660938Y-97887350D01*
X152702416Y-97880709D01*
X152721350Y-97878716D01*
X152739126Y-97877634D01*
X152755778Y-97877482D01*
X152771340Y-97878279D01*
G37*
G36*
X125789619Y-101593085D02*
G01*
X125773794Y-101593425D01*
X125758376Y-101593164D01*
X125743350Y-101592307D01*
X125728702Y-101590860D01*
X125714418Y-101588826D01*
X125700482Y-101586211D01*
X125686880Y-101583019D01*
X125673599Y-101579255D01*
X125660622Y-101574925D01*
X125647937Y-101570033D01*
X125635527Y-101564583D01*
X125623379Y-101558582D01*
X125611478Y-101552032D01*
X125588359Y-101537311D01*
X125566055Y-101520459D01*
X125544447Y-101501513D01*
X125523421Y-101480513D01*
X125502861Y-101457499D01*
X125482649Y-101432507D01*
X125462669Y-101405578D01*
X125442806Y-101376750D01*
X125372164Y-101257686D01*
X125299352Y-101138622D01*
X125224680Y-101019559D01*
X125148457Y-100900496D01*
X124992601Y-100662370D01*
X124834264Y-100424243D01*
X124831631Y-100419283D01*
X124828703Y-100414327D01*
X124825493Y-100409382D01*
X124822017Y-100404451D01*
X124814324Y-100394652D01*
X124805739Y-100384969D01*
X124796379Y-100375442D01*
X124786361Y-100366108D01*
X124775799Y-100357008D01*
X124764812Y-100348178D01*
X124753514Y-100339658D01*
X124742022Y-100331488D01*
X124730453Y-100323704D01*
X124718923Y-100316347D01*
X124707548Y-100309455D01*
X124696444Y-100303067D01*
X124685727Y-100297221D01*
X124675515Y-100291957D01*
X123881765Y-100291957D01*
X123881765Y-101270915D01*
X123881455Y-101292776D01*
X123880525Y-101313722D01*
X123878974Y-101333766D01*
X123876804Y-101352925D01*
X123874014Y-101371211D01*
X123870603Y-101388639D01*
X123866572Y-101405225D01*
X123861921Y-101420982D01*
X123856650Y-101435926D01*
X123850759Y-101450070D01*
X123844248Y-101463429D01*
X123837117Y-101476019D01*
X123829365Y-101487852D01*
X123820994Y-101498944D01*
X123812002Y-101509309D01*
X123802390Y-101518963D01*
X123792158Y-101527919D01*
X123781306Y-101536191D01*
X123769834Y-101543795D01*
X123757742Y-101550745D01*
X123745029Y-101557056D01*
X123731697Y-101562741D01*
X123717744Y-101567816D01*
X123703171Y-101572296D01*
X123687978Y-101576193D01*
X123672165Y-101579524D01*
X123638679Y-101584544D01*
X123602712Y-101587470D01*
X123564265Y-101588420D01*
X123503125Y-101588058D01*
X123448458Y-101586766D01*
X123399915Y-101584234D01*
X123357146Y-101580152D01*
X123319803Y-101574209D01*
X123303058Y-101570443D01*
X123287538Y-101566095D01*
X123273200Y-101561128D01*
X123260001Y-101555501D01*
X123247896Y-101549177D01*
X123236843Y-101542117D01*
X123226798Y-101534281D01*
X123217717Y-101525632D01*
X123209556Y-101516130D01*
X123202272Y-101505736D01*
X123195821Y-101494413D01*
X123190160Y-101482120D01*
X123185245Y-101468819D01*
X123181033Y-101454472D01*
X123177479Y-101439040D01*
X123174541Y-101422484D01*
X123170336Y-101385845D01*
X123168069Y-101344245D01*
X123167390Y-101297374D01*
X123167390Y-99868625D01*
X123168327Y-99830482D01*
X123171163Y-99795401D01*
X123173305Y-99778996D01*
X123175936Y-99763342D01*
X123179062Y-99748435D01*
X123182687Y-99734268D01*
X123186815Y-99720838D01*
X123191452Y-99708140D01*
X123196603Y-99696168D01*
X123202272Y-99684918D01*
X123208464Y-99674385D01*
X123215184Y-99664564D01*
X123222438Y-99655450D01*
X123230229Y-99647039D01*
X123238562Y-99639326D01*
X123247443Y-99632305D01*
X123256877Y-99625972D01*
X123266867Y-99620323D01*
X123277420Y-99615351D01*
X123288539Y-99611053D01*
X123300230Y-99607424D01*
X123312497Y-99604458D01*
X123325346Y-99602151D01*
X123338781Y-99600498D01*
X123352807Y-99599495D01*
X123367429Y-99599136D01*
X123382652Y-99599416D01*
X123398480Y-99600331D01*
X123431973Y-99604045D01*
X123789160Y-99607766D01*
X124146348Y-99613967D01*
X124324942Y-99615672D01*
X124503536Y-99615207D01*
X124682130Y-99611641D01*
X124860724Y-99604045D01*
X124896323Y-99598464D01*
X124933433Y-99591642D01*
X124971706Y-99583581D01*
X125010792Y-99574279D01*
X125050344Y-99563737D01*
X125090012Y-99551955D01*
X125129448Y-99538932D01*
X125168302Y-99524670D01*
X125206226Y-99509167D01*
X125242871Y-99492424D01*
X125277888Y-99474441D01*
X125310929Y-99455218D01*
X125341644Y-99434754D01*
X125369685Y-99413051D01*
X125394702Y-99390107D01*
X125416348Y-99365924D01*
X125437210Y-99335939D01*
X125455189Y-99305571D01*
X125470349Y-99274903D01*
X125482752Y-99244018D01*
X125492462Y-99212996D01*
X125499541Y-99181921D01*
X125504052Y-99150876D01*
X125506059Y-99119942D01*
X125505624Y-99089201D01*
X125502810Y-99058737D01*
X125497680Y-99028631D01*
X125490298Y-98998967D01*
X125480725Y-98969825D01*
X125469026Y-98941289D01*
X125455263Y-98913442D01*
X125439500Y-98886364D01*
X125421798Y-98860139D01*
X125402221Y-98834849D01*
X125380833Y-98810577D01*
X125357696Y-98787404D01*
X125332872Y-98765414D01*
X125306426Y-98744688D01*
X125278420Y-98725309D01*
X125248917Y-98707359D01*
X125217979Y-98690921D01*
X125185671Y-98676076D01*
X125152055Y-98662908D01*
X125117193Y-98651499D01*
X125081150Y-98641930D01*
X125043987Y-98634285D01*
X125005768Y-98628646D01*
X124966556Y-98625094D01*
X124847494Y-98617496D01*
X124728431Y-98613929D01*
X124609369Y-98613464D01*
X124490306Y-98615170D01*
X124252181Y-98621373D01*
X124133119Y-98624009D01*
X124014057Y-98625094D01*
X123511348Y-98625094D01*
X123396678Y-98624423D01*
X123349440Y-98622827D01*
X123308363Y-98619720D01*
X123290003Y-98617442D01*
X123273023Y-98614598D01*
X123257371Y-98611123D01*
X123242992Y-98606956D01*
X123229835Y-98602033D01*
X123217845Y-98596291D01*
X123206970Y-98589668D01*
X123197155Y-98582100D01*
X123188348Y-98573524D01*
X123180496Y-98563878D01*
X123173545Y-98553098D01*
X123167441Y-98541121D01*
X123162132Y-98527884D01*
X123157564Y-98513325D01*
X123153685Y-98497381D01*
X123150439Y-98479988D01*
X123145640Y-98440604D01*
X123142739Y-98394671D01*
X123141312Y-98341683D01*
X123140931Y-98281138D01*
X123141305Y-98224952D01*
X123142688Y-98175200D01*
X123145465Y-98131495D01*
X123150026Y-98093448D01*
X123153096Y-98076425D01*
X123156757Y-98060672D01*
X123161057Y-98046140D01*
X123166046Y-98032780D01*
X123171770Y-98020544D01*
X123178280Y-98009384D01*
X123185623Y-97999251D01*
X123193848Y-97990096D01*
X123203002Y-97981872D01*
X123213136Y-97974529D01*
X123224296Y-97968020D01*
X123236532Y-97962295D01*
X123249892Y-97957307D01*
X123264425Y-97953007D01*
X123280178Y-97949346D01*
X123297201Y-97946276D01*
X123335247Y-97941716D01*
X123378953Y-97938939D01*
X123428704Y-97937557D01*
X123484890Y-97937182D01*
X123855306Y-97937182D01*
X124033848Y-97944882D01*
X124212080Y-97949172D01*
X124566374Y-97953719D01*
X124741815Y-97957078D01*
X124915706Y-97963228D01*
X125087737Y-97973718D01*
X125257597Y-97990100D01*
X125363644Y-98008077D01*
X125414354Y-98019379D01*
X125463528Y-98032217D01*
X125511171Y-98046585D01*
X125557289Y-98062480D01*
X125601885Y-98079896D01*
X125644964Y-98098828D01*
X125686532Y-98119272D01*
X125726594Y-98141223D01*
X125765153Y-98164675D01*
X125802216Y-98189625D01*
X125837786Y-98216066D01*
X125871869Y-98243995D01*
X125904470Y-98273407D01*
X125935593Y-98304295D01*
X125965243Y-98336657D01*
X125993425Y-98370487D01*
X126020144Y-98405779D01*
X126045405Y-98442530D01*
X126069213Y-98480734D01*
X126091572Y-98520387D01*
X126112487Y-98561484D01*
X126131963Y-98604019D01*
X126150006Y-98647988D01*
X126166619Y-98693386D01*
X126195577Y-98788451D01*
X126218877Y-98889174D01*
X126236557Y-98995517D01*
X126244263Y-99067308D01*
X126247357Y-99143207D01*
X126245568Y-99222363D01*
X126238624Y-99303921D01*
X126226253Y-99387029D01*
X126208186Y-99470835D01*
X126184150Y-99554486D01*
X126153874Y-99637130D01*
X126117087Y-99717913D01*
X126073517Y-99795983D01*
X126049104Y-99833734D01*
X126022894Y-99870487D01*
X125994852Y-99906135D01*
X125964945Y-99940573D01*
X125933139Y-99973692D01*
X125899400Y-100005387D01*
X125863694Y-100035552D01*
X125825987Y-100064078D01*
X125786245Y-100090861D01*
X125744435Y-100115793D01*
X125700522Y-100138768D01*
X125654473Y-100159678D01*
X125651992Y-100159756D01*
X125649512Y-100159988D01*
X125647032Y-100160376D01*
X125644551Y-100160919D01*
X125642071Y-100161616D01*
X125639590Y-100162469D01*
X125637110Y-100163477D01*
X125634629Y-100164639D01*
X125632149Y-100165957D01*
X125629668Y-100167430D01*
X125627188Y-100169058D01*
X125624707Y-100170841D01*
X125622227Y-100172779D01*
X125619746Y-100174871D01*
X125617266Y-100177119D01*
X125614785Y-100179522D01*
X125612305Y-100182080D01*
X125609824Y-100184794D01*
X125604863Y-100190685D01*
X125599902Y-100197196D01*
X125594941Y-100204328D01*
X125589980Y-100212079D01*
X125585019Y-100220451D01*
X125580058Y-100229443D01*
X125575098Y-100239055D01*
X126236557Y-101270923D01*
X126245878Y-101286109D01*
X126254075Y-101301877D01*
X126261264Y-101318188D01*
X126267562Y-101335002D01*
X126273085Y-101352282D01*
X126277949Y-101369988D01*
X126282271Y-101388081D01*
X126286166Y-101406524D01*
X126293142Y-101444300D01*
X126299808Y-101483006D01*
X126307094Y-101522332D01*
X126309960Y-101535950D01*
X126308490Y-101536171D01*
X126306009Y-101536683D01*
X126303529Y-101537332D01*
X126301048Y-101538111D01*
X126298568Y-101539016D01*
X126296088Y-101540042D01*
X126291127Y-101542439D01*
X126286166Y-101545262D01*
X126281205Y-101548472D01*
X126276244Y-101552031D01*
X126272831Y-101554694D01*
X126281205Y-101551205D01*
X126288956Y-101547936D01*
X126297327Y-101544280D01*
X126306319Y-101540159D01*
X126310432Y-101538193D01*
X126311261Y-101542131D01*
X126315931Y-101561969D01*
X126313450Y-101566777D01*
X126310970Y-101571290D01*
X126308490Y-101575522D01*
X126306009Y-101579487D01*
X126303529Y-101583201D01*
X126301048Y-101586677D01*
X126298568Y-101589930D01*
X126296087Y-101592975D01*
X126293607Y-101595826D01*
X126291126Y-101598498D01*
X126288646Y-101601005D01*
X126286166Y-101603362D01*
X126281205Y-101607683D01*
X126276244Y-101611578D01*
X126271283Y-101615163D01*
X126266322Y-101618553D01*
X126256400Y-101625218D01*
X126251439Y-101628725D01*
X126246478Y-101632503D01*
X126241517Y-101636668D01*
X126236557Y-101641337D01*
X126211752Y-101632021D01*
X126186947Y-101623868D01*
X126162142Y-101616800D01*
X126137338Y-101610740D01*
X126112533Y-101605610D01*
X126087728Y-101601333D01*
X126062924Y-101597832D01*
X126038119Y-101595028D01*
X126013314Y-101592844D01*
X125988510Y-101591203D01*
X125938900Y-101589239D01*
X125889291Y-101588516D01*
X125839681Y-101588412D01*
X126236557Y-101588412D01*
X126246479Y-101578542D01*
X126256401Y-101568982D01*
X126261361Y-101564415D01*
X126266322Y-101560041D01*
X126271283Y-101555901D01*
X126272831Y-101554694D01*
X126267562Y-101556889D01*
X126261671Y-101559460D01*
X126258958Y-101560712D01*
X126256400Y-101561954D01*
X126253997Y-101563195D01*
X126251749Y-101564447D01*
X126249656Y-101565718D01*
X126247718Y-101567018D01*
X126245936Y-101568357D01*
X126244308Y-101569744D01*
X126242835Y-101571189D01*
X126241517Y-101572702D01*
X126240355Y-101574293D01*
X126239347Y-101575971D01*
X126238494Y-101577746D01*
X126237797Y-101579627D01*
X126237254Y-101581625D01*
X126236867Y-101583748D01*
X126236634Y-101586008D01*
X126236557Y-101588412D01*
X125839681Y-101588412D01*
X125805865Y-101592139D01*
X125789619Y-101593085D01*
G37*
G36*
X129942882Y-100874723D02*
G01*
X129969267Y-100876753D01*
X129993511Y-100880073D01*
X130015705Y-100884627D01*
X130035942Y-100890364D01*
X130054314Y-100897230D01*
X130070912Y-100905171D01*
X130085830Y-100914134D01*
X130099158Y-100924066D01*
X130110990Y-100934914D01*
X130121417Y-100946625D01*
X130130530Y-100959144D01*
X130138423Y-100972419D01*
X130145187Y-100986396D01*
X130150914Y-101001023D01*
X130155697Y-101016246D01*
X130159627Y-101032011D01*
X130162796Y-101048266D01*
X130167221Y-101082030D01*
X130169708Y-101117111D01*
X130170994Y-101153084D01*
X130172905Y-101226000D01*
X130175005Y-101262090D01*
X130178848Y-101297366D01*
X130182562Y-101335806D01*
X130183757Y-101371727D01*
X130183398Y-101388731D01*
X130182394Y-101405091D01*
X130180742Y-101420801D01*
X130178435Y-101435858D01*
X130175469Y-101450255D01*
X130171840Y-101463989D01*
X130167542Y-101477055D01*
X130162570Y-101489447D01*
X130156921Y-101501161D01*
X130150588Y-101512192D01*
X130143567Y-101522534D01*
X130135854Y-101532185D01*
X130127442Y-101541137D01*
X130118329Y-101549387D01*
X130108508Y-101556930D01*
X130097975Y-101563760D01*
X130086725Y-101569874D01*
X130074753Y-101575265D01*
X130062054Y-101579930D01*
X130048624Y-101583864D01*
X130034457Y-101587061D01*
X130019549Y-101589516D01*
X130003895Y-101591226D01*
X129987490Y-101592184D01*
X129970330Y-101592387D01*
X129952408Y-101591829D01*
X129933721Y-101590506D01*
X129914264Y-101588412D01*
X127612390Y-101588412D01*
X127604949Y-101588182D01*
X127597507Y-101587501D01*
X127590066Y-101586385D01*
X127582624Y-101584847D01*
X127575183Y-101582901D01*
X127567741Y-101580564D01*
X127560300Y-101577848D01*
X127552858Y-101574769D01*
X127537975Y-101567580D01*
X127523093Y-101559111D01*
X127508210Y-101549480D01*
X127493327Y-101538802D01*
X127478444Y-101527194D01*
X127463561Y-101514772D01*
X127448678Y-101501653D01*
X127433796Y-101487952D01*
X127404030Y-101459271D01*
X127374264Y-101429660D01*
X127373851Y-101330854D01*
X127372869Y-101282227D01*
X127370957Y-101234530D01*
X127367805Y-101188074D01*
X127363102Y-101143168D01*
X127360073Y-101121393D01*
X127356540Y-101100121D01*
X127352464Y-101079393D01*
X127347923Y-101059750D01*
X127347807Y-101032786D01*
X127362986Y-101022283D01*
X127378709Y-101010772D01*
X127411471Y-100985657D01*
X127445474Y-100959301D01*
X127480098Y-100933566D01*
X127497448Y-100921512D01*
X127514721Y-100910311D01*
X127531839Y-100900195D01*
X127548724Y-100891397D01*
X127565299Y-100884150D01*
X127573447Y-100881180D01*
X127581487Y-100878685D01*
X127589412Y-100876694D01*
X127597210Y-100875235D01*
X127604873Y-100874339D01*
X127612390Y-100874034D01*
X129914264Y-100874034D01*
X129942882Y-100874723D01*
G37*
G36*
X156384884Y-99340095D02*
G01*
X156421691Y-99342181D01*
X156456483Y-99345896D01*
X156489181Y-99351432D01*
X156519710Y-99358984D01*
X156534135Y-99363576D01*
X156547990Y-99368745D01*
X156561262Y-99374515D01*
X156573944Y-99380909D01*
X156586025Y-99387953D01*
X156597496Y-99395670D01*
X156608346Y-99404085D01*
X156618567Y-99413221D01*
X156628148Y-99423104D01*
X156637080Y-99433756D01*
X156645353Y-99445204D01*
X156652957Y-99457470D01*
X156659883Y-99470579D01*
X156666122Y-99484555D01*
X156671662Y-99499423D01*
X156676496Y-99515206D01*
X156680612Y-99531929D01*
X156684002Y-99549616D01*
X156686655Y-99568291D01*
X156688562Y-99587979D01*
X156689713Y-99608703D01*
X156690099Y-99630488D01*
X156681082Y-99669879D01*
X156673769Y-99708728D01*
X156668007Y-99747111D01*
X156663641Y-99785107D01*
X156660514Y-99822792D01*
X156658473Y-99860245D01*
X156657026Y-99934763D01*
X156663641Y-100239032D01*
X156663641Y-101297366D01*
X156662704Y-101331157D01*
X156659868Y-101363048D01*
X156655094Y-101393001D01*
X156651969Y-101407239D01*
X156648344Y-101420978D01*
X156644216Y-101434213D01*
X156639578Y-101446939D01*
X156634428Y-101459152D01*
X156628759Y-101470847D01*
X156622566Y-101482018D01*
X156615846Y-101492661D01*
X156608593Y-101502771D01*
X156600802Y-101512343D01*
X156592468Y-101521373D01*
X156583587Y-101529855D01*
X156574153Y-101537786D01*
X156564163Y-101545158D01*
X156553610Y-101551969D01*
X156542491Y-101558213D01*
X156530800Y-101563886D01*
X156518533Y-101568982D01*
X156505684Y-101573496D01*
X156492249Y-101577424D01*
X156478223Y-101580762D01*
X156463601Y-101583503D01*
X156448378Y-101585643D01*
X156432550Y-101587178D01*
X156416111Y-101588103D01*
X156399057Y-101588412D01*
X156250591Y-101587534D01*
X156190524Y-101585447D01*
X156139022Y-101581384D01*
X156116277Y-101578405D01*
X156095426Y-101574685D01*
X156076387Y-101570142D01*
X156059078Y-101564692D01*
X156043416Y-101558255D01*
X156029319Y-101550746D01*
X156016704Y-101542084D01*
X156005490Y-101532187D01*
X155995593Y-101520973D01*
X155986932Y-101508358D01*
X155979423Y-101494260D01*
X155972986Y-101478598D01*
X155967536Y-101461289D01*
X155962993Y-101442250D01*
X155959273Y-101421399D01*
X155956294Y-101398653D01*
X155952231Y-101347151D01*
X155950145Y-101287082D01*
X155949266Y-101138614D01*
X155949266Y-99656947D01*
X155949944Y-99605710D01*
X155952212Y-99560830D01*
X155954050Y-99540628D01*
X155956417Y-99521841D01*
X155959355Y-99504410D01*
X155962909Y-99488277D01*
X155967121Y-99473384D01*
X155972036Y-99459674D01*
X155977697Y-99447088D01*
X155984148Y-99435567D01*
X155991432Y-99425054D01*
X155999593Y-99415491D01*
X156008674Y-99406819D01*
X156018719Y-99398980D01*
X156029772Y-99391916D01*
X156041877Y-99385570D01*
X156055076Y-99379882D01*
X156069414Y-99374795D01*
X156084934Y-99370250D01*
X156101679Y-99366190D01*
X156119694Y-99362556D01*
X156139022Y-99359291D01*
X156181790Y-99353631D01*
X156230333Y-99348747D01*
X156346139Y-99339442D01*
X156384884Y-99340095D01*
G37*
G36*
X174569189Y-99362485D02*
G01*
X174585406Y-99363820D01*
X174602384Y-99365916D01*
X174840509Y-99365916D01*
X174855160Y-99366149D01*
X174869345Y-99366846D01*
X174883065Y-99368009D01*
X174896320Y-99369637D01*
X174909110Y-99371729D01*
X174921435Y-99374287D01*
X174933295Y-99377310D01*
X174944690Y-99380798D01*
X174955619Y-99384751D01*
X174966084Y-99389169D01*
X174976083Y-99394052D01*
X174985617Y-99399401D01*
X174994687Y-99405214D01*
X175003291Y-99411492D01*
X175011430Y-99418236D01*
X175019104Y-99425445D01*
X175026312Y-99433118D01*
X175033056Y-99441257D01*
X175039335Y-99449861D01*
X175045148Y-99458930D01*
X175050497Y-99468464D01*
X175055380Y-99478463D01*
X175059798Y-99488928D01*
X175063751Y-99499857D01*
X175067239Y-99511252D01*
X175070263Y-99523111D01*
X175072820Y-99535436D01*
X175074913Y-99548226D01*
X175076541Y-99561481D01*
X175077704Y-99575201D01*
X175078401Y-99589387D01*
X175078634Y-99604037D01*
X175078634Y-101376750D01*
X175078001Y-101400927D01*
X175076050Y-101423825D01*
X175072704Y-101445406D01*
X175070483Y-101455690D01*
X175067885Y-101465630D01*
X175064899Y-101475222D01*
X175061516Y-101484459D01*
X175057726Y-101493339D01*
X175053519Y-101501855D01*
X175048886Y-101510003D01*
X175043816Y-101517777D01*
X175038301Y-101525174D01*
X175032331Y-101532188D01*
X175025896Y-101538815D01*
X175018985Y-101545049D01*
X175011591Y-101550886D01*
X175003702Y-101556321D01*
X174995309Y-101561349D01*
X174986403Y-101565965D01*
X174976973Y-101570165D01*
X174967011Y-101573943D01*
X174956506Y-101577294D01*
X174945449Y-101580215D01*
X174933829Y-101582700D01*
X174921638Y-101584743D01*
X174908866Y-101586341D01*
X174895503Y-101587489D01*
X174881539Y-101588181D01*
X174866964Y-101588412D01*
X174778475Y-101597307D01*
X174701032Y-101603760D01*
X174633899Y-101607190D01*
X174576338Y-101607016D01*
X174550917Y-101605396D01*
X174527614Y-101602656D01*
X174506335Y-101598725D01*
X174486990Y-101593529D01*
X174469485Y-101586996D01*
X174453730Y-101579053D01*
X174439631Y-101569628D01*
X174427097Y-101558647D01*
X174416036Y-101546039D01*
X174406356Y-101531730D01*
X174397964Y-101515648D01*
X174390769Y-101497721D01*
X174384679Y-101477874D01*
X174379601Y-101456037D01*
X174375443Y-101432136D01*
X174372114Y-101406098D01*
X174367573Y-101347323D01*
X174365241Y-101279129D01*
X174364259Y-101112163D01*
X174364263Y-100239032D01*
X174364263Y-99604037D01*
X174364903Y-99574911D01*
X174366898Y-99547141D01*
X174370367Y-99520843D01*
X174375425Y-99496135D01*
X174378586Y-99484414D01*
X174382188Y-99473133D01*
X174386245Y-99462307D01*
X174390772Y-99451952D01*
X174395784Y-99442081D01*
X174401294Y-99432708D01*
X174407319Y-99423850D01*
X174413871Y-99415520D01*
X174420966Y-99407732D01*
X174428618Y-99400501D01*
X174436841Y-99393843D01*
X174445651Y-99387770D01*
X174455062Y-99382298D01*
X174465088Y-99377442D01*
X174475743Y-99373215D01*
X174487043Y-99369633D01*
X174499002Y-99366709D01*
X174511635Y-99364459D01*
X174524955Y-99362897D01*
X174538978Y-99362038D01*
X174553717Y-99361896D01*
X174569189Y-99362485D01*
G37*
G36*
X153356617Y-97905759D02*
G01*
X153385285Y-97907807D01*
X153414883Y-97911250D01*
X153445333Y-97915817D01*
X153508483Y-97927237D01*
X153574112Y-97939898D01*
X153641601Y-97951629D01*
X153675849Y-97956467D01*
X153710330Y-97960259D01*
X153744966Y-97962733D01*
X153779680Y-97963618D01*
X153857518Y-97999282D01*
X153932333Y-98036845D01*
X154004202Y-98076345D01*
X154073203Y-98117822D01*
X154139414Y-98161314D01*
X154202911Y-98206860D01*
X154263773Y-98254499D01*
X154322076Y-98304270D01*
X154377900Y-98356211D01*
X154431320Y-98410361D01*
X154482415Y-98466759D01*
X154531262Y-98525443D01*
X154577938Y-98586453D01*
X154622522Y-98649828D01*
X154665090Y-98715605D01*
X154705720Y-98783824D01*
X154717504Y-98805762D01*
X154728052Y-98826929D01*
X154737369Y-98847331D01*
X154745460Y-98866972D01*
X154752331Y-98885858D01*
X154757986Y-98903992D01*
X154762429Y-98921381D01*
X154765666Y-98938028D01*
X154767702Y-98953938D01*
X154768541Y-98969117D01*
X154768188Y-98983570D01*
X154766648Y-98997300D01*
X154763926Y-99010314D01*
X154760027Y-99022615D01*
X154754956Y-99034209D01*
X154748716Y-99045100D01*
X154741315Y-99055294D01*
X154732755Y-99064795D01*
X154723042Y-99073608D01*
X154712181Y-99081738D01*
X154700177Y-99089190D01*
X154687034Y-99095968D01*
X154672757Y-99102078D01*
X154657352Y-99107524D01*
X154640823Y-99112311D01*
X154623175Y-99116444D01*
X154604412Y-99119928D01*
X154584540Y-99122768D01*
X154563563Y-99124968D01*
X154541487Y-99126533D01*
X154494054Y-99127780D01*
X154449723Y-99131791D01*
X154406049Y-99133826D01*
X154363074Y-99133768D01*
X154320835Y-99131501D01*
X154279371Y-99126908D01*
X154238721Y-99119874D01*
X154198924Y-99110281D01*
X154160018Y-99098015D01*
X154122042Y-99082958D01*
X154085035Y-99064994D01*
X154049036Y-99044007D01*
X154014083Y-99019881D01*
X153980216Y-98992500D01*
X153947472Y-98961746D01*
X153915891Y-98927505D01*
X153885511Y-98889659D01*
X153864757Y-98865461D01*
X153842258Y-98842426D01*
X153818132Y-98820477D01*
X153792494Y-98799535D01*
X153765461Y-98779523D01*
X153737149Y-98760364D01*
X153707674Y-98741981D01*
X153677152Y-98724295D01*
X153645701Y-98707229D01*
X153613435Y-98690705D01*
X153580472Y-98674646D01*
X153546927Y-98658975D01*
X153478559Y-98628484D01*
X153409261Y-98598613D01*
X153392061Y-98589957D01*
X153375220Y-98578970D01*
X153358785Y-98565804D01*
X153342806Y-98550607D01*
X153327330Y-98533531D01*
X153312407Y-98514725D01*
X153298085Y-98494339D01*
X153284411Y-98472525D01*
X153271436Y-98449431D01*
X153259206Y-98425209D01*
X153237179Y-98373978D01*
X153218717Y-98320034D01*
X153204209Y-98264579D01*
X153194041Y-98208813D01*
X153190706Y-98181190D01*
X153188602Y-98153939D01*
X153187777Y-98127212D01*
X153188279Y-98101158D01*
X153190157Y-98075928D01*
X153193459Y-98051672D01*
X153198234Y-98028539D01*
X153204531Y-98006681D01*
X153212397Y-97986247D01*
X153221881Y-97967388D01*
X153233032Y-97950254D01*
X153245897Y-97934994D01*
X153260527Y-97921760D01*
X153276968Y-97910701D01*
X153302380Y-97906935D01*
X153328956Y-97905378D01*
X153356617Y-97905759D01*
G37*
G36*
X168621716Y-99340122D02*
G01*
X168668231Y-99342344D01*
X168709708Y-99346427D01*
X168728641Y-99349263D01*
X168746417Y-99352680D01*
X168763069Y-99356718D01*
X168778631Y-99361414D01*
X168793136Y-99366808D01*
X168806620Y-99372938D01*
X168819115Y-99379844D01*
X168830656Y-99387563D01*
X168841276Y-99396135D01*
X168851009Y-99405599D01*
X168859890Y-99415992D01*
X168867953Y-99427355D01*
X168875230Y-99439725D01*
X168881756Y-99453141D01*
X168887566Y-99467643D01*
X168892692Y-99483268D01*
X168897169Y-99500057D01*
X168901031Y-99518046D01*
X168904312Y-99537276D01*
X168907045Y-99557785D01*
X168911004Y-99602794D01*
X168913181Y-99653384D01*
X168913847Y-99709865D01*
X168913181Y-99761988D01*
X168911004Y-99809343D01*
X168907045Y-99852125D01*
X168901031Y-99890528D01*
X168897169Y-99908148D01*
X168892692Y-99924745D01*
X168887566Y-99940344D01*
X168881756Y-99954970D01*
X168875230Y-99968646D01*
X168867953Y-99981396D01*
X168859890Y-99993246D01*
X168851009Y-100004218D01*
X168841276Y-100014338D01*
X168830656Y-100023629D01*
X168819115Y-100032116D01*
X168806620Y-100039824D01*
X168793136Y-100046775D01*
X168778631Y-100052995D01*
X168763069Y-100058507D01*
X168746417Y-100063337D01*
X168728641Y-100067507D01*
X168709708Y-100071043D01*
X168668231Y-100076308D01*
X168621716Y-100079324D01*
X168569891Y-100080287D01*
X166585516Y-100080287D01*
X166547074Y-100083988D01*
X166528796Y-100084872D01*
X166511152Y-100085093D01*
X166494148Y-100084635D01*
X166477788Y-100083485D01*
X166462077Y-100081627D01*
X166447021Y-100079047D01*
X166432623Y-100075731D01*
X166418889Y-100071664D01*
X166405823Y-100066831D01*
X166393431Y-100061218D01*
X166381718Y-100054811D01*
X166370687Y-100047595D01*
X166360344Y-100039556D01*
X166350694Y-100030678D01*
X166341742Y-100020947D01*
X166333492Y-100010350D01*
X166325950Y-99998870D01*
X166319119Y-99986495D01*
X166313006Y-99973208D01*
X166307615Y-99958997D01*
X166302950Y-99943845D01*
X166299017Y-99927739D01*
X166295820Y-99910664D01*
X166293365Y-99892606D01*
X166291655Y-99873550D01*
X166290697Y-99853481D01*
X166290494Y-99832385D01*
X166291052Y-99810247D01*
X166292376Y-99787054D01*
X166294469Y-99762790D01*
X166303979Y-99623054D01*
X166309354Y-99566520D01*
X166315969Y-99518046D01*
X166319936Y-99496639D01*
X166324445Y-99477015D01*
X166329574Y-99459096D01*
X166335400Y-99442804D01*
X166342002Y-99428063D01*
X166349456Y-99414795D01*
X166357841Y-99402922D01*
X166367233Y-99392367D01*
X166377711Y-99383053D01*
X166389351Y-99374900D01*
X166402231Y-99367834D01*
X166416429Y-99361774D01*
X166432023Y-99356645D01*
X166449089Y-99352369D01*
X166467705Y-99348868D01*
X166487950Y-99346065D01*
X166533631Y-99342240D01*
X166586755Y-99340277D01*
X166717805Y-99339450D01*
X168569891Y-99339450D01*
X168621716Y-99340122D01*
G37*
G36*
X147339557Y-100307253D02*
G01*
X147356132Y-100308590D01*
X147372320Y-100310819D01*
X147388042Y-100314055D01*
X147403223Y-100318416D01*
X147418383Y-100324275D01*
X147433970Y-100331800D01*
X147449790Y-100340798D01*
X147465648Y-100351076D01*
X147481351Y-100362438D01*
X147496705Y-100374692D01*
X147511517Y-100387644D01*
X147525592Y-100401099D01*
X147538737Y-100414865D01*
X147550759Y-100428746D01*
X147561462Y-100442551D01*
X147570654Y-100456084D01*
X147578140Y-100469152D01*
X147581183Y-100475451D01*
X147583728Y-100481561D01*
X147585749Y-100487457D01*
X147587222Y-100493117D01*
X147588124Y-100498515D01*
X147588430Y-100503627D01*
X147596028Y-100612717D01*
X147599594Y-100721497D01*
X147600059Y-100829656D01*
X147598353Y-100936885D01*
X147592151Y-101147312D01*
X147589515Y-101249890D01*
X147588430Y-101350299D01*
X147590297Y-101374260D01*
X147590962Y-101396573D01*
X147590465Y-101417298D01*
X147588844Y-101436491D01*
X147586137Y-101454212D01*
X147582384Y-101470519D01*
X147577624Y-101485469D01*
X147571894Y-101499120D01*
X147565234Y-101511532D01*
X147557683Y-101522761D01*
X147549279Y-101532867D01*
X147540062Y-101541906D01*
X147530069Y-101549938D01*
X147519339Y-101557021D01*
X147507913Y-101563212D01*
X147495827Y-101568570D01*
X147483121Y-101573153D01*
X147469834Y-101577019D01*
X147456004Y-101580226D01*
X147441670Y-101582832D01*
X147426871Y-101584896D01*
X147411646Y-101586475D01*
X147380072Y-101588413D01*
X147347258Y-101589110D01*
X147313513Y-101589032D01*
X147244474Y-101588412D01*
X147183631Y-101588038D01*
X147129803Y-101586655D01*
X147082565Y-101583878D01*
X147041488Y-101579317D01*
X147023128Y-101576247D01*
X147006148Y-101572586D01*
X146990495Y-101568286D01*
X146976117Y-101563298D01*
X146962960Y-101557573D01*
X146950970Y-101551063D01*
X146940094Y-101543720D01*
X146930280Y-101535496D01*
X146921473Y-101526341D01*
X146913621Y-101516208D01*
X146906669Y-101505047D01*
X146900566Y-101492811D01*
X146895257Y-101479451D01*
X146890689Y-101464919D01*
X146886809Y-101449166D01*
X146883564Y-101432144D01*
X146878764Y-101394097D01*
X146875864Y-101350392D01*
X146874437Y-101300641D01*
X146874055Y-101244456D01*
X146874055Y-100582995D01*
X146874992Y-100549211D01*
X146877828Y-100517366D01*
X146882602Y-100487535D01*
X146885727Y-100473400D01*
X146889352Y-100459798D01*
X146893480Y-100446739D01*
X146898118Y-100434231D01*
X146903268Y-100422286D01*
X146908937Y-100410913D01*
X146915130Y-100400121D01*
X146921850Y-100389919D01*
X146929103Y-100380319D01*
X146936894Y-100371329D01*
X146945228Y-100362960D01*
X146954109Y-100355220D01*
X146963543Y-100348119D01*
X146973533Y-100341668D01*
X146984086Y-100335876D01*
X146995205Y-100330752D01*
X147006896Y-100326306D01*
X147019164Y-100322549D01*
X147032012Y-100319489D01*
X147045447Y-100317136D01*
X147059473Y-100315500D01*
X147074095Y-100314591D01*
X147089318Y-100314418D01*
X147105146Y-100314992D01*
X147121585Y-100316321D01*
X147138639Y-100318416D01*
X147153819Y-100318125D01*
X147169542Y-100317330D01*
X147202305Y-100314695D01*
X147270931Y-100308494D01*
X147288281Y-100307428D01*
X147305554Y-100306788D01*
X147322672Y-100306691D01*
X147339557Y-100307253D01*
G37*
G36*
X158518350Y-100318722D02*
G01*
X158521268Y-100319624D01*
X158524447Y-100321097D01*
X158527863Y-100323118D01*
X158531493Y-100325662D01*
X158535311Y-100328705D01*
X158539294Y-100332223D01*
X158543418Y-100336191D01*
X158551990Y-100345383D01*
X158560833Y-100356086D01*
X158569753Y-100368107D01*
X158578557Y-100381252D01*
X158587051Y-100395328D01*
X158595041Y-100410139D01*
X158598786Y-100417761D01*
X158602333Y-100425494D01*
X158605657Y-100433314D01*
X158608734Y-100441197D01*
X158611540Y-100449120D01*
X158614050Y-100457056D01*
X158616241Y-100464983D01*
X158618087Y-100472877D01*
X158619565Y-100480712D01*
X158620651Y-100488465D01*
X158621321Y-100496111D01*
X158621549Y-100503627D01*
X158622635Y-100612769D01*
X158625270Y-100721910D01*
X158631473Y-100940191D01*
X158633178Y-101049331D01*
X158632713Y-101158471D01*
X158629147Y-101267611D01*
X158621549Y-101376750D01*
X158621167Y-101384190D01*
X158620044Y-101391625D01*
X158618214Y-101399051D01*
X158615710Y-101406462D01*
X158612566Y-101413854D01*
X158608818Y-101421222D01*
X158604497Y-101428560D01*
X158599639Y-101435865D01*
X158594276Y-101443132D01*
X158588444Y-101450354D01*
X158582176Y-101457528D01*
X158575506Y-101464649D01*
X158561095Y-101478712D01*
X158545482Y-101492503D01*
X158528939Y-101505984D01*
X158511738Y-101519117D01*
X158494148Y-101531862D01*
X158476443Y-101544180D01*
X158409883Y-101588412D01*
X158394406Y-101593063D01*
X158377843Y-101597094D01*
X158360351Y-101600505D01*
X158342083Y-101603295D01*
X158323195Y-101605466D01*
X158303843Y-101607016D01*
X158284180Y-101607946D01*
X158264362Y-101608256D01*
X158244544Y-101607946D01*
X158224881Y-101607016D01*
X158205528Y-101605466D01*
X158186641Y-101603295D01*
X158168373Y-101600505D01*
X158150880Y-101597094D01*
X158134318Y-101593063D01*
X158118841Y-101588412D01*
X158103383Y-101582547D01*
X158086956Y-101574976D01*
X158069831Y-101565855D01*
X158052280Y-101555339D01*
X158034575Y-101543582D01*
X158016985Y-101530741D01*
X157999783Y-101516969D01*
X157983240Y-101502422D01*
X157967627Y-101487255D01*
X157953215Y-101471624D01*
X157940277Y-101455682D01*
X157929082Y-101439585D01*
X157924223Y-101431527D01*
X157919903Y-101423488D01*
X157916154Y-101415489D01*
X157913010Y-101407547D01*
X157910506Y-101399683D01*
X157908676Y-101391916D01*
X157907553Y-101384265D01*
X157907171Y-101376750D01*
X157933637Y-100397784D01*
X158011823Y-100379181D01*
X158087839Y-100363058D01*
X158161995Y-100349417D01*
X158234600Y-100338256D01*
X158305964Y-100329575D01*
X158376399Y-100323375D01*
X158446214Y-100319656D01*
X158515718Y-100318416D01*
X158518350Y-100318722D01*
G37*
G36*
X126311047Y-101537899D02*
G01*
X126310432Y-101538193D01*
X126309960Y-101535950D01*
X126310970Y-101535798D01*
X126313450Y-101535571D01*
X126315931Y-101535495D01*
X126311047Y-101537899D01*
G37*
G36*
X145842180Y-101667781D02*
G01*
X145827594Y-101667477D01*
X145813551Y-101666593D01*
X145799973Y-101665165D01*
X145786782Y-101663234D01*
X145773902Y-101660838D01*
X145761254Y-101658016D01*
X145748762Y-101654807D01*
X145736347Y-101651248D01*
X145711439Y-101643239D01*
X145685911Y-101634300D01*
X145659143Y-101624741D01*
X145630514Y-101614871D01*
X145640739Y-101604949D01*
X145651545Y-101595027D01*
X145662894Y-101585105D01*
X145674747Y-101575183D01*
X145687065Y-101565261D01*
X145699810Y-101555339D01*
X145701619Y-101553990D01*
X145711439Y-101547489D01*
X145723932Y-101538497D01*
X145736347Y-101528885D01*
X145740462Y-101525493D01*
X145754277Y-101515651D01*
X145783061Y-101495807D01*
X145842180Y-101456119D01*
X145842180Y-101667781D01*
G37*
G36*
X154712754Y-99445924D02*
G01*
X154743805Y-99447920D01*
X154772453Y-99451389D01*
X154798737Y-99456447D01*
X154811005Y-99459608D01*
X154822696Y-99463210D01*
X154833815Y-99467267D01*
X154844368Y-99471795D01*
X154854358Y-99476807D01*
X154863792Y-99482317D01*
X154872673Y-99488342D01*
X154881006Y-99494894D01*
X154888797Y-99501989D01*
X154896051Y-99509641D01*
X154902771Y-99517865D01*
X154908963Y-99526675D01*
X154914632Y-99536085D01*
X154919783Y-99546111D01*
X154924420Y-99556767D01*
X154928549Y-99568067D01*
X154932174Y-99580026D01*
X154935299Y-99592658D01*
X154937931Y-99605978D01*
X154940073Y-99620000D01*
X154941731Y-99634740D01*
X154942909Y-99650211D01*
X154943845Y-99683406D01*
X154947187Y-99760132D01*
X154947327Y-99836466D01*
X154938212Y-99987627D01*
X154916927Y-100136229D01*
X154883899Y-100281615D01*
X154839555Y-100423124D01*
X154784319Y-100560099D01*
X154718619Y-100691881D01*
X154642880Y-100817810D01*
X154557530Y-100937228D01*
X154462995Y-101049476D01*
X154359700Y-101153894D01*
X154248072Y-101249826D01*
X154128538Y-101336610D01*
X154001523Y-101413589D01*
X153935344Y-101448195D01*
X153867455Y-101480103D01*
X153797908Y-101509231D01*
X153726759Y-101535495D01*
X153646693Y-101562727D01*
X153574883Y-101584689D01*
X153510902Y-101601070D01*
X153481714Y-101607071D01*
X153454323Y-101611561D01*
X153428676Y-101614500D01*
X153404720Y-101615850D01*
X153382402Y-101615572D01*
X153361668Y-101613628D01*
X153342464Y-101609978D01*
X153324739Y-101604585D01*
X153308437Y-101597408D01*
X153293507Y-101588410D01*
X153279894Y-101577552D01*
X153267546Y-101564795D01*
X153256409Y-101550099D01*
X153246430Y-101533428D01*
X153237555Y-101514740D01*
X153229732Y-101493999D01*
X153222906Y-101471165D01*
X153217026Y-101446199D01*
X153212036Y-101419062D01*
X153207885Y-101389717D01*
X153201884Y-101324243D01*
X153198596Y-101249468D01*
X153197595Y-101165080D01*
X153197828Y-101148100D01*
X153198525Y-101131871D01*
X153199688Y-101116369D01*
X153201316Y-101101569D01*
X153203409Y-101087447D01*
X153205967Y-101073980D01*
X153208990Y-101061142D01*
X153212478Y-101048910D01*
X153216431Y-101037259D01*
X153220850Y-101026165D01*
X153225733Y-101015604D01*
X153231082Y-101005552D01*
X153236895Y-100995985D01*
X153243174Y-100986878D01*
X153249918Y-100978206D01*
X153257127Y-100969947D01*
X153264801Y-100962075D01*
X153272940Y-100954566D01*
X153281544Y-100947397D01*
X153290613Y-100940542D01*
X153300148Y-100933979D01*
X153310147Y-100927681D01*
X153331541Y-100915789D01*
X153354795Y-100904672D01*
X153379910Y-100894136D01*
X153406885Y-100883988D01*
X153435720Y-100874034D01*
X153498972Y-100852930D01*
X153559744Y-100829230D01*
X153618035Y-100802816D01*
X153673845Y-100773574D01*
X153727175Y-100741385D01*
X153778025Y-100706135D01*
X153826394Y-100667707D01*
X153872282Y-100625984D01*
X153915690Y-100580851D01*
X153956618Y-100532191D01*
X153995065Y-100479888D01*
X154031032Y-100423825D01*
X154064518Y-100363887D01*
X154095524Y-100299957D01*
X154124049Y-100231918D01*
X154150095Y-100159656D01*
X153197591Y-100159656D01*
X153173478Y-100159270D01*
X153150721Y-100158118D01*
X153129281Y-100156211D01*
X153109121Y-100153558D01*
X153090201Y-100150168D01*
X153072483Y-100146052D01*
X153055927Y-100141218D01*
X153040495Y-100135677D01*
X153026148Y-100129439D01*
X153012848Y-100122513D01*
X153000555Y-100114908D01*
X152989232Y-100106635D01*
X152978838Y-100097703D01*
X152969336Y-100088122D01*
X152960687Y-100077901D01*
X152952851Y-100067051D01*
X152945791Y-100055580D01*
X152939467Y-100043499D01*
X152933841Y-100030818D01*
X152928873Y-100017545D01*
X152924526Y-100003691D01*
X152920760Y-99989265D01*
X152917537Y-99974278D01*
X152914817Y-99958738D01*
X152910735Y-99926040D01*
X152908203Y-99891249D01*
X152906911Y-99854443D01*
X152906549Y-99815700D01*
X152906911Y-99759216D01*
X152908203Y-99708625D01*
X152910735Y-99663614D01*
X152914817Y-99623875D01*
X152920760Y-99589097D01*
X152924526Y-99573471D01*
X152928873Y-99558969D01*
X152933841Y-99545553D01*
X152939467Y-99533183D01*
X152945791Y-99521821D01*
X152952851Y-99511428D01*
X152960687Y-99501965D01*
X152969336Y-99493393D01*
X152978838Y-99485674D01*
X152989232Y-99478769D01*
X153000555Y-99472639D01*
X153012848Y-99467246D01*
X153026148Y-99462550D01*
X153040495Y-99458513D01*
X153055927Y-99455096D01*
X153072483Y-99452261D01*
X153109121Y-99448178D01*
X153150721Y-99445956D01*
X153197591Y-99445285D01*
X154679262Y-99445285D01*
X154712754Y-99445924D01*
G37*
G36*
X137496000Y-100318648D02*
G01*
X137510185Y-100319346D01*
X137523905Y-100320508D01*
X137537160Y-100322136D01*
X137549950Y-100324229D01*
X137562274Y-100326787D01*
X137574134Y-100329809D01*
X137585529Y-100333297D01*
X137596458Y-100337251D01*
X137606923Y-100341669D01*
X137616922Y-100346552D01*
X137626456Y-100351900D01*
X137635525Y-100357713D01*
X137644130Y-100363992D01*
X137652269Y-100370735D01*
X137659943Y-100377944D01*
X137667152Y-100385618D01*
X137673895Y-100393756D01*
X137680174Y-100402360D01*
X137685988Y-100411429D01*
X137691336Y-100420963D01*
X137696220Y-100430963D01*
X137700638Y-100441427D01*
X137704591Y-100452357D01*
X137708080Y-100463751D01*
X137711103Y-100475611D01*
X137713661Y-100487936D01*
X137715754Y-100500726D01*
X137717381Y-100513981D01*
X137718544Y-100527701D01*
X137719242Y-100541886D01*
X137719474Y-100556537D01*
X137719474Y-101350291D01*
X137719241Y-101367270D01*
X137718538Y-101383494D01*
X137717360Y-101398981D01*
X137715702Y-101413751D01*
X137713560Y-101427823D01*
X137710928Y-101441217D01*
X137707803Y-101453952D01*
X137704178Y-101466047D01*
X137700049Y-101477522D01*
X137695412Y-101488397D01*
X137690262Y-101498690D01*
X137684592Y-101508421D01*
X137678400Y-101517610D01*
X137671680Y-101526275D01*
X137664426Y-101534436D01*
X137656635Y-101542113D01*
X137648302Y-101549325D01*
X137639421Y-101556091D01*
X137629987Y-101562431D01*
X137619997Y-101568364D01*
X137609444Y-101573909D01*
X137598325Y-101579086D01*
X137586634Y-101583915D01*
X137574366Y-101588413D01*
X137548082Y-101596500D01*
X137519434Y-101603502D01*
X137488383Y-101609574D01*
X137454891Y-101614871D01*
X137384436Y-101609826D01*
X137321617Y-101604277D01*
X137266006Y-101597721D01*
X137217178Y-101589653D01*
X137195174Y-101584894D01*
X137174706Y-101579569D01*
X137155721Y-101573614D01*
X137138165Y-101566967D01*
X137121984Y-101559563D01*
X137107126Y-101551341D01*
X137093538Y-101542237D01*
X137081165Y-101532188D01*
X137069956Y-101521132D01*
X137059855Y-101509005D01*
X137050811Y-101495744D01*
X137042770Y-101481287D01*
X137035678Y-101465570D01*
X137029483Y-101448531D01*
X137024130Y-101430106D01*
X137019567Y-101410232D01*
X137015741Y-101388847D01*
X137012597Y-101365888D01*
X137008147Y-101314993D01*
X137005789Y-101257045D01*
X137005098Y-101191539D01*
X137005098Y-100582995D01*
X137006035Y-100549502D01*
X137007213Y-100533674D01*
X137008870Y-100518451D01*
X137011013Y-100503829D01*
X137013644Y-100489803D01*
X137016770Y-100476368D01*
X137020394Y-100463519D01*
X137024523Y-100451251D01*
X137029160Y-100439561D01*
X137034311Y-100428441D01*
X137039980Y-100417889D01*
X137046172Y-100407899D01*
X137052893Y-100398466D01*
X137060146Y-100389585D01*
X137067937Y-100381251D01*
X137076271Y-100373460D01*
X137085152Y-100366207D01*
X137094585Y-100359487D01*
X137104576Y-100353295D01*
X137115128Y-100347626D01*
X137126248Y-100342476D01*
X137137938Y-100337839D01*
X137150206Y-100333711D01*
X137163055Y-100330086D01*
X137176490Y-100326961D01*
X137190516Y-100324330D01*
X137205138Y-100322188D01*
X137220361Y-100320530D01*
X137236189Y-100319352D01*
X137269681Y-100318416D01*
X137481350Y-100318416D01*
X137496000Y-100318648D01*
G37*
G36*
X127347876Y-99577805D02*
G01*
X127347910Y-99590911D01*
X127348633Y-99631323D01*
X127350597Y-99672974D01*
X127354421Y-99716486D01*
X127357224Y-99739133D01*
X127360725Y-99762478D01*
X127365001Y-99786598D01*
X127370130Y-99811570D01*
X127373970Y-99827987D01*
X127374264Y-99895083D01*
X127359771Y-99885161D01*
X127346062Y-99875239D01*
X127333148Y-99865317D01*
X127321038Y-99855395D01*
X127309742Y-99845473D01*
X127299269Y-99835551D01*
X127289630Y-99825628D01*
X127280834Y-99815706D01*
X127272890Y-99805784D01*
X127265809Y-99795862D01*
X127259600Y-99785939D01*
X127254272Y-99776017D01*
X127249836Y-99766095D01*
X127246301Y-99756173D01*
X127243677Y-99746250D01*
X127241973Y-99736328D01*
X127241200Y-99726406D01*
X127241366Y-99716484D01*
X127242482Y-99706562D01*
X127244557Y-99696639D01*
X127247601Y-99686717D01*
X127251624Y-99676795D01*
X127256635Y-99666873D01*
X127262644Y-99656952D01*
X127269661Y-99647030D01*
X127277695Y-99637108D01*
X127286756Y-99627186D01*
X127296854Y-99617264D01*
X127307998Y-99607343D01*
X127320198Y-99597421D01*
X127333465Y-99587500D01*
X127347807Y-99577579D01*
X127347876Y-99577805D01*
G37*
G36*
X116929528Y-97885177D02*
G01*
X116988129Y-97888059D01*
X117046110Y-97892955D01*
X117103471Y-97899944D01*
X117160212Y-97909104D01*
X117216333Y-97920512D01*
X117271833Y-97934245D01*
X117326713Y-97950381D01*
X117380974Y-97968998D01*
X117434614Y-97990173D01*
X117487634Y-98013983D01*
X117540034Y-98040506D01*
X117591813Y-98069820D01*
X117642973Y-98102002D01*
X117693513Y-98137130D01*
X117743432Y-98175281D01*
X117781810Y-98208512D01*
X117817601Y-98243629D01*
X117850853Y-98280499D01*
X117881615Y-98318992D01*
X117909935Y-98358977D01*
X117935862Y-98400324D01*
X117959444Y-98442901D01*
X117980730Y-98486578D01*
X117999768Y-98531224D01*
X118016607Y-98576709D01*
X118031294Y-98622900D01*
X118043879Y-98669668D01*
X118062934Y-98764410D01*
X118074161Y-98859889D01*
X118077947Y-98955058D01*
X118074678Y-99048870D01*
X118064743Y-99140279D01*
X118048530Y-99228239D01*
X118026425Y-99311702D01*
X117998817Y-99389624D01*
X117966093Y-99460956D01*
X117928640Y-99524653D01*
X117918667Y-99544500D01*
X117908383Y-99564345D01*
X117897479Y-99584189D01*
X117891698Y-99594111D01*
X117885646Y-99604032D01*
X117879283Y-99613954D01*
X117872571Y-99623876D01*
X117865472Y-99633797D01*
X117857947Y-99643719D01*
X117849957Y-99653640D01*
X117841462Y-99663562D01*
X117832426Y-99673484D01*
X117822807Y-99683406D01*
X117880756Y-99738306D01*
X117935410Y-99793943D01*
X117986576Y-99850432D01*
X118034061Y-99907890D01*
X118077669Y-99966434D01*
X118117208Y-100026178D01*
X118152484Y-100087240D01*
X118183302Y-100149736D01*
X118196979Y-100181559D01*
X118209470Y-100213783D01*
X118220749Y-100246424D01*
X118230793Y-100279496D01*
X118239577Y-100313013D01*
X118247077Y-100346991D01*
X118253269Y-100381444D01*
X118258129Y-100416386D01*
X118261633Y-100451832D01*
X118263756Y-100487796D01*
X118264474Y-100524293D01*
X118263762Y-100561338D01*
X118261597Y-100598944D01*
X118257955Y-100637127D01*
X118252811Y-100675902D01*
X118246141Y-100715281D01*
X118235297Y-100763969D01*
X118222641Y-100810839D01*
X118208221Y-100855936D01*
X118192087Y-100899304D01*
X118174286Y-100940985D01*
X118154867Y-100981024D01*
X118133878Y-101019465D01*
X118111368Y-101056350D01*
X118087386Y-101091724D01*
X118061978Y-101125629D01*
X118035196Y-101158110D01*
X118007085Y-101189211D01*
X117977696Y-101218974D01*
X117947076Y-101247444D01*
X117915274Y-101274664D01*
X117882338Y-101300677D01*
X117848317Y-101325528D01*
X117813260Y-101349260D01*
X117740228Y-101393540D01*
X117663631Y-101433867D01*
X117583855Y-101470589D01*
X117501289Y-101504056D01*
X117416320Y-101534617D01*
X117329336Y-101562619D01*
X117240724Y-101588412D01*
X115468016Y-101588412D01*
X115416488Y-101587747D01*
X115370812Y-101585570D01*
X115330640Y-101581610D01*
X115312509Y-101578877D01*
X115295623Y-101575596D01*
X115279938Y-101571734D01*
X115265412Y-101567257D01*
X115251999Y-101562131D01*
X115239657Y-101556321D01*
X115228343Y-101549795D01*
X115218011Y-101542517D01*
X115208620Y-101534455D01*
X115200125Y-101525574D01*
X115192482Y-101515840D01*
X115185649Y-101505220D01*
X115179581Y-101493679D01*
X115174235Y-101481184D01*
X115169567Y-101467700D01*
X115165534Y-101453195D01*
X115162092Y-101437633D01*
X115159197Y-101420981D01*
X115154876Y-101384272D01*
X115152221Y-101342796D01*
X115150884Y-101296281D01*
X115150516Y-101244456D01*
X115150884Y-101187973D01*
X115152221Y-101137381D01*
X115154876Y-101092371D01*
X115159197Y-101052632D01*
X115162092Y-101034642D01*
X115165534Y-101017853D01*
X115169567Y-101002228D01*
X115174235Y-100987726D01*
X115179581Y-100974310D01*
X115185649Y-100961940D01*
X115192483Y-100950578D01*
X115200125Y-100940185D01*
X115208620Y-100930721D01*
X115218012Y-100922150D01*
X115228343Y-100914431D01*
X115239657Y-100907526D01*
X115251999Y-100901396D01*
X115265412Y-100896003D01*
X115279938Y-100891307D01*
X115295623Y-100887270D01*
X115312509Y-100883853D01*
X115330640Y-100881017D01*
X115370812Y-100876935D01*
X115416488Y-100874713D01*
X115468016Y-100874042D01*
X116843849Y-100874042D01*
X116938933Y-100873628D01*
X116984305Y-100872646D01*
X117029057Y-100870734D01*
X117073809Y-100867582D01*
X117119181Y-100862879D01*
X117165793Y-100856316D01*
X117214265Y-100847583D01*
X117243695Y-100841692D01*
X117272350Y-100833940D01*
X117300074Y-100824328D01*
X117326713Y-100812856D01*
X117352112Y-100799523D01*
X117364298Y-100792159D01*
X117376116Y-100784330D01*
X117387546Y-100776036D01*
X117398570Y-100767276D01*
X117409166Y-100758052D01*
X117419318Y-100748363D01*
X117429004Y-100738208D01*
X117438205Y-100727588D01*
X117446903Y-100716504D01*
X117455078Y-100704954D01*
X117462710Y-100692939D01*
X117469780Y-100680459D01*
X117476268Y-100667513D01*
X117482156Y-100654103D01*
X117487424Y-100640228D01*
X117492052Y-100625887D01*
X117496022Y-100611082D01*
X117499313Y-100595811D01*
X117501906Y-100580076D01*
X117503783Y-100563875D01*
X117504923Y-100547209D01*
X117505307Y-100530078D01*
X117507403Y-100512869D01*
X117508737Y-100495971D01*
X117509326Y-100479383D01*
X117509183Y-100463104D01*
X117508323Y-100447136D01*
X117506761Y-100431478D01*
X117504510Y-100416130D01*
X117501587Y-100401092D01*
X117498004Y-100386364D01*
X117493777Y-100371946D01*
X117488920Y-100357838D01*
X117483448Y-100344040D01*
X117477375Y-100330553D01*
X117470716Y-100317375D01*
X117463486Y-100304508D01*
X117455698Y-100291950D01*
X117438509Y-100267766D01*
X117419266Y-100244822D01*
X117398085Y-100223118D01*
X117375083Y-100202654D01*
X117350375Y-100183431D01*
X117324078Y-100165449D01*
X117296309Y-100148706D01*
X117267182Y-100133204D01*
X117242371Y-100123890D01*
X117217521Y-100115738D01*
X117192594Y-100108671D01*
X117167550Y-100102612D01*
X117142351Y-100097483D01*
X117116959Y-100093206D01*
X117091334Y-100089705D01*
X117065437Y-100086902D01*
X117039231Y-100084718D01*
X117012676Y-100083077D01*
X116958364Y-100081114D01*
X116902191Y-100080390D01*
X116843849Y-100080287D01*
X115441557Y-100080287D01*
X115394687Y-100079615D01*
X115353087Y-100077393D01*
X115334167Y-100075603D01*
X115316449Y-100073310D01*
X115299893Y-100070474D01*
X115284461Y-100067056D01*
X115270114Y-100063019D01*
X115256814Y-100058323D01*
X115244521Y-100052929D01*
X115233198Y-100046798D01*
X115222804Y-100039893D01*
X115213302Y-100032173D01*
X115204653Y-100023601D01*
X115196818Y-100014137D01*
X115189757Y-100003744D01*
X115183433Y-99992381D01*
X115177807Y-99980010D01*
X115172840Y-99966594D01*
X115168492Y-99952092D01*
X115164726Y-99936466D01*
X115161503Y-99919677D01*
X115158784Y-99901687D01*
X115154701Y-99861948D01*
X115152169Y-99816938D01*
X115150877Y-99766347D01*
X115150515Y-99709865D01*
X115151168Y-99671121D01*
X115153254Y-99634315D01*
X115156969Y-99599525D01*
X115162504Y-99566828D01*
X115170056Y-99536301D01*
X115174648Y-99521875D01*
X115179816Y-99508021D01*
X115185585Y-99494749D01*
X115191979Y-99482068D01*
X115199023Y-99469987D01*
X115206739Y-99458517D01*
X115215154Y-99447667D01*
X115224290Y-99437447D01*
X115234172Y-99427866D01*
X115244825Y-99418934D01*
X115256272Y-99410661D01*
X115268538Y-99403057D01*
X115281647Y-99396131D01*
X115295623Y-99389893D01*
X115310490Y-99384353D01*
X115326274Y-99379520D01*
X115342997Y-99375403D01*
X115360684Y-99372014D01*
X115379359Y-99369361D01*
X115399047Y-99367454D01*
X115419772Y-99366302D01*
X115441557Y-99365916D01*
X115798331Y-99369637D01*
X116152625Y-99375838D01*
X116328066Y-99377544D01*
X116501957Y-99377079D01*
X116673988Y-99373513D01*
X116843849Y-99365916D01*
X116873892Y-99364999D01*
X116904362Y-99362299D01*
X116935064Y-99357893D01*
X116965805Y-99351860D01*
X116996391Y-99344276D01*
X117026628Y-99335220D01*
X117056323Y-99324768D01*
X117085281Y-99312999D01*
X117113309Y-99299989D01*
X117140213Y-99285817D01*
X117165800Y-99270559D01*
X117189874Y-99254293D01*
X117212244Y-99237098D01*
X117232714Y-99219050D01*
X117251092Y-99200226D01*
X117267182Y-99180705D01*
X117283467Y-99158159D01*
X117297620Y-99135216D01*
X117309680Y-99111944D01*
X117319686Y-99088409D01*
X117327676Y-99064682D01*
X117333690Y-99040828D01*
X117337766Y-99016916D01*
X117339943Y-98993013D01*
X117340259Y-98969189D01*
X117338754Y-98945509D01*
X117335466Y-98922043D01*
X117330434Y-98898857D01*
X117323697Y-98876021D01*
X117315293Y-98853601D01*
X117305261Y-98831666D01*
X117293641Y-98810283D01*
X117280470Y-98789520D01*
X117265787Y-98769445D01*
X117249632Y-98750126D01*
X117232042Y-98731630D01*
X117213058Y-98714026D01*
X117192717Y-98697381D01*
X117171058Y-98681763D01*
X117148120Y-98667240D01*
X117123942Y-98653880D01*
X117098562Y-98641750D01*
X117072020Y-98630919D01*
X117044354Y-98621454D01*
X117015602Y-98613423D01*
X116985804Y-98606894D01*
X116954999Y-98601935D01*
X116923224Y-98598613D01*
X116745767Y-98591016D01*
X116570171Y-98587450D01*
X116395814Y-98586985D01*
X116222078Y-98588691D01*
X115873986Y-98594892D01*
X115520933Y-98598613D01*
X115489158Y-98597769D01*
X115458352Y-98595273D01*
X115428554Y-98591179D01*
X115399803Y-98585539D01*
X115372137Y-98578407D01*
X115345594Y-98569836D01*
X115320215Y-98559879D01*
X115296037Y-98548590D01*
X115273099Y-98536023D01*
X115251440Y-98522229D01*
X115231099Y-98507263D01*
X115212114Y-98491178D01*
X115194525Y-98474027D01*
X115178369Y-98455864D01*
X115163687Y-98436741D01*
X115150516Y-98416713D01*
X115138895Y-98395831D01*
X115128863Y-98374151D01*
X115120459Y-98351724D01*
X115113722Y-98328604D01*
X115108690Y-98304845D01*
X115105402Y-98280500D01*
X115103897Y-98255622D01*
X115104214Y-98230264D01*
X115106391Y-98204480D01*
X115110467Y-98178322D01*
X115116480Y-98151845D01*
X115124471Y-98125102D01*
X115134477Y-98098145D01*
X115146537Y-98071028D01*
X115160690Y-98043805D01*
X115176974Y-98016528D01*
X115182241Y-98009316D01*
X115188104Y-98002544D01*
X115194538Y-97996189D01*
X115201520Y-97990227D01*
X115209026Y-97984633D01*
X115217030Y-97979382D01*
X115225509Y-97974451D01*
X115234438Y-97969816D01*
X115253552Y-97961335D01*
X115274177Y-97953746D01*
X115296121Y-97946853D01*
X115319188Y-97940465D01*
X115418820Y-97916072D01*
X115444600Y-97909295D01*
X115470341Y-97901859D01*
X115495850Y-97893570D01*
X115520933Y-97884234D01*
X116870307Y-97884234D01*
X116929528Y-97885177D01*
G37*
G36*
X174786305Y-97885017D02*
G01*
X174839305Y-97886858D01*
X174884748Y-97890443D01*
X174904817Y-97893072D01*
X174923214Y-97896354D01*
X174940013Y-97900363D01*
X174955286Y-97905171D01*
X174969105Y-97910852D01*
X174981544Y-97917477D01*
X174992675Y-97925120D01*
X175002570Y-97933852D01*
X175011302Y-97943748D01*
X175018945Y-97954878D01*
X175025570Y-97967317D01*
X175031250Y-97981137D01*
X175036058Y-97996410D01*
X175040067Y-98013209D01*
X175043350Y-98031607D01*
X175045978Y-98051676D01*
X175049563Y-98097120D01*
X175051404Y-98150121D01*
X175052179Y-98281123D01*
X175052179Y-99021953D01*
X175034663Y-99040879D01*
X175016852Y-99058022D01*
X174998759Y-99073460D01*
X174980401Y-99087270D01*
X174961790Y-99099530D01*
X174942942Y-99110317D01*
X174923871Y-99119709D01*
X174904592Y-99127783D01*
X174885119Y-99134617D01*
X174865466Y-99140288D01*
X174845649Y-99144874D01*
X174825682Y-99148453D01*
X174805579Y-99151101D01*
X174785355Y-99152896D01*
X174744602Y-99154240D01*
X174417181Y-99127780D01*
X174412222Y-99127398D01*
X174407272Y-99126275D01*
X174402342Y-99124445D01*
X174397441Y-99121941D01*
X174392579Y-99118797D01*
X174387765Y-99115049D01*
X174383009Y-99110728D01*
X174378322Y-99105870D01*
X174373711Y-99100508D01*
X174369188Y-99094676D01*
X174364762Y-99088408D01*
X174360442Y-99081738D01*
X174356238Y-99074700D01*
X174352161Y-99067327D01*
X174344422Y-99051715D01*
X174337304Y-99035172D01*
X174330883Y-99017971D01*
X174325238Y-99000382D01*
X174320445Y-98982677D01*
X174316582Y-98965126D01*
X174313727Y-98948002D01*
X174311957Y-98931576D01*
X174311503Y-98923708D01*
X174311349Y-98916118D01*
X174306989Y-98866509D01*
X174303753Y-98816900D01*
X174300187Y-98717682D01*
X174299722Y-98618463D01*
X174301427Y-98519244D01*
X174307629Y-98320807D01*
X174310264Y-98221588D01*
X174311349Y-98122371D01*
X174311582Y-98107720D01*
X174312280Y-98093535D01*
X174313442Y-98079814D01*
X174315070Y-98066559D01*
X174317163Y-98053769D01*
X174319721Y-98041444D01*
X174322744Y-98029584D01*
X174326232Y-98018189D01*
X174330186Y-98007260D01*
X174334604Y-97996795D01*
X174339488Y-97986795D01*
X174344836Y-97977261D01*
X174350650Y-97968192D01*
X174356928Y-97959587D01*
X174363672Y-97951448D01*
X174370881Y-97943774D01*
X174378555Y-97936565D01*
X174386694Y-97929821D01*
X174395298Y-97923543D01*
X174404368Y-97917729D01*
X174413902Y-97912380D01*
X174423901Y-97907497D01*
X174434366Y-97903078D01*
X174445295Y-97899125D01*
X174456690Y-97895637D01*
X174468550Y-97892614D01*
X174480874Y-97890056D01*
X174493664Y-97887963D01*
X174506919Y-97886335D01*
X174520639Y-97885172D01*
X174534824Y-97884475D01*
X174549474Y-97884242D01*
X174655305Y-97884242D01*
X174786305Y-97885017D01*
G37*
G36*
X164758500Y-99366304D02*
G01*
X164804175Y-99367777D01*
X164844347Y-99370800D01*
X164862478Y-99373038D01*
X164879364Y-99375838D01*
X164895049Y-99379258D01*
X164909575Y-99383357D01*
X164922988Y-99388192D01*
X164935329Y-99393821D01*
X164946644Y-99400304D01*
X164956975Y-99407697D01*
X164966366Y-99416058D01*
X164974861Y-99425447D01*
X164982504Y-99435922D01*
X164989337Y-99447539D01*
X164995405Y-99460358D01*
X165000751Y-99474437D01*
X165005418Y-99489833D01*
X165009451Y-99506605D01*
X165012893Y-99524811D01*
X165015788Y-99544509D01*
X165020109Y-99588615D01*
X165022764Y-99639387D01*
X165024101Y-99697290D01*
X165024469Y-99762790D01*
X165024094Y-99818976D01*
X165022712Y-99868728D01*
X165019934Y-99912433D01*
X165015374Y-99950480D01*
X165012304Y-99967503D01*
X165008643Y-99983256D01*
X165004343Y-99997788D01*
X164999354Y-100011148D01*
X164993630Y-100023384D01*
X164987120Y-100034544D01*
X164979777Y-100044677D01*
X164971552Y-100053832D01*
X164962398Y-100062056D01*
X164952264Y-100069399D01*
X164941104Y-100075908D01*
X164928868Y-100081633D01*
X164915508Y-100086621D01*
X164900976Y-100090921D01*
X164885223Y-100094582D01*
X164868200Y-100097652D01*
X164830154Y-100102212D01*
X164786449Y-100104989D01*
X164736698Y-100106371D01*
X164680513Y-100106746D01*
X162722597Y-100106746D01*
X162671069Y-100106365D01*
X162625393Y-100104937D01*
X162585221Y-100102037D01*
X162567090Y-100099901D01*
X162550204Y-100097237D01*
X162534519Y-100093992D01*
X162519992Y-100090112D01*
X162506580Y-100085545D01*
X162494238Y-100080236D01*
X162482923Y-100074132D01*
X162472592Y-100067181D01*
X162463200Y-100059329D01*
X162454705Y-100050522D01*
X162447063Y-100040707D01*
X162440229Y-100029832D01*
X162434161Y-100017842D01*
X162428815Y-100004685D01*
X162424147Y-99990307D01*
X162420114Y-99974655D01*
X162416672Y-99957675D01*
X162413777Y-99939315D01*
X162409456Y-99898239D01*
X162406801Y-99851000D01*
X162405464Y-99797173D01*
X162405096Y-99736331D01*
X162405464Y-99675489D01*
X162406801Y-99621662D01*
X162409456Y-99574423D01*
X162413778Y-99533347D01*
X162416673Y-99514987D01*
X162420115Y-99498007D01*
X162424148Y-99482355D01*
X162428816Y-99467977D01*
X162434163Y-99454820D01*
X162440231Y-99442830D01*
X162447064Y-99431955D01*
X162454707Y-99422140D01*
X162463202Y-99413333D01*
X162472593Y-99405481D01*
X162482925Y-99398530D01*
X162494240Y-99392426D01*
X162506581Y-99387117D01*
X162519994Y-99382550D01*
X162534521Y-99378670D01*
X162550205Y-99375425D01*
X162585222Y-99370625D01*
X162625394Y-99367725D01*
X162671069Y-99366297D01*
X162722597Y-99365916D01*
X164706972Y-99365916D01*
X164758500Y-99366304D01*
G37*
G36*
X172068604Y-97832555D02*
G01*
X172126910Y-97836208D01*
X172184335Y-97842225D01*
X172240824Y-97850548D01*
X172296326Y-97861119D01*
X172350785Y-97873880D01*
X172404150Y-97888772D01*
X172456366Y-97905738D01*
X172507381Y-97924720D01*
X172557142Y-97945658D01*
X172652685Y-97993175D01*
X172742570Y-98047823D01*
X172826369Y-98109137D01*
X172903658Y-98176652D01*
X172974009Y-98249903D01*
X173036996Y-98328425D01*
X173065595Y-98369518D01*
X173092193Y-98411753D01*
X173116737Y-98455075D01*
X173139174Y-98499423D01*
X173159449Y-98544740D01*
X173177511Y-98590967D01*
X173193306Y-98638048D01*
X173206780Y-98685923D01*
X173217880Y-98734534D01*
X173226553Y-98783824D01*
X173242953Y-98904205D01*
X173252338Y-99017609D01*
X173254515Y-99124502D01*
X173249289Y-99225349D01*
X173243840Y-99273650D01*
X173236467Y-99320614D01*
X173227146Y-99366299D01*
X173215854Y-99410764D01*
X173202566Y-99454066D01*
X173187258Y-99496263D01*
X173169905Y-99537413D01*
X173150484Y-99577576D01*
X173128969Y-99616808D01*
X173105338Y-99655168D01*
X173079565Y-99692714D01*
X173051627Y-99729505D01*
X173021499Y-99765598D01*
X172989157Y-99801051D01*
X172917734Y-99870272D01*
X172837164Y-99937633D01*
X172747254Y-100003598D01*
X172647809Y-100068634D01*
X172538637Y-100133204D01*
X173200094Y-101138614D01*
X173210286Y-101154672D01*
X173220867Y-101172824D01*
X173231602Y-101192681D01*
X173242260Y-101213856D01*
X173252608Y-101235961D01*
X173262414Y-101258608D01*
X173271444Y-101281411D01*
X173279467Y-101303981D01*
X173286250Y-101325931D01*
X173291560Y-101346873D01*
X173295164Y-101366420D01*
X173296831Y-101384184D01*
X173296866Y-101392276D01*
X173296328Y-101399777D01*
X173295190Y-101406639D01*
X173293422Y-101412813D01*
X173290995Y-101418250D01*
X173287880Y-101422903D01*
X173284048Y-101426722D01*
X173279470Y-101429660D01*
X173274204Y-101436947D01*
X173268347Y-101443934D01*
X173261927Y-101450631D01*
X173254975Y-101457047D01*
X173247519Y-101463191D01*
X173239588Y-101469074D01*
X173231212Y-101474705D01*
X173222418Y-101480094D01*
X173203698Y-101490183D01*
X173183661Y-101499421D01*
X173162538Y-101507883D01*
X173140562Y-101515648D01*
X173117966Y-101522793D01*
X173094983Y-101529395D01*
X173048784Y-101541282D01*
X172961969Y-101561954D01*
X172932665Y-101568701D01*
X172904266Y-101574077D01*
X172876750Y-101578107D01*
X172850090Y-101580813D01*
X172824264Y-101582222D01*
X172799247Y-101582357D01*
X172775015Y-101581242D01*
X172751544Y-101578901D01*
X172728809Y-101575358D01*
X172706786Y-101570639D01*
X172685451Y-101564766D01*
X172664779Y-101557765D01*
X172644747Y-101549659D01*
X172625331Y-101540473D01*
X172606505Y-101530230D01*
X172588246Y-101518956D01*
X172570530Y-101506674D01*
X172553333Y-101493409D01*
X172536629Y-101479185D01*
X172520395Y-101464025D01*
X172489241Y-101430998D01*
X172459675Y-101394521D01*
X172431505Y-101354789D01*
X172404537Y-101311996D01*
X172378576Y-101266334D01*
X172353429Y-101217998D01*
X172115305Y-100821124D01*
X172094692Y-100765841D01*
X172072568Y-100714031D01*
X172048971Y-100665603D01*
X172023941Y-100620464D01*
X171997515Y-100578523D01*
X171969732Y-100539687D01*
X171940632Y-100503865D01*
X171910252Y-100470964D01*
X171878633Y-100440892D01*
X171845811Y-100413557D01*
X171811828Y-100388868D01*
X171776720Y-100366732D01*
X171740527Y-100347057D01*
X171703287Y-100329751D01*
X171665040Y-100314722D01*
X171625824Y-100301878D01*
X171585678Y-100291127D01*
X171544640Y-100282377D01*
X171502750Y-100275535D01*
X171460045Y-100270510D01*
X171416566Y-100267210D01*
X171372350Y-100265543D01*
X171327437Y-100265416D01*
X171281864Y-100266738D01*
X171188898Y-100273359D01*
X171093762Y-100284670D01*
X170996765Y-100299935D01*
X170898218Y-100318416D01*
X170898218Y-101270915D01*
X170897268Y-101309646D01*
X170894342Y-101346361D01*
X170889323Y-101380906D01*
X170882095Y-101413126D01*
X170877616Y-101428316D01*
X170872542Y-101442866D01*
X170866857Y-101456757D01*
X170860546Y-101469970D01*
X170853597Y-101482486D01*
X170845993Y-101494284D01*
X170837721Y-101505346D01*
X170828766Y-101515653D01*
X170819113Y-101525184D01*
X170808748Y-101533921D01*
X170797656Y-101541844D01*
X170785823Y-101548933D01*
X170773235Y-101555170D01*
X170759876Y-101560535D01*
X170745732Y-101565009D01*
X170730788Y-101568572D01*
X170715031Y-101571204D01*
X170698446Y-101572887D01*
X170681017Y-101573602D01*
X170662731Y-101573328D01*
X170643573Y-101572046D01*
X170623528Y-101569737D01*
X170602582Y-101566382D01*
X170580720Y-101561961D01*
X170567942Y-101559930D01*
X170554456Y-101558731D01*
X170525633Y-101558447D01*
X170494795Y-101560333D01*
X170462484Y-101563614D01*
X170395615Y-101571261D01*
X170362142Y-101574077D01*
X170329366Y-101575188D01*
X170297830Y-101573818D01*
X170282697Y-101571961D01*
X170268078Y-101569193D01*
X170254039Y-101565417D01*
X170240650Y-101560537D01*
X170227978Y-101554455D01*
X170216091Y-101547075D01*
X170205056Y-101538300D01*
X170194942Y-101528032D01*
X170185816Y-101516176D01*
X170177746Y-101502633D01*
X170170800Y-101487308D01*
X170165046Y-101470104D01*
X170160552Y-101450922D01*
X170157384Y-101429667D01*
X170148703Y-101220171D01*
X170142501Y-101008815D01*
X170138781Y-100796219D01*
X170137540Y-100583003D01*
X170138781Y-100369787D01*
X170142501Y-100157191D01*
X170148703Y-99945835D01*
X170157384Y-99736339D01*
X170157843Y-99731227D01*
X170159193Y-99725834D01*
X170161396Y-99720189D01*
X170164413Y-99714322D01*
X170168204Y-99708261D01*
X170172733Y-99702035D01*
X170177958Y-99695674D01*
X170183843Y-99689206D01*
X170190348Y-99682660D01*
X170197434Y-99676067D01*
X170205063Y-99669454D01*
X170213196Y-99662850D01*
X170230817Y-99649789D01*
X170249990Y-99637115D01*
X170270402Y-99625062D01*
X170291744Y-99613862D01*
X170302667Y-99608654D01*
X170313707Y-99603746D01*
X170324824Y-99599168D01*
X170335979Y-99594949D01*
X170347135Y-99591117D01*
X170358252Y-99587701D01*
X170369291Y-99584732D01*
X170380214Y-99582237D01*
X170390982Y-99580246D01*
X170401556Y-99578788D01*
X170411898Y-99577891D01*
X170421968Y-99577586D01*
X170571934Y-99569990D01*
X170723760Y-99566424D01*
X170876826Y-99565959D01*
X171030511Y-99567664D01*
X171337263Y-99573865D01*
X171639055Y-99577586D01*
X171956552Y-99577586D01*
X172014527Y-99571081D01*
X172069362Y-99561515D01*
X172121019Y-99548925D01*
X172169459Y-99533350D01*
X172214644Y-99514831D01*
X172236003Y-99504478D01*
X172256534Y-99493404D01*
X172276232Y-99481613D01*
X172295091Y-99469109D01*
X172313108Y-99455898D01*
X172330277Y-99441985D01*
X172346593Y-99427374D01*
X172362051Y-99412070D01*
X172376647Y-99396079D01*
X172390376Y-99379404D01*
X172403233Y-99362051D01*
X172415213Y-99344024D01*
X172426311Y-99325329D01*
X172436523Y-99305971D01*
X172445844Y-99285953D01*
X172454268Y-99265281D01*
X172461791Y-99243960D01*
X172468408Y-99221995D01*
X172474114Y-99199390D01*
X172478904Y-99176151D01*
X172485719Y-99127788D01*
X172489909Y-99100814D01*
X172492573Y-99074465D01*
X172493735Y-99048745D01*
X172493419Y-99023661D01*
X172491650Y-98999216D01*
X172488452Y-98975415D01*
X172483848Y-98952263D01*
X172477864Y-98929766D01*
X172470524Y-98907927D01*
X172461851Y-98886752D01*
X172451870Y-98866246D01*
X172440605Y-98846413D01*
X172428081Y-98827258D01*
X172414321Y-98808786D01*
X172399350Y-98791003D01*
X172383193Y-98773911D01*
X172365872Y-98757518D01*
X172347413Y-98741827D01*
X172327840Y-98726843D01*
X172307176Y-98712572D01*
X172285447Y-98699017D01*
X172262676Y-98686184D01*
X172238888Y-98674078D01*
X172214107Y-98662703D01*
X172188357Y-98652065D01*
X172161662Y-98642168D01*
X172134047Y-98633017D01*
X172105535Y-98624616D01*
X172045920Y-98610088D01*
X171983011Y-98598620D01*
X171958194Y-98593963D01*
X171933299Y-98589887D01*
X171908249Y-98586353D01*
X171882967Y-98583324D01*
X171831394Y-98578621D01*
X171777961Y-98575469D01*
X171722047Y-98573557D01*
X171663032Y-98572575D01*
X171533220Y-98572162D01*
X170448427Y-98572162D01*
X170409986Y-98571509D01*
X170374065Y-98569423D01*
X170340701Y-98565708D01*
X170309935Y-98560173D01*
X170295537Y-98556661D01*
X170281803Y-98552621D01*
X170268738Y-98548029D01*
X170256346Y-98542861D01*
X170244633Y-98537092D01*
X170233602Y-98530698D01*
X170223260Y-98523654D01*
X170213610Y-98515938D01*
X170204658Y-98507523D01*
X170196408Y-98498387D01*
X170188866Y-98488505D01*
X170182036Y-98477853D01*
X170175923Y-98466406D01*
X170170531Y-98454140D01*
X170165867Y-98441031D01*
X170161934Y-98427055D01*
X170158737Y-98412188D01*
X170156281Y-98396405D01*
X170154572Y-98379682D01*
X170153613Y-98361995D01*
X170153410Y-98343320D01*
X170153968Y-98323633D01*
X170155291Y-98302908D01*
X170157384Y-98281123D01*
X170157384Y-98148829D01*
X170155292Y-98126968D01*
X170153974Y-98106023D01*
X170153431Y-98085978D01*
X170153664Y-98066820D01*
X170154671Y-98048534D01*
X170156454Y-98031105D01*
X170159012Y-98014519D01*
X170162345Y-97998762D01*
X170166454Y-97983818D01*
X170171337Y-97969674D01*
X170176996Y-97956315D01*
X170183430Y-97943726D01*
X170190638Y-97931893D01*
X170198623Y-97920800D01*
X170207382Y-97910435D01*
X170216916Y-97900782D01*
X170227226Y-97891826D01*
X170238310Y-97883553D01*
X170250170Y-97875949D01*
X170262805Y-97868999D01*
X170276215Y-97862689D01*
X170290400Y-97857003D01*
X170305361Y-97851928D01*
X170321096Y-97847449D01*
X170337607Y-97843551D01*
X170354893Y-97840220D01*
X170372954Y-97837441D01*
X170391790Y-97835201D01*
X170431787Y-97832274D01*
X170474885Y-97831325D01*
X170664537Y-97838921D01*
X170856049Y-97842487D01*
X171048802Y-97842952D01*
X171242175Y-97841247D01*
X171628302Y-97835045D01*
X172009470Y-97831325D01*
X172068604Y-97832555D01*
G37*
G36*
X132176711Y-100045754D02*
G01*
X132236016Y-100049241D01*
X132295515Y-100053813D01*
X132310162Y-100056524D01*
X132324331Y-100059691D01*
X132338004Y-100063304D01*
X132351170Y-100067352D01*
X132363812Y-100071827D01*
X132375916Y-100076719D01*
X132387468Y-100082017D01*
X132398453Y-100087713D01*
X132408857Y-100093797D01*
X132418665Y-100100258D01*
X132427863Y-100107087D01*
X132436436Y-100114275D01*
X132444369Y-100121812D01*
X132451648Y-100129688D01*
X132458258Y-100137893D01*
X132464186Y-100146419D01*
X132469416Y-100155254D01*
X132473933Y-100164389D01*
X132477724Y-100173816D01*
X132480774Y-100183523D01*
X132483068Y-100193501D01*
X132484591Y-100203741D01*
X132485330Y-100214234D01*
X132485270Y-100224968D01*
X132484395Y-100235935D01*
X132482692Y-100247125D01*
X132480146Y-100258527D01*
X132476743Y-100270134D01*
X132472467Y-100281934D01*
X132467305Y-100293918D01*
X132461242Y-100306077D01*
X132454263Y-100318400D01*
X132404603Y-100386821D01*
X132354632Y-100454000D01*
X132252520Y-100589599D01*
X132199758Y-100660498D01*
X132145446Y-100735119D01*
X132089274Y-100814701D01*
X132030931Y-100900485D01*
X133856557Y-100900485D01*
X133885082Y-100948960D01*
X133911126Y-100995574D01*
X133934691Y-101040947D01*
X133945542Y-101063362D01*
X133955774Y-101085699D01*
X133965386Y-101108036D01*
X133974378Y-101130451D01*
X133982750Y-101153020D01*
X133990501Y-101175822D01*
X133997632Y-101198935D01*
X134004144Y-101222434D01*
X134010035Y-101246400D01*
X134015306Y-101270907D01*
X134014918Y-101297577D01*
X134013756Y-101323030D01*
X134011818Y-101347292D01*
X134009105Y-101370386D01*
X134005617Y-101392336D01*
X134001353Y-101413168D01*
X133996315Y-101432904D01*
X133990501Y-101451570D01*
X133983913Y-101469189D01*
X133976549Y-101485786D01*
X133968410Y-101501385D01*
X133959495Y-101516010D01*
X133949806Y-101529686D01*
X133939342Y-101542436D01*
X133928102Y-101554285D01*
X133916087Y-101565257D01*
X133903297Y-101575377D01*
X133889732Y-101584668D01*
X133875392Y-101593154D01*
X133860277Y-101600861D01*
X133844386Y-101607812D01*
X133827720Y-101614032D01*
X133810280Y-101619544D01*
X133792064Y-101624373D01*
X133773073Y-101628543D01*
X133753306Y-101632079D01*
X133711448Y-101637343D01*
X133666490Y-101640360D01*
X133618431Y-101641322D01*
X133320775Y-101633726D01*
X133023119Y-101630160D01*
X132427806Y-101631400D01*
X131237182Y-101641322D01*
X131194672Y-101640379D01*
X131156308Y-101637498D01*
X131138621Y-101635307D01*
X131121898Y-101632602D01*
X131106115Y-101629374D01*
X131091247Y-101625613D01*
X131077271Y-101621310D01*
X131064162Y-101616454D01*
X131051896Y-101611036D01*
X131040449Y-101605047D01*
X131029796Y-101598476D01*
X131019914Y-101591315D01*
X131010778Y-101583552D01*
X131002364Y-101575179D01*
X130994647Y-101566186D01*
X130987603Y-101556563D01*
X130981209Y-101546301D01*
X130975440Y-101535389D01*
X130970272Y-101523818D01*
X130965680Y-101511579D01*
X130961640Y-101498662D01*
X130958129Y-101485057D01*
X130955121Y-101470754D01*
X130952593Y-101455743D01*
X130948879Y-101423562D01*
X130946792Y-101388434D01*
X130946140Y-101350284D01*
X130946799Y-101296042D01*
X130948930Y-101242537D01*
X130952767Y-101189884D01*
X130958542Y-101138200D01*
X130966487Y-101087602D01*
X130976835Y-101038205D01*
X130989819Y-100990126D01*
X131005671Y-100943481D01*
X131024623Y-100898387D01*
X131046908Y-100854959D01*
X131072759Y-100813314D01*
X131102409Y-100773569D01*
X131118730Y-100754445D01*
X131136089Y-100735839D01*
X131154513Y-100717766D01*
X131174032Y-100700241D01*
X131194675Y-100683278D01*
X131216471Y-100666891D01*
X131239450Y-100651095D01*
X131263639Y-100635905D01*
X131273407Y-100630790D01*
X131282876Y-100625375D01*
X131292053Y-100619669D01*
X131300949Y-100613682D01*
X131309575Y-100607424D01*
X131317938Y-100600904D01*
X131326050Y-100594132D01*
X131333919Y-100587119D01*
X131348970Y-100572403D01*
X131363168Y-100556836D01*
X131376591Y-100540493D01*
X131389316Y-100523453D01*
X131401422Y-100505792D01*
X131412984Y-100487590D01*
X131424082Y-100468922D01*
X131434792Y-100449866D01*
X131455360Y-100410902D01*
X131475307Y-100371318D01*
X131493054Y-100340070D01*
X131511551Y-100310779D01*
X131530776Y-100283388D01*
X131550703Y-100257837D01*
X131571308Y-100234069D01*
X131592567Y-100212026D01*
X131614456Y-100191650D01*
X131636951Y-100172882D01*
X131660026Y-100155664D01*
X131683660Y-100139938D01*
X131707825Y-100125646D01*
X131732500Y-100112730D01*
X131757659Y-100101132D01*
X131783279Y-100090794D01*
X131809334Y-100081657D01*
X131835801Y-100073663D01*
X131862656Y-100066754D01*
X131889874Y-100060872D01*
X131945304Y-100051958D01*
X132001896Y-100046454D01*
X132059457Y-100043895D01*
X132117793Y-100043817D01*
X132176711Y-100045754D01*
G37*
G36*
X147397028Y-97844412D02*
G01*
X147416637Y-97845293D01*
X147435882Y-97847035D01*
X147454779Y-97849631D01*
X147473341Y-97853069D01*
X147491583Y-97857341D01*
X147509521Y-97862436D01*
X147527167Y-97868345D01*
X147544538Y-97875059D01*
X147561647Y-97882567D01*
X147578509Y-97890860D01*
X147611550Y-97909761D01*
X147643777Y-97931685D01*
X147675306Y-97956555D01*
X147706254Y-97984292D01*
X147736737Y-98014820D01*
X147766871Y-98048061D01*
X147796773Y-98083937D01*
X147826559Y-98122371D01*
X149202390Y-100027369D01*
X149212319Y-100037603D01*
X149222286Y-100048456D01*
X149232330Y-100059929D01*
X149242491Y-100072022D01*
X149263317Y-100098067D01*
X149285072Y-100126593D01*
X149387598Y-100265498D01*
X149387895Y-100236643D01*
X149388735Y-100209532D01*
X149390040Y-100184048D01*
X149391732Y-100160077D01*
X149395971Y-100116203D01*
X149400829Y-100076980D01*
X149409925Y-100008766D01*
X149412923Y-99977914D01*
X149413763Y-99962896D01*
X149414060Y-99947993D01*
X149414060Y-98175281D01*
X149414448Y-98123752D01*
X149415921Y-98078076D01*
X149418944Y-98037903D01*
X149421182Y-98019772D01*
X149423982Y-98002885D01*
X149427402Y-97987200D01*
X149431501Y-97972674D01*
X149436336Y-97959261D01*
X149441966Y-97946919D01*
X149448448Y-97935604D01*
X149455841Y-97925273D01*
X149464202Y-97915881D01*
X149473591Y-97907386D01*
X149484065Y-97899743D01*
X149495683Y-97892910D01*
X149508502Y-97886842D01*
X149522580Y-97881496D01*
X149537977Y-97876828D01*
X149554749Y-97872794D01*
X149572955Y-97869352D01*
X149592653Y-97866457D01*
X149636759Y-97862136D01*
X149687531Y-97859481D01*
X149745434Y-97858144D01*
X149810934Y-97857776D01*
X149867118Y-97858144D01*
X149916870Y-97859481D01*
X149960575Y-97862136D01*
X149998622Y-97866457D01*
X150015644Y-97869352D01*
X150031397Y-97872794D01*
X150045930Y-97876828D01*
X150059290Y-97881496D01*
X150071526Y-97886842D01*
X150082687Y-97892910D01*
X150092820Y-97899743D01*
X150101975Y-97907386D01*
X150110200Y-97915881D01*
X150117543Y-97925273D01*
X150124053Y-97935604D01*
X150129777Y-97946919D01*
X150134766Y-97959261D01*
X150139067Y-97972674D01*
X150142728Y-97987200D01*
X150145798Y-98002885D01*
X150150359Y-98037903D01*
X150153136Y-98078076D01*
X150154519Y-98123752D01*
X150154893Y-98175281D01*
X150154893Y-101270907D01*
X150153950Y-101309063D01*
X150151069Y-101344235D01*
X150148878Y-101360738D01*
X150146173Y-101376539D01*
X150142945Y-101391652D01*
X150139184Y-101406092D01*
X150134880Y-101419873D01*
X150130024Y-101433009D01*
X150124606Y-101445516D01*
X150118616Y-101457407D01*
X150112045Y-101468698D01*
X150104883Y-101479402D01*
X150097120Y-101489535D01*
X150088747Y-101499111D01*
X150079754Y-101508144D01*
X150070131Y-101516650D01*
X150059868Y-101524641D01*
X150048956Y-101532134D01*
X150037385Y-101539142D01*
X150025146Y-101545680D01*
X150012229Y-101551763D01*
X149998623Y-101557405D01*
X149984320Y-101562620D01*
X149969310Y-101567424D01*
X149937128Y-101575854D01*
X149902001Y-101582812D01*
X149863851Y-101588412D01*
X149805256Y-101592107D01*
X149748559Y-101593167D01*
X149693801Y-101591435D01*
X149641020Y-101586759D01*
X149590254Y-101578981D01*
X149541542Y-101567949D01*
X149494923Y-101553505D01*
X149450436Y-101535496D01*
X149408119Y-101513766D01*
X149387787Y-101501457D01*
X149368012Y-101488160D01*
X149348799Y-101473856D01*
X149330152Y-101458524D01*
X149312078Y-101442146D01*
X149294580Y-101424702D01*
X149277663Y-101406173D01*
X149261332Y-101386539D01*
X149245593Y-101365782D01*
X149230450Y-101343881D01*
X149215907Y-101320817D01*
X149201970Y-101296571D01*
X149175932Y-101244456D01*
X147032804Y-98281123D01*
X147023186Y-98265639D01*
X147014150Y-98249032D01*
X147005656Y-98231416D01*
X146997665Y-98212909D01*
X146990140Y-98193627D01*
X146983041Y-98173686D01*
X146976329Y-98153203D01*
X146969966Y-98132293D01*
X146958132Y-98089659D01*
X146947229Y-98046715D01*
X146926973Y-97963618D01*
X146946823Y-97958360D01*
X146966711Y-97952559D01*
X147006760Y-97939640D01*
X147089029Y-97910701D01*
X147131870Y-97895921D01*
X147176260Y-97881762D01*
X147199134Y-97875108D01*
X147222511Y-97868842D01*
X147246431Y-97863041D01*
X147270933Y-97857783D01*
X147293027Y-97853286D01*
X147314670Y-97849709D01*
X147335877Y-97847043D01*
X147356663Y-97845278D01*
X147377042Y-97844404D01*
X147397028Y-97844412D01*
G37*
G36*
X129955373Y-97858023D02*
G01*
X129969558Y-97858721D01*
X129983278Y-97859884D01*
X129996533Y-97861512D01*
X130009323Y-97863605D01*
X130021648Y-97866163D01*
X130033507Y-97869186D01*
X130044902Y-97872674D01*
X130055832Y-97876627D01*
X130066296Y-97881046D01*
X130076296Y-97885929D01*
X130085830Y-97891278D01*
X130094899Y-97897091D01*
X130103503Y-97903370D01*
X130111642Y-97910114D01*
X130119316Y-97917323D01*
X130126525Y-97924997D01*
X130133269Y-97933136D01*
X130139548Y-97941741D01*
X130145361Y-97950810D01*
X130150710Y-97960344D01*
X130155593Y-97970344D01*
X130160012Y-97980809D01*
X130163965Y-97991738D01*
X130167453Y-98003133D01*
X130170476Y-98014993D01*
X130173034Y-98027318D01*
X130175127Y-98040108D01*
X130176755Y-98053363D01*
X130177918Y-98067084D01*
X130178615Y-98081269D01*
X130178848Y-98095920D01*
X130178848Y-98334041D01*
X130178615Y-98348691D01*
X130177918Y-98362876D01*
X130176755Y-98376597D01*
X130175127Y-98389852D01*
X130173034Y-98402642D01*
X130170476Y-98414966D01*
X130167453Y-98426826D01*
X130163965Y-98438221D01*
X130160012Y-98449150D01*
X130155593Y-98459615D01*
X130150710Y-98469614D01*
X130145361Y-98479148D01*
X130139548Y-98488217D01*
X130133269Y-98496821D01*
X130126525Y-98504960D01*
X130119316Y-98512633D01*
X130111642Y-98519842D01*
X130103503Y-98526585D01*
X130094899Y-98532864D01*
X130085830Y-98538677D01*
X130076296Y-98544025D01*
X130066296Y-98548909D01*
X130055832Y-98553327D01*
X130044902Y-98557280D01*
X130033507Y-98560768D01*
X130021648Y-98563791D01*
X130009323Y-98566348D01*
X129996533Y-98568441D01*
X129983278Y-98570069D01*
X129969558Y-98571232D01*
X129955373Y-98571929D01*
X129940723Y-98572162D01*
X127585931Y-98572162D01*
X127578490Y-98571931D01*
X127571049Y-98571244D01*
X127563607Y-98570112D01*
X127556166Y-98568545D01*
X127548724Y-98566550D01*
X127541283Y-98564139D01*
X127533841Y-98561322D01*
X127526400Y-98558107D01*
X127518959Y-98554504D01*
X127511517Y-98550523D01*
X127496634Y-98541467D01*
X127481751Y-98531016D01*
X127466868Y-98519247D01*
X127451986Y-98506238D01*
X127437103Y-98492065D01*
X127422220Y-98476808D01*
X127407337Y-98460542D01*
X127392454Y-98443346D01*
X127377571Y-98425297D01*
X127362688Y-98406473D01*
X127347806Y-98386950D01*
X127347806Y-98372741D01*
X127359771Y-98379439D01*
X127374264Y-98386958D01*
X127373851Y-98292699D01*
X127372869Y-98249290D01*
X127370957Y-98208362D01*
X127369555Y-98188828D01*
X127367805Y-98169914D01*
X127365667Y-98151620D01*
X127363102Y-98133946D01*
X127360073Y-98116893D01*
X127356540Y-98100460D01*
X127352464Y-98084646D01*
X127347807Y-98069453D01*
X127347806Y-98372741D01*
X127346062Y-98371765D01*
X127333148Y-98363936D01*
X127321038Y-98355952D01*
X127309742Y-98347813D01*
X127299269Y-98339518D01*
X127289630Y-98331069D01*
X127280834Y-98322465D01*
X127272890Y-98313706D01*
X127265809Y-98304791D01*
X127259600Y-98295722D01*
X127254272Y-98286498D01*
X127249836Y-98277118D01*
X127246301Y-98267584D01*
X127243677Y-98257894D01*
X127241973Y-98248050D01*
X127241200Y-98238050D01*
X127241366Y-98227896D01*
X127242482Y-98217586D01*
X127244557Y-98207121D01*
X127247601Y-98196502D01*
X127251624Y-98185727D01*
X127256635Y-98174797D01*
X127262644Y-98163712D01*
X127269661Y-98152473D01*
X127277695Y-98141078D01*
X127286756Y-98129528D01*
X127296854Y-98117823D01*
X127307998Y-98105963D01*
X127320198Y-98093948D01*
X127333465Y-98081778D01*
X127347807Y-98069453D01*
X127348038Y-98057207D01*
X127348730Y-98045276D01*
X127349878Y-98033665D01*
X127351475Y-98022378D01*
X127353519Y-98011420D01*
X127356004Y-98000797D01*
X127358924Y-97990513D01*
X127362276Y-97980573D01*
X127366054Y-97970981D01*
X127370253Y-97961744D01*
X127374869Y-97952864D01*
X127379897Y-97944348D01*
X127385332Y-97936201D01*
X127391169Y-97928426D01*
X127397403Y-97921029D01*
X127404030Y-97914015D01*
X127411044Y-97907388D01*
X127418441Y-97901154D01*
X127426216Y-97895317D01*
X127434364Y-97889882D01*
X127442880Y-97884854D01*
X127451760Y-97880238D01*
X127460998Y-97876038D01*
X127470589Y-97872260D01*
X127480530Y-97868909D01*
X127490814Y-97865988D01*
X127501438Y-97863504D01*
X127512395Y-97861460D01*
X127523683Y-97859862D01*
X127535294Y-97858715D01*
X127547226Y-97858023D01*
X127559473Y-97857791D01*
X129940723Y-97857791D01*
X129955373Y-97858023D01*
G37*
G36*
X135301687Y-97872607D02*
G01*
X135314819Y-97873247D01*
X135328300Y-97874312D01*
X135384938Y-97880514D01*
X135399582Y-97881967D01*
X135414343Y-97883149D01*
X135429180Y-97883944D01*
X135444057Y-97884234D01*
X135495585Y-97884603D01*
X135541260Y-97885940D01*
X135581432Y-97888595D01*
X135616449Y-97892917D01*
X135632134Y-97895812D01*
X135646660Y-97899255D01*
X135660073Y-97903288D01*
X135672414Y-97907956D01*
X135683729Y-97913303D01*
X135694060Y-97919371D01*
X135703452Y-97926205D01*
X135711947Y-97933847D01*
X135719589Y-97942343D01*
X135726423Y-97951735D01*
X135732491Y-97962066D01*
X135737837Y-97973381D01*
X135742504Y-97985723D01*
X135746538Y-97999136D01*
X135749980Y-98013662D01*
X135752875Y-98029347D01*
X135757196Y-98064365D01*
X135759851Y-98104537D01*
X135761188Y-98150212D01*
X135761556Y-98201739D01*
X135761556Y-98916118D01*
X135761324Y-98930768D01*
X135760626Y-98944953D01*
X135759463Y-98958674D01*
X135757835Y-98971929D01*
X135755743Y-98984719D01*
X135753185Y-98997043D01*
X135750161Y-99008903D01*
X135746673Y-99020298D01*
X135742720Y-99031227D01*
X135738302Y-99041691D01*
X135733418Y-99051691D01*
X135728069Y-99061225D01*
X135722256Y-99070294D01*
X135715977Y-99078898D01*
X135709233Y-99087037D01*
X135702024Y-99094710D01*
X135694350Y-99101919D01*
X135686211Y-99108662D01*
X135677607Y-99114941D01*
X135668538Y-99120754D01*
X135659003Y-99126103D01*
X135649004Y-99130986D01*
X135638539Y-99135404D01*
X135627610Y-99139357D01*
X135616215Y-99142845D01*
X135604355Y-99145868D01*
X135592030Y-99148425D01*
X135579240Y-99150518D01*
X135565985Y-99152146D01*
X135552265Y-99153309D01*
X135538080Y-99154006D01*
X135523429Y-99154239D01*
X135503592Y-99154529D01*
X135483794Y-99155324D01*
X135444468Y-99157961D01*
X135367987Y-99164164D01*
X135331452Y-99165869D01*
X135313747Y-99165966D01*
X135296467Y-99165404D01*
X135279653Y-99164067D01*
X135263343Y-99161837D01*
X135247575Y-99158600D01*
X135232389Y-99154239D01*
X135217228Y-99148671D01*
X135201641Y-99141940D01*
X135185822Y-99134124D01*
X135169964Y-99125300D01*
X135154260Y-99115547D01*
X135138906Y-99104941D01*
X135124095Y-99093559D01*
X135110019Y-99081480D01*
X135096874Y-99068781D01*
X135084853Y-99055539D01*
X135074150Y-99041831D01*
X135069353Y-99034827D01*
X135064958Y-99027736D01*
X135060990Y-99020567D01*
X135057472Y-99013331D01*
X135054428Y-99006036D01*
X135051884Y-98998692D01*
X135049863Y-98991310D01*
X135048390Y-98983899D01*
X135047488Y-98976468D01*
X135047182Y-98969027D01*
X135038500Y-98858751D01*
X135032299Y-98746614D01*
X135028578Y-98633237D01*
X135027338Y-98519239D01*
X135028578Y-98405241D01*
X135032299Y-98291863D01*
X135038500Y-98179724D01*
X135047182Y-98069446D01*
X135047488Y-98062081D01*
X135048390Y-98054867D01*
X135049863Y-98047799D01*
X135051884Y-98040871D01*
X135054428Y-98034078D01*
X135057472Y-98027416D01*
X135060990Y-98020880D01*
X135064958Y-98014465D01*
X135069353Y-98008167D01*
X135074150Y-98001979D01*
X135079325Y-97995899D01*
X135084854Y-97989920D01*
X135090712Y-97984038D01*
X135096875Y-97978247D01*
X135110020Y-97966924D01*
X135124095Y-97955910D01*
X135138907Y-97945167D01*
X135154261Y-97934657D01*
X135169964Y-97924340D01*
X135232389Y-97884234D01*
X135237427Y-97881906D01*
X135242614Y-97879874D01*
X135247947Y-97878123D01*
X135253421Y-97876638D01*
X135264770Y-97874409D01*
X135276624Y-97873072D01*
X135288942Y-97872510D01*
X135301687Y-97872607D01*
G37*
G36*
X143249281Y-99390509D02*
G01*
X143275722Y-99392375D01*
X145260099Y-99392375D01*
X145316284Y-99392756D01*
X145366035Y-99394184D01*
X145409740Y-99397084D01*
X145429446Y-99399220D01*
X145447786Y-99401883D01*
X145464809Y-99405129D01*
X145480562Y-99409008D01*
X145495094Y-99413576D01*
X145508454Y-99418885D01*
X145520690Y-99424988D01*
X145531850Y-99431940D01*
X145541984Y-99439792D01*
X145551138Y-99448599D01*
X145559363Y-99458413D01*
X145566706Y-99469289D01*
X145573216Y-99481278D01*
X145578940Y-99494436D01*
X145583929Y-99508814D01*
X145588229Y-99524466D01*
X145591890Y-99541446D01*
X145594960Y-99559806D01*
X145599520Y-99600882D01*
X145602298Y-99648120D01*
X145603680Y-99701948D01*
X145604055Y-99762790D01*
X145603680Y-99819273D01*
X145602298Y-99869865D01*
X145599520Y-99914875D01*
X145594960Y-99954614D01*
X145591890Y-99972604D01*
X145588229Y-99989393D01*
X145583929Y-100005018D01*
X145578940Y-100019520D01*
X145573216Y-100032936D01*
X145566706Y-100045306D01*
X145559363Y-100056668D01*
X145551138Y-100067061D01*
X145541984Y-100076524D01*
X145531850Y-100085096D01*
X145520690Y-100092815D01*
X145508454Y-100099720D01*
X145495094Y-100105850D01*
X145480562Y-100111243D01*
X145464809Y-100115939D01*
X145447786Y-100119976D01*
X145429446Y-100123393D01*
X145409740Y-100126229D01*
X145366035Y-100130311D01*
X145316284Y-100132533D01*
X145260099Y-100133204D01*
X145131062Y-100124471D01*
X145001716Y-100117908D01*
X144871749Y-100113205D01*
X144740852Y-100110053D01*
X144475029Y-100107159D01*
X144201765Y-100106746D01*
X143275722Y-100106746D01*
X143251609Y-100106285D01*
X143228852Y-100104918D01*
X143207412Y-100102669D01*
X143187252Y-100099563D01*
X143168332Y-100095623D01*
X143150613Y-100090874D01*
X143134058Y-100085341D01*
X143118626Y-100079047D01*
X143104279Y-100072016D01*
X143090979Y-100064274D01*
X143078687Y-100055843D01*
X143067363Y-100046749D01*
X143056970Y-100037015D01*
X143047468Y-100026666D01*
X143038818Y-100015726D01*
X143030983Y-100004219D01*
X143023923Y-99992170D01*
X143017599Y-99979602D01*
X143011973Y-99966540D01*
X143007005Y-99953008D01*
X143002658Y-99939030D01*
X142998892Y-99924631D01*
X142992950Y-99894666D01*
X142988867Y-99863305D01*
X142986335Y-99830743D01*
X142985043Y-99797173D01*
X142984682Y-99762790D01*
X142985250Y-99685018D01*
X142986600Y-99647740D01*
X142989229Y-99611897D01*
X142993564Y-99577758D01*
X143000029Y-99545596D01*
X143004195Y-99530341D01*
X143009053Y-99515682D01*
X143014658Y-99501653D01*
X143021062Y-99488287D01*
X143028318Y-99475619D01*
X143036481Y-99463682D01*
X143045602Y-99452511D01*
X143055736Y-99442140D01*
X143066936Y-99432601D01*
X143079256Y-99423930D01*
X143092747Y-99416160D01*
X143107464Y-99409325D01*
X143123461Y-99403459D01*
X143140789Y-99398596D01*
X143159503Y-99394769D01*
X143179656Y-99392013D01*
X143201301Y-99390362D01*
X143224492Y-99389849D01*
X143249281Y-99390509D01*
G37*
D13*
X131609532Y-108288958D02*
X130609532Y-106860387D01*
X129895247Y-108288958D02*
X129895247Y-105288958D01*
X131038104Y-105288958D01*
X131323818Y-105431816D01*
X131466675Y-105574673D01*
X131609532Y-105860387D01*
X131609532Y-106288958D01*
X131466675Y-106574673D01*
X131323818Y-106717530D01*
X131038104Y-106860387D01*
X129895247Y-106860387D01*
X134466675Y-105431816D02*
X134180961Y-105288958D01*
X133752390Y-105288958D01*
X133323818Y-105431816D01*
X133038104Y-105717530D01*
X132895247Y-106003244D01*
X132752390Y-106574673D01*
X132752390Y-107003244D01*
X132895247Y-107574673D01*
X133038104Y-107860387D01*
X133323818Y-108146101D01*
X133752390Y-108288958D01*
X134038104Y-108288958D01*
X134466675Y-108146101D01*
X134609532Y-108003244D01*
X134609532Y-107003244D01*
X134038104Y-107003244D01*
X136895247Y-106717530D02*
X137323818Y-106860387D01*
X137466675Y-107003244D01*
X137609532Y-107288958D01*
X137609532Y-107717530D01*
X137466675Y-108003244D01*
X137323818Y-108146101D01*
X137038104Y-108288958D01*
X135895247Y-108288958D01*
X135895247Y-105288958D01*
X136895247Y-105288958D01*
X137180961Y-105431816D01*
X137323818Y-105574673D01*
X137466675Y-105860387D01*
X137466675Y-106146101D01*
X137323818Y-106431816D01*
X137180961Y-106574673D01*
X136895247Y-106717530D01*
X135895247Y-106717530D01*
X138895247Y-107146101D02*
X141180961Y-107146101D01*
X140038104Y-108288958D02*
X140038104Y-106003244D01*
X144323818Y-108003244D02*
X144180961Y-108146101D01*
X143752390Y-108288958D01*
X143466675Y-108288958D01*
X143038104Y-108146101D01*
X142752390Y-107860387D01*
X142609532Y-107574673D01*
X142466675Y-107003244D01*
X142466675Y-106574673D01*
X142609532Y-106003244D01*
X142752390Y-105717530D01*
X143038104Y-105431816D01*
X143466675Y-105288958D01*
X143752390Y-105288958D01*
X144180961Y-105431816D01*
X144323818Y-105574673D01*
X147323818Y-108003244D02*
X147180961Y-108146101D01*
X146752390Y-108288958D01*
X146466675Y-108288958D01*
X146038104Y-108146101D01*
X145752390Y-107860387D01*
X145609532Y-107574673D01*
X145466675Y-107003244D01*
X145466675Y-106574673D01*
X145609532Y-106003244D01*
X145752390Y-105717530D01*
X146038104Y-105431816D01*
X146466675Y-105288958D01*
X146752390Y-105288958D01*
X147180961Y-105431816D01*
X147323818Y-105574673D01*
X148180961Y-105288958D02*
X149895247Y-105288958D01*
X149038104Y-108288958D02*
X149038104Y-105288958D01*
X153180961Y-108288958D02*
X153180961Y-105288958D01*
X154180961Y-107431816D01*
X155180961Y-105288958D01*
X155180961Y-108288958D01*
X157180961Y-105288958D02*
X157752390Y-105288958D01*
X158038104Y-105431816D01*
X158323818Y-105717530D01*
X158466675Y-106288958D01*
X158466675Y-107288958D01*
X158323818Y-107860387D01*
X158038104Y-108146101D01*
X157752390Y-108288958D01*
X157180961Y-108288958D01*
X156895247Y-108146101D01*
X156609532Y-107860387D01*
X156466675Y-107288958D01*
X156466675Y-106288958D01*
X156609532Y-105717530D01*
X156895247Y-105431816D01*
X157180961Y-105288958D01*
X159752390Y-108288958D02*
X159752390Y-105288958D01*
X160466675Y-105288958D01*
X160895247Y-105431816D01*
X161180961Y-105717530D01*
X161323818Y-106003244D01*
X161466675Y-106574673D01*
X161466675Y-107003244D01*
X161323818Y-107574673D01*
X161180961Y-107860387D01*
X160895247Y-108146101D01*
X160466675Y-108288958D01*
X159752390Y-108288958D01*
X162752390Y-105288958D02*
X162752390Y-107717530D01*
X162895247Y-108003244D01*
X163038104Y-108146101D01*
X163323818Y-108288958D01*
X163895247Y-108288958D01*
X164180961Y-108146101D01*
X164323818Y-108003244D01*
X164466675Y-107717530D01*
X164466675Y-105288958D01*
X167323818Y-108288958D02*
X165895247Y-108288958D01*
X165895247Y-105288958D01*
X168323818Y-106717530D02*
X169323818Y-106717530D01*
X169752390Y-108288958D02*
X168323818Y-108288958D01*
X168323818Y-105288958D01*
X169752390Y-105288958D01*
D14*
%TO.C,Q3*%
X213631437Y-54962292D02*
X213510485Y-54901816D01*
X213389532Y-54780863D01*
X213208104Y-54599435D01*
X213087151Y-54538958D01*
X212966199Y-54538958D01*
X213026675Y-54841339D02*
X212905723Y-54780863D01*
X212784770Y-54659911D01*
X212724294Y-54418006D01*
X212724294Y-53994673D01*
X212784770Y-53752768D01*
X212905723Y-53631816D01*
X213026675Y-53571339D01*
X213268580Y-53571339D01*
X213389532Y-53631816D01*
X213510485Y-53752768D01*
X213570961Y-53994673D01*
X213570961Y-54418006D01*
X213510485Y-54659911D01*
X213389532Y-54780863D01*
X213268580Y-54841339D01*
X213026675Y-54841339D01*
X213994294Y-53571339D02*
X214780485Y-53571339D01*
X214357151Y-54055149D01*
X214538580Y-54055149D01*
X214659532Y-54115625D01*
X214720009Y-54176101D01*
X214780485Y-54297054D01*
X214780485Y-54599435D01*
X214720009Y-54720387D01*
X214659532Y-54780863D01*
X214538580Y-54841339D01*
X214175723Y-54841339D01*
X214054770Y-54780863D01*
X213994294Y-54720387D01*
%TO.C,J11*%
X135724294Y-127236339D02*
X135724294Y-128143482D01*
X135663818Y-128324911D01*
X135542866Y-128445863D01*
X135361437Y-128506339D01*
X135240485Y-128506339D01*
X136994294Y-128506339D02*
X136268580Y-128506339D01*
X136631437Y-128506339D02*
X136631437Y-127236339D01*
X136510485Y-127417768D01*
X136389532Y-127538720D01*
X136268580Y-127599196D01*
X138203818Y-128506339D02*
X137478104Y-128506339D01*
X137840961Y-128506339D02*
X137840961Y-127236339D01*
X137720009Y-127417768D01*
X137599056Y-127538720D01*
X137478104Y-127599196D01*
%TO.C,F1*%
X93661675Y-86355149D02*
X93661675Y-86778482D01*
X94326913Y-86778482D02*
X93056913Y-86778482D01*
X93056913Y-86173720D01*
X94326913Y-85024673D02*
X94326913Y-85750387D01*
X94326913Y-85387530D02*
X93056913Y-85387530D01*
X93238342Y-85508482D01*
X93359294Y-85629435D01*
X93419770Y-85750387D01*
%TO.C,J10*%
X94661294Y-124423339D02*
X94661294Y-125330482D01*
X94600818Y-125511911D01*
X94479866Y-125632863D01*
X94298437Y-125693339D01*
X94177485Y-125693339D01*
X95931294Y-125693339D02*
X95205580Y-125693339D01*
X95568437Y-125693339D02*
X95568437Y-124423339D01*
X95447485Y-124604768D01*
X95326532Y-124725720D01*
X95205580Y-124786196D01*
X96717485Y-124423339D02*
X96838437Y-124423339D01*
X96959390Y-124483816D01*
X97019866Y-124544292D01*
X97080342Y-124665244D01*
X97140818Y-124907149D01*
X97140818Y-125209530D01*
X97080342Y-125451435D01*
X97019866Y-125572387D01*
X96959390Y-125632863D01*
X96838437Y-125693339D01*
X96717485Y-125693339D01*
X96596532Y-125632863D01*
X96536056Y-125572387D01*
X96475580Y-125451435D01*
X96415104Y-125209530D01*
X96415104Y-124907149D01*
X96475580Y-124665244D01*
X96536056Y-124544292D01*
X96596532Y-124483816D01*
X96717485Y-124423339D01*
%TO.C,F9*%
X205661675Y-86380149D02*
X205661675Y-86803482D01*
X206326913Y-86803482D02*
X205056913Y-86803482D01*
X205056913Y-86198720D01*
X206326913Y-85654435D02*
X206326913Y-85412530D01*
X206266437Y-85291577D01*
X206205961Y-85231101D01*
X206024532Y-85110149D01*
X205782628Y-85049673D01*
X205298818Y-85049673D01*
X205177866Y-85110149D01*
X205117390Y-85170625D01*
X205056913Y-85291577D01*
X205056913Y-85533482D01*
X205117390Y-85654435D01*
X205177866Y-85714911D01*
X205298818Y-85775387D01*
X205601199Y-85775387D01*
X205722151Y-85714911D01*
X205782628Y-85654435D01*
X205843104Y-85533482D01*
X205843104Y-85291577D01*
X205782628Y-85170625D01*
X205722151Y-85110149D01*
X205601199Y-85049673D01*
%TO.C,F5*%
X149661675Y-86355149D02*
X149661675Y-86778482D01*
X150326913Y-86778482D02*
X149056913Y-86778482D01*
X149056913Y-86173720D01*
X149056913Y-85085149D02*
X149056913Y-85689911D01*
X149661675Y-85750387D01*
X149601199Y-85689911D01*
X149540723Y-85568958D01*
X149540723Y-85266577D01*
X149601199Y-85145625D01*
X149661675Y-85085149D01*
X149782628Y-85024673D01*
X150085009Y-85024673D01*
X150205961Y-85085149D01*
X150266437Y-85145625D01*
X150326913Y-85266577D01*
X150326913Y-85568958D01*
X150266437Y-85689911D01*
X150205961Y-85750387D01*
%TO.C,Q1*%
X149631437Y-54962292D02*
X149510485Y-54901816D01*
X149389532Y-54780863D01*
X149208104Y-54599435D01*
X149087151Y-54538958D01*
X148966199Y-54538958D01*
X149026675Y-54841339D02*
X148905723Y-54780863D01*
X148784770Y-54659911D01*
X148724294Y-54418006D01*
X148724294Y-53994673D01*
X148784770Y-53752768D01*
X148905723Y-53631816D01*
X149026675Y-53571339D01*
X149268580Y-53571339D01*
X149389532Y-53631816D01*
X149510485Y-53752768D01*
X149570961Y-53994673D01*
X149570961Y-54418006D01*
X149510485Y-54659911D01*
X149389532Y-54780863D01*
X149268580Y-54841339D01*
X149026675Y-54841339D01*
X150780485Y-54841339D02*
X150054770Y-54841339D01*
X150417628Y-54841339D02*
X150417628Y-53571339D01*
X150296675Y-53752768D01*
X150175723Y-53873720D01*
X150054770Y-53934196D01*
%TO.C,F2*%
X107661675Y-86355149D02*
X107661675Y-86778482D01*
X108326913Y-86778482D02*
X107056913Y-86778482D01*
X107056913Y-86173720D01*
X107177866Y-85750387D02*
X107117390Y-85689911D01*
X107056913Y-85568958D01*
X107056913Y-85266577D01*
X107117390Y-85145625D01*
X107177866Y-85085149D01*
X107298818Y-85024673D01*
X107419770Y-85024673D01*
X107601199Y-85085149D01*
X108326913Y-85810863D01*
X108326913Y-85024673D01*
%TO.C,Q5*%
X85631437Y-95982292D02*
X85510485Y-95921816D01*
X85389532Y-95800863D01*
X85208104Y-95619435D01*
X85087151Y-95558958D01*
X84966199Y-95558958D01*
X85026675Y-95861339D02*
X84905723Y-95800863D01*
X84784770Y-95679911D01*
X84724294Y-95438006D01*
X84724294Y-95014673D01*
X84784770Y-94772768D01*
X84905723Y-94651816D01*
X85026675Y-94591339D01*
X85268580Y-94591339D01*
X85389532Y-94651816D01*
X85510485Y-94772768D01*
X85570961Y-95014673D01*
X85570961Y-95438006D01*
X85510485Y-95679911D01*
X85389532Y-95800863D01*
X85268580Y-95861339D01*
X85026675Y-95861339D01*
X86720009Y-94591339D02*
X86115247Y-94591339D01*
X86054770Y-95196101D01*
X86115247Y-95135625D01*
X86236199Y-95075149D01*
X86538580Y-95075149D01*
X86659532Y-95135625D01*
X86720009Y-95196101D01*
X86780485Y-95317054D01*
X86780485Y-95619435D01*
X86720009Y-95740387D01*
X86659532Y-95800863D01*
X86538580Y-95861339D01*
X86236199Y-95861339D01*
X86115247Y-95800863D01*
X86054770Y-95740387D01*
%TO.C,F8*%
X191661675Y-86355149D02*
X191661675Y-86778482D01*
X192326913Y-86778482D02*
X191056913Y-86778482D01*
X191056913Y-86173720D01*
X191601199Y-85508482D02*
X191540723Y-85629435D01*
X191480247Y-85689911D01*
X191359294Y-85750387D01*
X191298818Y-85750387D01*
X191177866Y-85689911D01*
X191117390Y-85629435D01*
X191056913Y-85508482D01*
X191056913Y-85266577D01*
X191117390Y-85145625D01*
X191177866Y-85085149D01*
X191298818Y-85024673D01*
X191359294Y-85024673D01*
X191480247Y-85085149D01*
X191540723Y-85145625D01*
X191601199Y-85266577D01*
X191601199Y-85508482D01*
X191661675Y-85629435D01*
X191722151Y-85689911D01*
X191843104Y-85750387D01*
X192085009Y-85750387D01*
X192205961Y-85689911D01*
X192266437Y-85629435D01*
X192326913Y-85508482D01*
X192326913Y-85266577D01*
X192266437Y-85145625D01*
X192205961Y-85085149D01*
X192085009Y-85024673D01*
X191843104Y-85024673D01*
X191722151Y-85085149D01*
X191661675Y-85145625D01*
X191601199Y-85266577D01*
%TO.C,F4*%
X135661675Y-86330149D02*
X135661675Y-86753482D01*
X136326913Y-86753482D02*
X135056913Y-86753482D01*
X135056913Y-86148720D01*
X135480247Y-85120625D02*
X136326913Y-85120625D01*
X134996437Y-85423006D02*
X135903580Y-85725387D01*
X135903580Y-84939196D01*
%TO.C,Q4*%
X213631437Y-95982292D02*
X213510485Y-95921816D01*
X213389532Y-95800863D01*
X213208104Y-95619435D01*
X213087151Y-95558958D01*
X212966199Y-95558958D01*
X213026675Y-95861339D02*
X212905723Y-95800863D01*
X212784770Y-95679911D01*
X212724294Y-95438006D01*
X212724294Y-95014673D01*
X212784770Y-94772768D01*
X212905723Y-94651816D01*
X213026675Y-94591339D01*
X213268580Y-94591339D01*
X213389532Y-94651816D01*
X213510485Y-94772768D01*
X213570961Y-95014673D01*
X213570961Y-95438006D01*
X213510485Y-95679911D01*
X213389532Y-95800863D01*
X213268580Y-95861339D01*
X213026675Y-95861339D01*
X214659532Y-95014673D02*
X214659532Y-95861339D01*
X214357151Y-94530863D02*
X214054770Y-95438006D01*
X214840961Y-95438006D01*
%TO.C,F7*%
X177661675Y-86330149D02*
X177661675Y-86753482D01*
X178326913Y-86753482D02*
X177056913Y-86753482D01*
X177056913Y-86148720D01*
X177056913Y-85785863D02*
X177056913Y-84939196D01*
X178326913Y-85483482D01*
%TO.C,J12*%
X161724294Y-127436339D02*
X161724294Y-128343482D01*
X161663818Y-128524911D01*
X161542866Y-128645863D01*
X161361437Y-128706339D01*
X161240485Y-128706339D01*
X162994294Y-128706339D02*
X162268580Y-128706339D01*
X162631437Y-128706339D02*
X162631437Y-127436339D01*
X162510485Y-127617768D01*
X162389532Y-127738720D01*
X162268580Y-127799196D01*
X163478104Y-127557292D02*
X163538580Y-127496816D01*
X163659532Y-127436339D01*
X163961913Y-127436339D01*
X164082866Y-127496816D01*
X164143342Y-127557292D01*
X164203818Y-127678244D01*
X164203818Y-127799196D01*
X164143342Y-127980625D01*
X163417628Y-128706339D01*
X164203818Y-128706339D01*
%TO.C,F3*%
X121661675Y-86355149D02*
X121661675Y-86778482D01*
X122326913Y-86778482D02*
X121056913Y-86778482D01*
X121056913Y-86173720D01*
X121056913Y-85810863D02*
X121056913Y-85024673D01*
X121540723Y-85448006D01*
X121540723Y-85266577D01*
X121601199Y-85145625D01*
X121661675Y-85085149D01*
X121782628Y-85024673D01*
X122085009Y-85024673D01*
X122205961Y-85085149D01*
X122266437Y-85145625D01*
X122326913Y-85266577D01*
X122326913Y-85629435D01*
X122266437Y-85750387D01*
X122205961Y-85810863D01*
%TO.C,F6*%
X163661675Y-86330149D02*
X163661675Y-86753482D01*
X164326913Y-86753482D02*
X163056913Y-86753482D01*
X163056913Y-86148720D01*
X163056913Y-85120625D02*
X163056913Y-85362530D01*
X163117390Y-85483482D01*
X163177866Y-85543958D01*
X163359294Y-85664911D01*
X163601199Y-85725387D01*
X164085009Y-85725387D01*
X164205961Y-85664911D01*
X164266437Y-85604435D01*
X164326913Y-85483482D01*
X164326913Y-85241577D01*
X164266437Y-85120625D01*
X164205961Y-85060149D01*
X164085009Y-84999673D01*
X163782628Y-84999673D01*
X163661675Y-85060149D01*
X163601199Y-85120625D01*
X163540723Y-85241577D01*
X163540723Y-85483482D01*
X163601199Y-85604435D01*
X163661675Y-85664911D01*
X163782628Y-85725387D01*
%TO.C,Q2*%
X85631437Y-54962292D02*
X85510485Y-54901816D01*
X85389532Y-54780863D01*
X85208104Y-54599435D01*
X85087151Y-54538958D01*
X84966199Y-54538958D01*
X85026675Y-54841339D02*
X84905723Y-54780863D01*
X84784770Y-54659911D01*
X84724294Y-54418006D01*
X84724294Y-53994673D01*
X84784770Y-53752768D01*
X84905723Y-53631816D01*
X85026675Y-53571339D01*
X85268580Y-53571339D01*
X85389532Y-53631816D01*
X85510485Y-53752768D01*
X85570961Y-53994673D01*
X85570961Y-54418006D01*
X85510485Y-54659911D01*
X85389532Y-54780863D01*
X85268580Y-54841339D01*
X85026675Y-54841339D01*
X86054770Y-53692292D02*
X86115247Y-53631816D01*
X86236199Y-53571339D01*
X86538580Y-53571339D01*
X86659532Y-53631816D01*
X86720009Y-53692292D01*
X86780485Y-53813244D01*
X86780485Y-53934196D01*
X86720009Y-54115625D01*
X85994294Y-54841339D01*
X86780485Y-54841339D01*
D15*
%TO.C,Q3*%
X211302390Y-52666816D02*
X216202390Y-52666816D01*
X216202390Y-55866816D02*
X211302390Y-55866816D01*
X211302390Y-55866816D02*
X211302390Y-52666816D01*
X216202390Y-52666816D02*
X216202390Y-55866816D01*
X216357390Y-50791816D02*
X216357390Y-52316816D01*
D16*
%TO.C,J11*%
X128552390Y-131031816D02*
G75*
G03*
X128652390Y-131031816I50000J0D01*
G01*
X128652390Y-131031816D02*
G75*
G03*
X128552390Y-131031816I-50000J0D01*
G01*
D15*
X129252390Y-125931816D02*
X144252390Y-125931816D01*
D16*
X128652390Y-131031816D02*
X128652390Y-131031816D01*
D15*
X144252390Y-134931816D02*
X129252390Y-134931816D01*
X144252390Y-125931816D02*
X144252390Y-134931816D01*
X129252390Y-134931816D02*
X129252390Y-125931816D01*
D16*
X128552390Y-131031816D02*
X128552390Y-131031816D01*
D15*
%TO.C,F1*%
X93652390Y-81931816D02*
G75*
G03*
X93852390Y-81931816I100000J0D01*
G01*
X93852390Y-81931816D02*
G75*
G03*
X93652390Y-81931816I-100000J0D01*
G01*
X92132390Y-84431816D02*
X92132390Y-87431816D01*
X93852390Y-81931816D02*
X93852390Y-81931816D01*
X93652390Y-81931816D02*
X93652390Y-81931816D01*
X95372390Y-84431816D02*
X95372390Y-87431816D01*
D16*
%TO.C,D101*%
X184652390Y-115931816D02*
G75*
G03*
X184752390Y-115931816I50000J0D01*
G01*
X184752390Y-115931816D02*
G75*
G03*
X184652390Y-115931816I-50000J0D01*
G01*
X184752390Y-115931816D02*
X184752390Y-115931816D01*
X184652390Y-115931816D02*
X184652390Y-115931816D01*
D15*
%TO.C,J10*%
X104052390Y-114876816D02*
X104052390Y-124100816D01*
X88052390Y-114876816D02*
X104052390Y-114876816D01*
X88052390Y-114876816D02*
X88052390Y-123664816D01*
%TO.C,F9*%
X205652390Y-81956816D02*
G75*
G03*
X205852390Y-81956816I100000J0D01*
G01*
X205852390Y-81956816D02*
G75*
G03*
X205652390Y-81956816I-100000J0D01*
G01*
X205852390Y-81956816D02*
X205852390Y-81956816D01*
X207372390Y-84456816D02*
X207372390Y-87456816D01*
X205652390Y-81956816D02*
X205652390Y-81956816D01*
X204132390Y-84456816D02*
X204132390Y-87456816D01*
%TO.C,F5*%
X149852390Y-81931816D02*
G75*
G03*
X149652390Y-81931816I-100000J0D01*
G01*
X149652390Y-81931816D02*
G75*
G03*
X149852390Y-81931816I100000J0D01*
G01*
X149852390Y-81931816D02*
X149852390Y-81931816D01*
X151372390Y-84431816D02*
X151372390Y-87431816D01*
X148132390Y-84431816D02*
X148132390Y-87431816D01*
X149652390Y-81931816D02*
X149652390Y-81931816D01*
%TO.C,Q1*%
X147302390Y-52666816D02*
X152202390Y-52666816D01*
X152357390Y-50791816D02*
X152357390Y-52316816D01*
X152202390Y-52666816D02*
X152202390Y-55866816D01*
X147302390Y-55866816D02*
X147302390Y-52666816D01*
X152202390Y-55866816D02*
X147302390Y-55866816D01*
%TO.C,R5*%
X106282390Y-112484316D02*
G75*
G03*
X106282390Y-112484316I-50000J0D01*
G01*
D16*
%TO.C,D105*%
X210752390Y-115931816D02*
G75*
G03*
X210652390Y-115931816I-50000J0D01*
G01*
X210652390Y-115931816D02*
G75*
G03*
X210752390Y-115931816I50000J0D01*
G01*
X210652390Y-115931816D02*
X210652390Y-115931816D01*
X210752390Y-115931816D02*
X210752390Y-115931816D01*
D15*
%TO.C,F2*%
X107652390Y-81931816D02*
G75*
G03*
X107852390Y-81931816I100000J0D01*
G01*
X107852390Y-81931816D02*
G75*
G03*
X107652390Y-81931816I-100000J0D01*
G01*
X109372390Y-84431816D02*
X109372390Y-87431816D01*
X106132390Y-84431816D02*
X106132390Y-87431816D01*
X107652390Y-81931816D02*
X107652390Y-81931816D01*
X107852390Y-81931816D02*
X107852390Y-81931816D01*
%TO.C,J1*%
X92202390Y-60941816D02*
G75*
G03*
X92202390Y-60941816I-50000J0D01*
G01*
D16*
X91252390Y-61941816D02*
X96252390Y-61941816D01*
D15*
%TO.C,J4*%
X134202390Y-60916816D02*
G75*
G03*
X134202390Y-60916816I-50000J0D01*
G01*
D16*
X133252390Y-61916816D02*
X138252390Y-61916816D01*
%TO.C,D102*%
X191152390Y-115931816D02*
G75*
G03*
X191252390Y-115931816I50000J0D01*
G01*
X191252390Y-115931816D02*
G75*
G03*
X191152390Y-115931816I-50000J0D01*
G01*
X191252390Y-115931816D02*
X191252390Y-115931816D01*
X191152390Y-115931816D02*
X191152390Y-115931816D01*
D15*
%TO.C,Q5*%
X83147390Y-98761816D02*
X83147390Y-97236816D01*
X88202390Y-96886816D02*
X83302390Y-96886816D01*
X83302390Y-96886816D02*
X83302390Y-93686816D01*
X83302390Y-93686816D02*
X88202390Y-93686816D01*
X88202390Y-93686816D02*
X88202390Y-96886816D01*
%TO.C,F8*%
X191852390Y-81931816D02*
G75*
G03*
X191652390Y-81931816I-100000J0D01*
G01*
X191652390Y-81931816D02*
G75*
G03*
X191852390Y-81931816I100000J0D01*
G01*
X191652390Y-81931816D02*
X191652390Y-81931816D01*
X193372390Y-84431816D02*
X193372390Y-87431816D01*
X191852390Y-81931816D02*
X191852390Y-81931816D01*
X190132390Y-84431816D02*
X190132390Y-87431816D01*
%TO.C,F4*%
X135652390Y-81906816D02*
G75*
G03*
X135852390Y-81906816I100000J0D01*
G01*
X135852390Y-81906816D02*
G75*
G03*
X135652390Y-81906816I-100000J0D01*
G01*
X135852390Y-81906816D02*
X135852390Y-81906816D01*
X134132390Y-84406816D02*
X134132390Y-87406816D01*
X137372390Y-84406816D02*
X137372390Y-87406816D01*
X135652390Y-81906816D02*
X135652390Y-81906816D01*
%TO.C,R102*%
X191027390Y-119931816D02*
G75*
G03*
X191027390Y-119931816I-50000J0D01*
G01*
%TO.C,R2*%
X91022390Y-112486816D02*
G75*
G03*
X91022390Y-112486816I-50000J0D01*
G01*
%TO.C,R1*%
X85942390Y-112486816D02*
G75*
G03*
X85942390Y-112486816I-50000J0D01*
G01*
%TO.C,J6*%
X162202390Y-60916816D02*
G75*
G03*
X162202390Y-60916816I-50000J0D01*
G01*
D16*
X161252390Y-61916816D02*
X166252390Y-61916816D01*
D15*
%TO.C,Q4*%
X211302390Y-93686816D02*
X216202390Y-93686816D01*
X216202390Y-93686816D02*
X216202390Y-96886816D01*
X211147390Y-98761816D02*
X211147390Y-97236816D01*
X211302390Y-96886816D02*
X211302390Y-93686816D01*
X216202390Y-96886816D02*
X211302390Y-96886816D01*
%TO.C,R103*%
X197527390Y-119931816D02*
G75*
G03*
X197527390Y-119931816I-50000J0D01*
G01*
%TO.C,R101*%
X184527390Y-119931816D02*
G75*
G03*
X184527390Y-119931816I-50000J0D01*
G01*
%TO.C,F7*%
X177852390Y-81906816D02*
G75*
G03*
X177652390Y-81906816I-100000J0D01*
G01*
X177652390Y-81906816D02*
G75*
G03*
X177852390Y-81906816I100000J0D01*
G01*
X179372390Y-84406816D02*
X179372390Y-87406816D01*
X176132390Y-84406816D02*
X176132390Y-87406816D01*
X177852390Y-81906816D02*
X177852390Y-81906816D01*
X177652390Y-81906816D02*
X177652390Y-81906816D01*
%TO.C,R105*%
X210527390Y-119931816D02*
G75*
G03*
X210527390Y-119931816I-50000J0D01*
G01*
%TO.C,J9*%
X204202390Y-60941816D02*
G75*
G03*
X204202390Y-60941816I-50000J0D01*
G01*
D16*
X203252390Y-61941816D02*
X208252390Y-61941816D01*
%TO.C,J12*%
X154552390Y-131031816D02*
G75*
G03*
X154652390Y-131031816I50000J0D01*
G01*
X154652390Y-131031816D02*
G75*
G03*
X154552390Y-131031816I-50000J0D01*
G01*
X154552390Y-131031816D02*
X154552390Y-131031816D01*
D15*
X155252390Y-125931816D02*
X170252390Y-125931816D01*
X170252390Y-125931816D02*
X170252390Y-134931816D01*
D16*
X154652390Y-131031816D02*
X154652390Y-131031816D01*
D15*
X155252390Y-134931816D02*
X155252390Y-125931816D01*
X170252390Y-134931816D02*
X155252390Y-134931816D01*
D16*
%TO.C,D103*%
X197652390Y-115931816D02*
G75*
G03*
X197752390Y-115931816I50000J0D01*
G01*
X197752390Y-115931816D02*
G75*
G03*
X197652390Y-115931816I-50000J0D01*
G01*
X197652390Y-115931816D02*
X197652390Y-115931816D01*
X197752390Y-115931816D02*
X197752390Y-115931816D01*
D15*
%TO.C,J2*%
X106202390Y-60941816D02*
G75*
G03*
X106202390Y-60941816I-50000J0D01*
G01*
D16*
X105252390Y-61941816D02*
X110252390Y-61941816D01*
D15*
%TO.C,R104*%
X204027390Y-119931816D02*
G75*
G03*
X204027390Y-119931816I-50000J0D01*
G01*
%TO.C,J3*%
X120202390Y-60941816D02*
G75*
G03*
X120202390Y-60941816I-50000J0D01*
G01*
D16*
X119252390Y-61941816D02*
X124252390Y-61941816D01*
D15*
%TO.C,F3*%
X121852390Y-81931816D02*
G75*
G03*
X121652390Y-81931816I-100000J0D01*
G01*
X121652390Y-81931816D02*
G75*
G03*
X121852390Y-81931816I100000J0D01*
G01*
X121652390Y-81931816D02*
X121652390Y-81931816D01*
X123372390Y-84431816D02*
X123372390Y-87431816D01*
X121852390Y-81931816D02*
X121852390Y-81931816D01*
X120132390Y-84431816D02*
X120132390Y-87431816D01*
D16*
%TO.C,D104*%
X204252390Y-115931816D02*
G75*
G03*
X204152390Y-115931816I-50000J0D01*
G01*
X204152390Y-115931816D02*
G75*
G03*
X204252390Y-115931816I50000J0D01*
G01*
X204152390Y-115931816D02*
X204152390Y-115931816D01*
X204252390Y-115931816D02*
X204252390Y-115931816D01*
D15*
%TO.C,J7*%
X176202390Y-60916816D02*
G75*
G03*
X176202390Y-60916816I-50000J0D01*
G01*
D16*
X175252390Y-61916816D02*
X180252390Y-61916816D01*
D15*
%TO.C,J8*%
X190202390Y-60941816D02*
G75*
G03*
X190202390Y-60941816I-50000J0D01*
G01*
D16*
X189252390Y-61941816D02*
X194252390Y-61941816D01*
D15*
%TO.C,F6*%
X163852390Y-81906816D02*
G75*
G03*
X163652390Y-81906816I-100000J0D01*
G01*
X163652390Y-81906816D02*
G75*
G03*
X163852390Y-81906816I100000J0D01*
G01*
X163852390Y-81906816D02*
X163852390Y-81906816D01*
X162132390Y-84406816D02*
X162132390Y-87406816D01*
X165372390Y-84406816D02*
X165372390Y-87406816D01*
X163652390Y-81906816D02*
X163652390Y-81906816D01*
%TO.C,J5*%
X148202390Y-60941816D02*
G75*
G03*
X148202390Y-60941816I-50000J0D01*
G01*
D16*
X147252390Y-61941816D02*
X152252390Y-61941816D01*
D15*
%TO.C,R4*%
X101182390Y-112486816D02*
G75*
G03*
X101182390Y-112486816I-50000J0D01*
G01*
%TO.C,R3*%
X96102390Y-112486816D02*
G75*
G03*
X96102390Y-112486816I-50000J0D01*
G01*
%TO.C,Q2*%
X83302390Y-52666816D02*
X88202390Y-52666816D01*
X88202390Y-55866816D02*
X83302390Y-55866816D01*
X83302390Y-55866816D02*
X83302390Y-52666816D01*
X88202390Y-52666816D02*
X88202390Y-55866816D01*
X88357390Y-50791816D02*
X88357390Y-52316816D01*
%TD*%
M02*
