M48
; DRILL file {KiCad (6.0.10-0)} date Wednesday, January 04, 2023 at 02:52:49 PM
; FORMAT={-:-/ absolute / metric / decimal}
; #@! TF.CreationDate,2023-01-04T14:52:49-08:00
; #@! TF.GenerationSoftware,Kicad,Pcbnew,(6.0.10-0)
; #@! TF.FileFunction,Plated,1,2,PTH
FMAT,2
METRIC
; #@! TA.AperFunction,Plated,PTH,ViaDrill
T1C0.400
; #@! TA.AperFunction,Plated,PTH,ComponentDrill
T2C1.000
; #@! TA.AperFunction,Plated,PTH,ComponentDrill
T3C1.200
; #@! TA.AperFunction,Plated,PTH,ComponentDrill
T4C1.400
; #@! TA.AperFunction,Plated,PTH,ComponentDrill
T5C1.600
; #@! TA.AperFunction,Plated,PTH,ComponentDrill
T6C3.200
%
G90
G05
T1
X80.402Y-52.382
X81.202Y-53.132
X81.252Y-50.805
X82.352Y-50.805
X82.577Y-98.007
X83.852Y-99.432
X84.552Y-107.832
X85.102Y-99.432
X85.127Y-50.132
X86.352Y-99.432
X86.402Y-50.132
X87.252Y-107.832
X87.652Y-50.132
X88.902Y-51.557
X89.652Y-107.832
X91.252Y-81.432
X92.352Y-107.832
X94.752Y-107.832
X96.252Y-81.432
X97.352Y-107.832
X99.752Y-107.832
X102.452Y-107.832
X104.852Y-107.832
X105.252Y-81.432
X107.552Y-107.832
X110.252Y-81.432
X119.252Y-81.432
X124.252Y-81.432
X133.252Y-81.432
X138.252Y-81.432
X143.302Y-49.181
X143.308Y-48.181
X145.652Y-48.132
X146.27Y-48.918
X147.252Y-81.432
X149.127Y-50.132
X150.377Y-50.132
X151.652Y-50.132
X152.252Y-81.432
X152.902Y-51.557
X161.252Y-81.432
X166.252Y-81.432
X175.252Y-81.432
X180.252Y-81.432
X189.252Y-81.432
X194.252Y-81.432
X196.602Y-64.292
X196.602Y-96.932
X197.602Y-66.807
X197.602Y-96.932
X198.627Y-96.932
X198.642Y-69.292
X199.617Y-71.792
X199.627Y-96.932
X200.627Y-96.932
X200.642Y-74.292
X203.252Y-81.432
X208.108Y-48.881
X208.252Y-81.432
X210.252Y-48.882
X210.402Y-98.007
X211.852Y-99.407
X213.127Y-50.132
X213.152Y-99.407
X214.402Y-50.132
X214.402Y-99.407
X215.652Y-50.132
X216.902Y-51.557
T2
X91.607Y-119.177
X92.877Y-116.637
X94.147Y-119.177
X95.417Y-116.637
X96.687Y-119.177
X97.957Y-116.637
X99.227Y-119.177
X100.497Y-116.637
T3
X92.152Y-64.292
X92.152Y-66.792
X92.152Y-69.292
X92.152Y-71.792
X92.152Y-74.292
X92.152Y-76.792
X95.252Y-64.292
X95.252Y-66.792
X95.252Y-69.292
X95.252Y-71.792
X95.252Y-74.292
X95.252Y-76.792
X106.152Y-64.292
X106.152Y-66.792
X106.152Y-69.292
X106.152Y-71.792
X106.152Y-74.292
X106.152Y-76.792
X109.252Y-64.292
X109.252Y-66.792
X109.252Y-69.292
X109.252Y-71.792
X109.252Y-74.292
X109.252Y-76.792
X120.152Y-64.292
X120.152Y-66.792
X120.152Y-69.292
X120.152Y-71.792
X120.152Y-74.292
X120.152Y-76.792
X123.252Y-64.292
X123.252Y-66.792
X123.252Y-69.292
X123.252Y-71.792
X123.252Y-74.292
X123.252Y-76.792
X134.152Y-64.267
X134.152Y-66.767
X134.152Y-69.267
X134.152Y-71.767
X134.152Y-74.267
X134.152Y-76.767
X137.252Y-64.267
X137.252Y-66.767
X137.252Y-69.267
X137.252Y-71.767
X137.252Y-74.267
X137.252Y-76.767
X148.152Y-64.292
X148.152Y-66.792
X148.152Y-69.292
X148.152Y-71.792
X148.152Y-74.292
X148.152Y-76.792
X151.252Y-64.292
X151.252Y-66.792
X151.252Y-69.292
X151.252Y-71.792
X151.252Y-74.292
X151.252Y-76.792
X162.152Y-64.267
X162.152Y-66.767
X162.152Y-69.267
X162.152Y-71.767
X162.152Y-74.267
X162.152Y-76.767
X165.252Y-64.267
X165.252Y-66.767
X165.252Y-69.267
X165.252Y-71.767
X165.252Y-74.267
X165.252Y-76.767
X176.152Y-64.267
X176.152Y-66.767
X176.152Y-69.267
X176.152Y-71.767
X176.152Y-74.267
X176.152Y-76.767
X179.252Y-64.267
X179.252Y-66.767
X179.252Y-69.267
X179.252Y-71.767
X179.252Y-74.267
X179.252Y-76.767
X190.152Y-64.292
X190.152Y-66.792
X190.152Y-69.292
X190.152Y-71.792
X190.152Y-74.292
X190.152Y-76.792
X193.252Y-64.292
X193.252Y-66.792
X193.252Y-69.292
X193.252Y-71.792
X193.252Y-74.292
X193.252Y-76.792
X204.152Y-64.292
X204.152Y-66.792
X204.152Y-69.292
X204.152Y-71.792
X204.152Y-74.292
X204.152Y-76.792
X207.252Y-64.292
X207.252Y-66.792
X207.252Y-69.292
X207.252Y-71.792
X207.252Y-74.292
X207.252Y-76.792
T4
X131.752Y-131.132
X136.752Y-131.132
X141.752Y-131.132
X157.752Y-131.132
X162.752Y-131.132
X167.752Y-131.132
T5
X88.177Y-128.577
X103.927Y-128.577
T6
X90.337Y-125.527
X101.767Y-125.527
T0
M30
