%TF.GenerationSoftware,KiCad,Pcbnew,(6.0.10-0)*%
%TF.CreationDate,2023-01-04T14:52:54-08:00*%
%TF.ProjectId,rgbcct_module,72676263-6374-45f6-9d6f-64756c652e6b,1.0*%
%TF.SameCoordinates,Original*%
%TF.FileFunction,Soldermask,Top*%
%TF.FilePolarity,Negative*%
%FSLAX46Y46*%
G04 Gerber Fmt 4.6, Leading zero omitted, Abs format (unit mm)*
G04 Created by KiCad (PCBNEW (6.0.10-0)) date 2023-01-04 14:52:54*
%MOMM*%
%LPD*%
G01*
G04 APERTURE LIST*
%ADD10R,0.700000X1.525000*%
%ADD11C,2.100000*%
%ADD12R,3.150000X1.780000*%
%ADD13R,0.750000X1.400000*%
%ADD14C,2.400000*%
%ADD15C,4.500000*%
%ADD16C,1.500000*%
%ADD17C,3.200000*%
%ADD18R,1.150000X1.150000*%
%ADD19C,1.800000*%
%ADD20R,1.800000X1.800000*%
G04 APERTURE END LIST*
D10*
%TO.C,Q3*%
X215657390Y-56978816D03*
X214387390Y-56978816D03*
X213117390Y-56978816D03*
X211847390Y-56978816D03*
X211847390Y-51554816D03*
X213117390Y-51554816D03*
X214387390Y-51554816D03*
X215657390Y-51554816D03*
%TD*%
D11*
%TO.C,J11*%
X141752390Y-131131816D03*
X136752390Y-131131816D03*
X131752390Y-131131816D03*
%TD*%
D12*
%TO.C,F1*%
X93752390Y-88546816D03*
X93752390Y-83316816D03*
%TD*%
D13*
%TO.C,D101*%
X187877390Y-115931816D03*
X185627390Y-115931816D03*
%TD*%
D14*
%TO.C,J10*%
X103927390Y-128576816D03*
X88177390Y-128576816D03*
D15*
X90337390Y-125526816D03*
X101767390Y-125526816D03*
D16*
X100497390Y-116636816D03*
X99227390Y-119176816D03*
X97957390Y-116636816D03*
X96687390Y-119176816D03*
X95417390Y-116636816D03*
X94147390Y-119176816D03*
X92877390Y-116636816D03*
X91607390Y-119176816D03*
%TD*%
D12*
%TO.C,F9*%
X205752390Y-88571816D03*
X205752390Y-83341816D03*
%TD*%
%TO.C,F5*%
X149752390Y-88546816D03*
X149752390Y-83316816D03*
%TD*%
D17*
%TO.C,H3*%
X224752390Y-50931816D03*
%TD*%
D10*
%TO.C,Q1*%
X151657390Y-56978816D03*
X150387390Y-56978816D03*
X149117390Y-56978816D03*
X147847390Y-56978816D03*
X147847390Y-51554816D03*
X149117390Y-51554816D03*
X150387390Y-51554816D03*
X151657390Y-51554816D03*
%TD*%
D18*
%TO.C,R5*%
X106232390Y-109034316D03*
X106232390Y-111384316D03*
%TD*%
D13*
%TO.C,D105*%
X213877390Y-115931816D03*
X211627390Y-115931816D03*
%TD*%
D12*
%TO.C,F2*%
X107752390Y-88546816D03*
X107752390Y-83316816D03*
%TD*%
D19*
%TO.C,J1*%
X95252390Y-76791816D03*
X92152390Y-76791816D03*
X95252390Y-74291816D03*
X92152390Y-74291816D03*
X95252390Y-71791816D03*
X92152390Y-71791816D03*
X95252390Y-69291816D03*
X92152390Y-69291816D03*
X95252390Y-66791816D03*
X92152390Y-66791816D03*
X95252390Y-64291816D03*
D20*
X92152390Y-64291816D03*
%TD*%
D19*
%TO.C,J4*%
X137252390Y-76766816D03*
X134152390Y-76766816D03*
X137252390Y-74266816D03*
X134152390Y-74266816D03*
X137252390Y-71766816D03*
X134152390Y-71766816D03*
X137252390Y-69266816D03*
X134152390Y-69266816D03*
X137252390Y-66766816D03*
X134152390Y-66766816D03*
X137252390Y-64266816D03*
D20*
X134152390Y-64266816D03*
%TD*%
D13*
%TO.C,D102*%
X194377390Y-115931816D03*
X192127390Y-115931816D03*
%TD*%
D10*
%TO.C,Q5*%
X83847390Y-92574816D03*
X85117390Y-92574816D03*
X86387390Y-92574816D03*
X87657390Y-92574816D03*
X87657390Y-97998816D03*
X86387390Y-97998816D03*
X85117390Y-97998816D03*
X83847390Y-97998816D03*
%TD*%
D17*
%TO.C,H1*%
X74752390Y-130931816D03*
%TD*%
D12*
%TO.C,F8*%
X191752390Y-88546816D03*
X191752390Y-83316816D03*
%TD*%
%TO.C,F4*%
X135752390Y-88521816D03*
X135752390Y-83291816D03*
%TD*%
D18*
%TO.C,R102*%
X194427390Y-119931816D03*
X192077390Y-119931816D03*
%TD*%
%TO.C,R2*%
X90972390Y-109036816D03*
X90972390Y-111386816D03*
%TD*%
%TO.C,R1*%
X85892390Y-109036816D03*
X85892390Y-111386816D03*
%TD*%
D19*
%TO.C,J6*%
X165252390Y-76766816D03*
X162152390Y-76766816D03*
X165252390Y-74266816D03*
X162152390Y-74266816D03*
X165252390Y-71766816D03*
X162152390Y-71766816D03*
X165252390Y-69266816D03*
X162152390Y-69266816D03*
X165252390Y-66766816D03*
X162152390Y-66766816D03*
X165252390Y-64266816D03*
D20*
X162152390Y-64266816D03*
%TD*%
D10*
%TO.C,Q4*%
X211847390Y-92574816D03*
X213117390Y-92574816D03*
X214387390Y-92574816D03*
X215657390Y-92574816D03*
X215657390Y-97998816D03*
X214387390Y-97998816D03*
X213117390Y-97998816D03*
X211847390Y-97998816D03*
%TD*%
D18*
%TO.C,R103*%
X200927390Y-119931816D03*
X198577390Y-119931816D03*
%TD*%
%TO.C,R101*%
X187927390Y-119931816D03*
X185577390Y-119931816D03*
%TD*%
D12*
%TO.C,F7*%
X177752390Y-88521816D03*
X177752390Y-83291816D03*
%TD*%
D18*
%TO.C,R105*%
X213927390Y-119931816D03*
X211577390Y-119931816D03*
%TD*%
D17*
%TO.C,H4*%
X224752390Y-130931816D03*
%TD*%
D19*
%TO.C,J9*%
X207252390Y-76791816D03*
X204152390Y-76791816D03*
X207252390Y-74291816D03*
X204152390Y-74291816D03*
X207252390Y-71791816D03*
X204152390Y-71791816D03*
X207252390Y-69291816D03*
X204152390Y-69291816D03*
X207252390Y-66791816D03*
X204152390Y-66791816D03*
X207252390Y-64291816D03*
D20*
X204152390Y-64291816D03*
%TD*%
D11*
%TO.C,J12*%
X167752390Y-131131816D03*
X162752390Y-131131816D03*
X157752390Y-131131816D03*
%TD*%
D13*
%TO.C,D103*%
X200877390Y-115931816D03*
X198627390Y-115931816D03*
%TD*%
D19*
%TO.C,J2*%
X109252390Y-76791816D03*
X106152390Y-76791816D03*
X109252390Y-74291816D03*
X106152390Y-74291816D03*
X109252390Y-71791816D03*
X106152390Y-71791816D03*
X109252390Y-69291816D03*
X106152390Y-69291816D03*
X109252390Y-66791816D03*
X106152390Y-66791816D03*
X109252390Y-64291816D03*
D20*
X106152390Y-64291816D03*
%TD*%
D18*
%TO.C,R104*%
X207427390Y-119931816D03*
X205077390Y-119931816D03*
%TD*%
D19*
%TO.C,J3*%
X123252390Y-76791816D03*
X120152390Y-76791816D03*
X123252390Y-74291816D03*
X120152390Y-74291816D03*
X123252390Y-71791816D03*
X120152390Y-71791816D03*
X123252390Y-69291816D03*
X120152390Y-69291816D03*
X123252390Y-66791816D03*
X120152390Y-66791816D03*
X123252390Y-64291816D03*
D20*
X120152390Y-64291816D03*
%TD*%
D12*
%TO.C,F3*%
X121752390Y-88546816D03*
X121752390Y-83316816D03*
%TD*%
D13*
%TO.C,D104*%
X207377390Y-115931816D03*
X205127390Y-115931816D03*
%TD*%
D19*
%TO.C,J7*%
X179252390Y-76766816D03*
X176152390Y-76766816D03*
X179252390Y-74266816D03*
X176152390Y-74266816D03*
X179252390Y-71766816D03*
X176152390Y-71766816D03*
X179252390Y-69266816D03*
X176152390Y-69266816D03*
X179252390Y-66766816D03*
X176152390Y-66766816D03*
X179252390Y-64266816D03*
D20*
X176152390Y-64266816D03*
%TD*%
D19*
%TO.C,J8*%
X193252390Y-76791816D03*
X190152390Y-76791816D03*
X193252390Y-74291816D03*
X190152390Y-74291816D03*
X193252390Y-71791816D03*
X190152390Y-71791816D03*
X193252390Y-69291816D03*
X190152390Y-69291816D03*
X193252390Y-66791816D03*
X190152390Y-66791816D03*
X193252390Y-64291816D03*
D20*
X190152390Y-64291816D03*
%TD*%
D12*
%TO.C,F6*%
X163752390Y-88521816D03*
X163752390Y-83291816D03*
%TD*%
D19*
%TO.C,J5*%
X151252390Y-76791816D03*
X148152390Y-76791816D03*
X151252390Y-74291816D03*
X148152390Y-74291816D03*
X151252390Y-71791816D03*
X148152390Y-71791816D03*
X151252390Y-69291816D03*
X148152390Y-69291816D03*
X151252390Y-66791816D03*
X148152390Y-66791816D03*
X151252390Y-64291816D03*
D20*
X148152390Y-64291816D03*
%TD*%
D17*
%TO.C,H2*%
X74752390Y-50931816D03*
%TD*%
D18*
%TO.C,R4*%
X101132390Y-109036816D03*
X101132390Y-111386816D03*
%TD*%
%TO.C,R3*%
X96052390Y-109036816D03*
X96052390Y-111386816D03*
%TD*%
D10*
%TO.C,Q2*%
X87657390Y-56978816D03*
X86387390Y-56978816D03*
X85117390Y-56978816D03*
X83847390Y-56978816D03*
X83847390Y-51554816D03*
X85117390Y-51554816D03*
X86387390Y-51554816D03*
X87657390Y-51554816D03*
%TD*%
M02*
